<svg width="2817" height="896" xmlns="http://www.w3.org/2000/svg" xmlns:xlink="http://www.w3.org/1999/xlink" xml:space="preserve" overflow="hidden"><defs><linearGradient x1="1546.5" y1="1001" x2="1546.5" y2="1555" gradientUnits="userSpaceOnUse" spreadMethod="reflect" id="fill0"><stop offset="0" stop-color="#F2F2F2"/><stop offset="0.99" stop-color="#D9D9D9"/><stop offset="1" stop-color="#D1D1D1"/></linearGradient></defs><g transform="translate(-758 -757)"><path d="M2500.5 1478.06 3275.77 1478.06 3275.77 1484.94 2500.5 1484.94ZM3271.18 1467.75 3298.68 1481.5 3271.18 1495.25Z"/><path d="M3386.21 1456.85C3385.19 1456.85 3384.21 1457.03 3383.28 1457.39 3382.34 1457.76 3381.37 1458.38 3380.36 1459.26 3379.34 1460.14 3378.38 1461.32 3377.46 1462.8 3376.54 1464.29 3375.72 1466.04 3374.99 1468.05 3374.26 1470.07 3373.56 1472.64 3372.88 1475.77L3371.46 1482.3C3371.41 1482.6 3371.35 1483.02 3371.28 1483.57 3371.21 1484.13 3371.18 1484.64 3371.18 1485.09 3371.18 1486.82 3371.89 1488.15 3373.31 1489.09 3374.72 1490.02 3376.61 1490.48 3378.96 1490.48 3381.74 1490.48 3384.21 1489.36 3386.36 1487.1 3388.5 1484.84 3390.17 1481.74 3391.36 1477.78 3392.55 1473.82 3393.14 1469.88 3393.14 1465.97 3393.14 1464.21 3392.96 1462.68 3392.6 1461.37 3392.23 1460.06 3391.54 1458.97 3390.51 1458.12 3389.48 1457.27 3388.05 1456.85 3386.21 1456.85ZM3387.27 1453.65C3389.89 1453.65 3392.2 1454.18 3394.2 1455.25 3396.2 1456.31 3397.71 1457.86 3398.74 1459.89 3399.76 1461.91 3400.28 1464.4 3400.28 1467.34 3400.28 1471.94 3399.38 1476.29 3397.58 1480.41 3395.79 1484.53 3393.29 1487.78 3390.08 1490.14 3386.88 1492.5 3383.3 1493.69 3379.32 1493.69 3377.49 1493.69 3375.74 1493.52 3374.1 1493.2 3372.45 1492.88 3370.8 1492.32 3369.15 1491.54L3364.94 1510.55 3358.29 1510.55 3366.52 1473.87C3367.49 1469.55 3368.88 1465.92 3370.69 1463.01 3372.5 1460.09 3374.8 1457.8 3377.58 1456.14 3380.36 1454.48 3383.59 1453.65 3387.27 1453.65Z" fill-rule="evenodd"/><text fill="#000000" fill-opacity="0" font-family="Arial,Arial_MSFontService,sans-serif" font-size="56.9004" x="3358.29" y="1503.43">𝜌</text><path d="M2715.5 1481.5C2715.5 1462.72 2730.72 1447.5 2749.5 1447.5 2768.28 1447.5 2783.5 1462.72 2783.5 1481.5 2783.5 1500.28 2768.28 1515.5 2749.5 1515.5 2730.72 1515.5 2715.5 1500.28 2715.5 1481.5Z" stroke="#042433" stroke-width="6.875" stroke-miterlimit="8" fill="#DCEAF7" fill-rule="evenodd"/><path d="M2894.62 1234.02 2880.19 1259.55 2896.04 1259.55 2895.35 1246.5C2895.27 1244.72 2895.2 1242.49 2895.14 1239.82 2895.09 1237.14 2895.06 1235.21 2895.06 1234.02ZM2894.86 1225.47 2900.98 1225.47 2903.9 1270.66C2904.03 1272.79 2904.28 1274.46 2904.63 1275.66 2904.98 1276.86 2905.46 1277.76 2906.07 1278.34 2906.67 1278.92 2907.56 1279.29 2908.72 1279.45L2908.27 1281.44 2891.42 1281.44 2891.86 1279.45C2893.46 1279.32 2894.64 1278.69 2895.43 1277.59 2896.21 1276.48 2896.6 1274.53 2896.6 1271.75 2896.6 1270.7 2896.56 1269.55 2896.48 1268.31L2896.2 1263.08 2878.37 1263.08 2876.14 1267.05C2875.08 1268.91 2874.31 1270.52 2873.83 1271.85 2873.34 1273.19 2873.1 1274.37 2873.1 1275.4 2873.1 1277.67 2874.46 1279.02 2877.19 1279.45L2876.74 1281.44 2860.17 1281.44 2860.61 1279.45C2861.45 1279.34 2862.24 1279.01 2862.99 1278.46 2863.73 1277.9 2864.52 1277.07 2865.36 1275.95 2866.19 1274.82 2867.37 1272.97 2868.88 1270.37Z" fill="#215F9A" fill-rule="evenodd"/><text fill="#000000" fill-opacity="0" font-family="Arial,Arial_MSFontService,sans-serif" font-size="55.9683" x="2860.17" y="1274.44">𝐴</text><path d="M2907.6 1210.49 2910.76 1211.87C2909.74 1213.87 2908.76 1215.4 2907.82 1216.47 2906.89 1217.53 2906 1218.27 2905.15 1218.68 2904.3 1219.08 2903.33 1219.28 2902.25 1219.28 2901.52 1219.28 2900.89 1219.23 2900.35 1219.12 2899.81 1219.01 2899.27 1218.86 2898.75 1218.66 2898.22 1218.45 2897.4 1218.07 2896.29 1217.5 2895.56 1217.15 2894.99 1216.87 2894.57 1216.67 2894.15 1216.47 2893.71 1216.31 2893.25 1216.18 2892.8 1216.06 2892.31 1216 2891.8 1216 2891.09 1216 2890.51 1216.1 2890.03 1216.31 2889.56 1216.51 2889.08 1216.85 2888.59 1217.34 2888.11 1217.83 2887.59 1218.51 2887.05 1219.41L2883.93 1218.07C2885.23 1215.8 2886.28 1214.22 2887.09 1213.35 2887.91 1212.47 2888.74 1211.83 2889.59 1211.44 2890.44 1211.05 2891.46 1210.85 2892.65 1210.85 2893.3 1210.85 2893.88 1210.91 2894.41 1211.02 2894.94 1211.12 2895.42 1211.27 2895.87 1211.44 2896.31 1211.62 2897.08 1211.98 2898.16 1212.52 2898.94 1212.89 2899.56 1213.2 2900.02 1213.43 2900.48 1213.66 2900.95 1213.83 2901.44 1213.95 2901.93 1214.08 2902.48 1214.14 2903.1 1214.14 2903.97 1214.14 2904.74 1213.88 2905.41 1213.37 2906.09 1212.85 2906.82 1211.89 2907.6 1210.49Z" fill="#215F9A" fill-rule="evenodd"/><text fill="#000000" fill-opacity="0" font-family="Arial,Arial_MSFontService,sans-serif" font-size="8.91602" x="2883.93" y="1218.29">ሚ</text><path d="M2925.9 1268.98 2951.85 1268.98 2950.95 1273.53 2943.36 1273.53 2939.9 1288.7C2939.69 1289.58 2939.53 1290.36 2939.42 1291.04 2939.31 1291.73 2939.26 1292.32 2939.26 1292.83 2939.26 1293.46 2939.39 1293.95 2939.65 1294.33 2939.92 1294.7 2940.39 1294.88 2941.07 1294.88 2941.82 1294.88 2942.57 1294.59 2943.33 1294 2944.09 1293.42 2944.95 1292.59 2945.91 1291.51L2947.93 1293.42C2947.01 1294.41 2946.15 1295.25 2945.35 1295.94 2944.55 1296.62 2943.78 1297.17 2943.05 1297.59 2942.32 1298.01 2941.6 1298.32 2940.88 1298.52 2940.17 1298.71 2939.44 1298.81 2938.7 1298.81 2937.94 1298.81 2937.26 1298.67 2936.66 1298.4 2936.07 1298.12 2935.56 1297.74 2935.13 1297.24 2934.7 1296.74 2934.37 1296.15 2934.14 1295.47 2933.92 1294.78 2933.81 1294.04 2933.81 1293.24 2933.81 1292.46 2933.87 1291.62 2933.98 1290.72 2934.1 1289.82 2934.3 1288.76 2934.57 1287.53 2934.73 1286.92 2934.93 1286.1 2935.18 1285.05 2935.44 1284.01 2935.73 1282.86 2936.06 1281.6 2936.4 1280.34 2936.76 1279.02 2937.15 1277.64 2937.54 1276.26 2937.96 1274.93 2938.41 1273.64 2938.41 1273.56 2938.39 1273.53 2938.35 1273.53L2929 1273.53 2923.32 1298.28 2916.23 1298.28 2916.58 1296.26C2917.75 1295.15 2918.84 1293.42 2919.85 1291.07 2920.85 1288.73 2921.77 1285.77 2922.59 1282.2L2924.58 1273.53 2923.55 1273.53C2922.79 1273.53 2922.11 1273.57 2921.5 1273.67 2920.9 1273.77 2920.32 1273.96 2919.77 1274.24 2919.23 1274.53 2918.68 1274.91 2918.13 1275.4 2917.59 1275.89 2916.99 1276.51 2916.35 1277.28L2914.27 1275.22C2915.3 1274.05 2916.21 1273.07 2916.99 1272.28 2917.77 1271.49 2918.57 1270.85 2919.39 1270.36 2920.21 1269.87 2921.13 1269.52 2922.13 1269.31 2923.14 1269.09 2924.39 1268.98 2925.9 1268.98Z" fill="#215F9A" fill-rule="evenodd"/><text fill="#000000" fill-opacity="0" font-family="Arial,Arial_MSFontService,sans-serif" font-size="29.8242" x="2914.27" y="1295.08">𝜋</text><path d="M2967.28 1282.88C2965.8 1282.88 2964.62 1283.38 2963.75 1284.38 2962.88 1285.38 2962.27 1286.79 2961.91 1288.61 2961.55 1290.42 2961.37 1292.67 2961.37 1295.36 2961.37 1299.96 2961.85 1303.31 2962.8 1305.4 2963.75 1307.49 2965.26 1308.54 2967.33 1308.54 2969.28 1308.54 2970.73 1307.57 2971.66 1305.62 2972.6 1303.68 2973.07 1300.56 2973.07 1296.28 2973.07 1291.73 2972.6 1288.35 2971.66 1286.16 2970.73 1283.97 2969.27 1282.88 2967.28 1282.88ZM2967.33 1280.32C2969.4 1280.32 2971.13 1280.68 2972.53 1281.42 2973.93 1282.15 2975.06 1283.18 2975.93 1284.5 2976.81 1285.83 2977.42 1287.41 2977.79 1289.25 2978.16 1291.09 2978.34 1293.11 2978.34 1295.31 2978.34 1300.53 2977.36 1304.47 2975.4 1307.12 2973.44 1309.78 2970.62 1311.1 2966.94 1311.1 2963.31 1311.1 2960.59 1309.84 2958.8 1307.32 2957 1304.8 2956.1 1301.01 2956.1 1295.97 2956.1 1292.45 2956.58 1289.52 2957.54 1287.18 2958.5 1284.83 2959.82 1283.1 2961.49 1281.99 2963.17 1280.87 2965.11 1280.32 2967.33 1280.32Z" fill="#215F9A" fill-rule="evenodd"/><text fill="#000000" fill-opacity="0" font-family="Arial,Arial_MSFontService,sans-serif" font-size="30.7861" x="2956.1" y="1307.25">0</text><path d="M3066.54 1232.56 3066.54 1238.64 3022.53 1257.73 3066.54 1276.82 3066.54 1282.9 3016.45 1260.57 3016.45 1254.89Z" fill="#215F9A" fill-rule="evenodd"/><text fill="#000000" fill-opacity="0" font-family="Arial,Arial_MSFontService,sans-serif" font-size="50.335" x="3016.45" y="1276.6">&lt;</text><path d="M3118.18 1228.91C3116.32 1228.91 3114.76 1229.47 3113.5 1230.58 3112.24 1231.68 3111.23 1233.28 3110.46 1235.36 3109.69 1237.44 3109.14 1239.97 3108.82 1242.96 3108.5 1245.94 3108.33 1249.31 3108.33 1253.07 3108.33 1261.88 3109.15 1268.34 3110.78 1272.46 3112.42 1276.58 3114.95 1278.64 3118.38 1278.64 3121.65 1278.64 3124.08 1276.7 3125.66 1272.83 3127.24 1268.95 3128.03 1262.94 3128.03 1254.81 3128.03 1248.6 3127.62 1243.56 3126.81 1239.71 3126 1235.86 3124.88 1233.1 3123.43 1231.43 3121.98 1229.75 3120.23 1228.91 3118.18 1228.91ZM3118.38 1225.47C3124.3 1225.47 3128.7 1227.75 3131.6 1232.32 3134.49 1236.88 3135.93 1243.79 3135.93 1253.03 3135.93 1262.59 3134.39 1269.83 3131.29 1274.73 3128.2 1279.63 3123.68 1282.09 3117.74 1282.09 3111.9 1282.09 3107.56 1279.79 3104.71 1275.2 3101.86 1270.6 3100.43 1263.63 3100.43 1254.28 3100.43 1249.31 3100.87 1245.02 3101.75 1241.4 3102.63 1237.78 3103.85 1234.78 3105.44 1232.42 3107.02 1230.06 3108.91 1228.31 3111.13 1227.17 3113.34 1226.04 3115.76 1225.47 3118.38 1225.47Z" fill="#215F9A" fill-rule="evenodd"/><text fill="#000000" fill-opacity="0" font-family="Arial,Arial_MSFontService,sans-serif" font-size="56.6167" x="3100.43" y="1275.01">0</text><path d="M3285.19 1234.02 3270.76 1259.55 3286.61 1259.55 3285.92 1246.5C3285.84 1244.72 3285.77 1242.49 3285.72 1239.82 3285.67 1237.14 3285.64 1235.21 3285.64 1234.02ZM3285.44 1225.47 3291.56 1225.47 3294.47 1270.66C3294.61 1272.79 3294.85 1274.46 3295.2 1275.66 3295.55 1276.86 3296.03 1277.76 3296.64 1278.34 3297.25 1278.92 3298.13 1279.29 3299.3 1279.45L3298.85 1281.44 3281.99 1281.44 3282.44 1279.45C3284.03 1279.32 3285.22 1278.69 3286 1277.59 3286.79 1276.48 3287.18 1274.53 3287.18 1271.75 3287.18 1270.7 3287.14 1269.55 3287.06 1268.31L3286.77 1263.08 3268.94 1263.08 3266.71 1267.05C3265.66 1268.91 3264.89 1270.51 3264.4 1271.85 3263.92 1273.19 3263.67 1274.37 3263.67 1275.4 3263.67 1277.67 3265.04 1279.02 3267.77 1279.45L3267.32 1281.44 3250.74 1281.44 3251.19 1279.45C3252.03 1279.34 3252.82 1279.01 3253.56 1278.46 3254.3 1277.9 3255.09 1277.07 3255.93 1275.95 3256.77 1274.82 3257.94 1272.97 3259.46 1270.37Z" fill="#CC9900" fill-rule="evenodd"/><text fill="#000000" fill-opacity="0" font-family="Arial,Arial_MSFontService,sans-serif" font-size="55.9683" x="3250.74" y="1274.44">𝐴</text><path d="M3298.18 1210.49 3301.34 1211.87C3300.31 1213.87 3299.33 1215.4 3298.4 1216.47 3297.47 1217.53 3296.58 1218.27 3295.72 1218.68 3294.87 1219.08 3293.91 1219.28 3292.83 1219.28 3292.1 1219.28 3291.46 1219.23 3290.92 1219.12 3290.38 1219.01 3289.85 1218.86 3289.32 1218.66 3288.79 1218.45 3287.98 1218.07 3286.87 1217.5 3286.14 1217.15 3285.57 1216.87 3285.15 1216.67 3284.73 1216.47 3284.29 1216.3 3283.83 1216.18 3283.37 1216.06 3282.88 1216 3282.37 1216 3281.67 1216 3281.08 1216.1 3280.61 1216.3 3280.14 1216.51 3279.66 1216.85 3279.17 1217.34 3278.68 1217.82 3278.17 1218.51 3277.63 1219.41L3274.51 1218.07C3275.81 1215.8 3276.86 1214.22 3277.67 1213.35 3278.48 1212.47 3279.31 1211.83 3280.16 1211.44 3281.01 1211.05 3282.03 1210.85 3283.22 1210.85 3283.87 1210.85 3284.46 1210.91 3284.99 1211.02 3285.51 1211.12 3286 1211.27 3286.44 1211.44 3286.89 1211.62 3287.65 1211.98 3288.73 1212.52 3289.52 1212.89 3290.14 1213.2 3290.6 1213.43 3291.06 1213.66 3291.53 1213.83 3292.02 1213.95 3292.5 1214.08 3293.06 1214.14 3293.68 1214.14 3294.54 1214.14 3295.31 1213.88 3295.99 1213.37 3296.66 1212.85 3297.39 1211.89 3298.18 1210.49Z" fill="#CC9900" fill-rule="evenodd"/><text fill="#000000" fill-opacity="0" font-family="Arial,Arial_MSFontService,sans-serif" font-size="8.91602" x="3274.51" y="1218.29">ሚ</text><path d="M3316.47 1268.98 3342.43 1268.98 3341.52 1273.52 3333.93 1273.52 3330.48 1288.7C3330.26 1289.58 3330.1 1290.36 3329.99 1291.04 3329.89 1291.73 3329.83 1292.32 3329.83 1292.83 3329.83 1293.46 3329.96 1293.95 3330.23 1294.33 3330.49 1294.7 3330.97 1294.88 3331.65 1294.88 3332.39 1294.88 3333.14 1294.59 3333.9 1294 3334.67 1293.42 3335.53 1292.59 3336.48 1291.51L3338.5 1293.42C3337.59 1294.41 3336.73 1295.25 3335.93 1295.94 3335.13 1296.62 3334.36 1297.17 3333.63 1297.59 3332.89 1298.01 3332.17 1298.32 3331.46 1298.51 3330.75 1298.71 3330.02 1298.81 3329.28 1298.81 3328.51 1298.81 3327.84 1298.67 3327.24 1298.4 3326.64 1298.12 3326.13 1297.74 3325.7 1297.24 3325.27 1296.74 3324.94 1296.15 3324.72 1295.47 3324.5 1294.78 3324.38 1294.04 3324.38 1293.24 3324.38 1292.46 3324.44 1291.62 3324.56 1290.72 3324.68 1289.82 3324.87 1288.76 3325.15 1287.53 3325.3 1286.92 3325.51 1286.1 3325.76 1285.05 3326.01 1284.01 3326.31 1282.86 3326.64 1281.6 3326.97 1280.34 3327.33 1279.02 3327.72 1277.64 3328.11 1276.26 3328.53 1274.93 3328.98 1273.64 3328.98 1273.56 3328.96 1273.52 3328.92 1273.52L3319.58 1273.52 3313.9 1298.28 3306.81 1298.28 3307.16 1296.26C3308.33 1295.15 3309.42 1293.42 3310.42 1291.07 3311.43 1288.73 3312.34 1285.77 3313.16 1282.2L3315.15 1273.52 3314.13 1273.52C3313.37 1273.52 3312.68 1273.57 3312.08 1273.67 3311.47 1273.77 3310.9 1273.96 3310.35 1274.24 3309.8 1274.53 3309.26 1274.91 3308.71 1275.4 3308.16 1275.89 3307.57 1276.51 3306.92 1277.27L3304.84 1275.22C3305.88 1274.05 3306.79 1273.07 3307.57 1272.28 3308.35 1271.49 3309.15 1270.85 3309.97 1270.36 3310.79 1269.87 3311.7 1269.52 3312.71 1269.31 3313.71 1269.09 3314.97 1268.98 3316.47 1268.98Z" fill="#CC9900" fill-rule="evenodd"/><text fill="#000000" fill-opacity="0" font-family="Arial,Arial_MSFontService,sans-serif" font-size="29.8242" x="3304.84" y="1295.08">𝜋</text><path d="M3357.85 1282.88C3356.37 1282.88 3355.2 1283.38 3354.33 1284.38 3353.46 1285.38 3352.84 1286.79 3352.48 1288.6 3352.13 1290.42 3351.95 1292.67 3351.95 1295.36 3351.95 1299.96 3352.42 1303.31 3353.38 1305.4 3354.33 1307.49 3355.84 1308.54 3357.9 1308.54 3359.86 1308.54 3361.3 1307.57 3362.24 1305.62 3363.17 1303.68 3363.64 1300.56 3363.64 1296.28 3363.64 1291.73 3363.17 1288.35 3362.24 1286.16 3361.3 1283.97 3359.84 1282.88 3357.85 1282.88ZM3357.9 1280.32C3359.97 1280.32 3361.7 1280.68 3363.1 1281.41 3364.5 1282.15 3365.64 1283.18 3366.51 1284.5 3367.38 1285.83 3368 1287.41 3368.37 1289.25 3368.73 1291.09 3368.91 1293.11 3368.91 1295.31 3368.91 1300.53 3367.93 1304.47 3365.97 1307.12 3364.01 1309.78 3361.19 1311.1 3357.51 1311.1 3353.88 1311.1 3351.17 1309.84 3349.37 1307.32 3347.57 1304.8 3346.67 1301.01 3346.67 1295.97 3346.67 1292.45 3347.15 1289.52 3348.11 1287.18 3349.07 1284.83 3350.39 1283.1 3352.07 1281.99 3353.75 1280.87 3355.69 1280.32 3357.9 1280.32Z" fill="#CC9900" fill-rule="evenodd"/><text fill="#000000" fill-opacity="0" font-family="Arial,Arial_MSFontService,sans-serif" font-size="30.7861" x="3346.67" y="1307.25">0</text><path d="M3407.02 1232.56 3457.12 1254.89 3457.12 1260.57 3407.02 1282.9 3407.02 1276.82 3451.04 1257.73 3407.02 1238.64Z" fill="#CC9900" fill-rule="evenodd"/><text fill="#000000" fill-opacity="0" font-family="Arial,Arial_MSFontService,sans-serif" font-size="50.335" x="3407.02" y="1276.6">&gt;</text><path d="M3508.76 1228.91C3506.89 1228.91 3505.33 1229.47 3504.08 1230.57 3502.82 1231.68 3501.81 1233.28 3501.04 1235.36 3500.27 1237.44 3499.72 1239.97 3499.39 1242.96 3499.07 1245.94 3498.91 1249.31 3498.91 1253.07 3498.91 1261.88 3499.73 1268.34 3501.36 1272.46 3502.99 1276.58 3505.53 1278.64 3508.96 1278.64 3512.23 1278.64 3514.65 1276.7 3516.23 1272.82 3517.81 1268.95 3518.6 1262.94 3518.6 1254.81 3518.6 1248.6 3518.2 1243.56 3517.39 1239.71 3516.58 1235.86 3515.45 1233.1 3514 1231.43 3512.56 1229.75 3510.81 1228.91 3508.76 1228.91ZM3508.96 1225.47C3514.88 1225.47 3519.28 1227.75 3522.17 1232.32 3525.06 1236.88 3526.51 1243.79 3526.51 1253.03 3526.51 1262.59 3524.96 1269.83 3521.87 1274.73 3518.77 1279.63 3514.25 1282.09 3508.31 1282.09 3502.47 1282.09 3498.13 1279.79 3495.28 1275.2 3492.43 1270.6 3491.01 1263.63 3491.01 1254.28 3491.01 1249.31 3491.44 1245.02 3492.32 1241.4 3493.2 1237.78 3494.43 1234.78 3496.01 1232.42 3497.59 1230.05 3499.49 1228.31 3501.7 1227.17 3503.92 1226.04 3506.34 1225.47 3508.96 1225.47Z" fill="#CC9900" fill-rule="evenodd"/><text fill="#000000" fill-opacity="0" font-family="Arial,Arial_MSFontService,sans-serif" font-size="56.6167" x="3491.01" y="1275.01">0</text><path d="M3.4375-1.70518e-06 3.43785 704.612-3.43715 704.612-3.4375 1.70518e-06ZM13.7503 700.028 0.000360892 727.528-13.7497 700.028Z" transform="matrix(1 0 0 -1 2561.5 1603.03)"/><path d="M2414.68 776.35 2417.07 776.35 2407.1 821.214C2406.51 823.889 2406.21 825.888 2406.21 827.212 2406.21 828.293 2406.38 829.076 2406.74 829.562 2407.09 830.049 2407.64 830.292 2408.4 830.292 2409.21 830.292 2410.07 829.961 2410.99 829.299 2411.91 828.637 2413.21 827.374 2414.88 825.51L2417.19 827.779C2414.57 830.535 2412.43 832.42 2410.77 833.433 2409.11 834.446 2407.25 834.953 2405.2 834.953 2403.44 834.953 2402.03 834.311 2400.98 833.028 2399.93 831.744 2399.4 830.103 2399.4 828.103 2399.4 826.293 2399.78 823.672 2400.53 820.241L2407.79 787.779C2408.11 786.347 2408.34 785.205 2408.48 784.354 2408.61 783.503 2408.68 782.713 2408.68 781.983 2408.68 781.173 2408.53 780.558 2408.23 780.139 2407.94 779.721 2407.51 779.417 2406.96 779.227 2406.4 779.038 2405.41 778.903 2403.98 778.822L2404.47 776.715Z" fill-rule="evenodd"/><text fill="#000000" fill-opacity="0" font-family="Arial,Arial_MSFontService,sans-serif" font-size="58.6025" x="2399.4" y="827.627">𝑙</text><path d="M2436.59 785.965 2433.25 800.995C2433.71 801.014 2434.31 801.034 2435.02 801.053 2435.73 801.073 2436.58 801.082 2437.55 801.082 2439.66 801.082 2441.48 800.902 2443.02 800.54 2444.55 800.179 2445.82 799.613 2446.82 798.841 2447.83 798.07 2448.57 797.069 2449.05 795.838 2449.53 794.608 2449.77 793.133 2449.77 791.414 2449.77 790.516 2449.63 789.725 2449.36 789.041 2449.09 788.358 2448.63 787.786 2448 787.328 2447.36 786.869 2446.55 786.527 2445.56 786.302 2444.58 786.078 2443.37 785.965 2441.95 785.965ZM2485.29 769.207C2484.59 769.207 2483.91 769.217 2483.27 769.237 2482.62 769.256 2481.99 769.286 2481.36 769.325L2477.64 785.174 2481.16 785.174C2483.44 785.213 2485.34 784.989 2486.84 784.5 2488.35 784.012 2489.55 783.319 2490.46 782.42 2491.37 781.522 2492.01 780.467 2492.38 779.256 2492.75 778.045 2492.94 776.727 2492.94 775.301 2492.94 773.172 2492.32 771.624 2491.09 770.658 2489.86 769.691 2487.93 769.207 2485.29 769.207ZM2445.43 769.149C2444.5 769.149 2443.6 769.163 2442.75 769.193 2441.9 769.222 2441.09 769.276 2440.31 769.354L2437.29 782.918 2441.83 782.918C2443.96 782.918 2445.76 782.718 2447.23 782.318 2448.71 781.917 2449.91 781.346 2450.82 780.604 2451.74 779.862 2452.41 778.968 2452.83 777.923 2453.25 776.878 2453.46 775.702 2453.46 774.393 2453.42 773.553 2453.26 772.801 2452.96 772.137 2452.67 771.473 2452.21 770.921 2451.57 770.482 2450.94 770.042 2450.12 769.71 2449.11 769.486 2448.1 769.261 2446.88 769.149 2445.43 769.149ZM2527.13 768.534C2525.37 768.534 2523.79 768.944 2522.37 769.764 2520.96 770.584 2519.7 771.678 2518.61 773.045 2517.51 774.412 2516.57 775.97 2515.78 777.718 2514.99 779.466 2514.33 781.253 2513.82 783.079 2513.3 784.906 2512.92 786.698 2512.69 788.455 2512.45 790.213 2512.34 791.805 2512.34 793.231 2512.34 796.063 2512.9 798.177 2514.02 799.574 2515.15 800.97 2516.86 801.668 2519.16 801.668 2520.8 801.668 2522.31 801.283 2523.68 800.511 2525.04 799.74 2526.27 798.704 2527.37 797.406 2528.46 796.107 2529.42 794.613 2530.24 792.923 2531.06 791.234 2531.74 789.476 2532.29 787.65 2532.84 785.824 2533.25 783.993 2533.53 782.157 2533.82 780.321 2533.96 778.621 2533.96 777.059 2533.96 774.286 2533.39 772.171 2532.26 770.716 2531.13 769.261 2529.42 768.534 2527.13 768.534ZM2472.37 766.102 2485.61 766.102C2487.72 766.102 2489.59 766.263 2491.22 766.585 2492.85 766.908 2494.23 767.425 2495.35 768.138 2496.48 768.851 2497.33 769.779 2497.92 770.921 2498.5 772.064 2498.82 773.465 2498.85 775.125 2498.85 777.293 2498.45 779.203 2497.64 780.853 2496.83 782.503 2495.69 783.875 2494.23 784.969 2492.76 786.063 2491 786.888 2488.95 787.445 2486.9 788.001 2484.64 788.27 2482.16 788.25 2481.08 788.25 2480.11 788.241 2479.26 788.221 2478.4 788.202 2477.67 788.172 2477.09 788.133 2476.87 789.149 2476.63 790.252 2476.35 791.444 2476.08 792.635 2475.83 793.783 2475.59 794.886 2475.36 795.99 2475.16 796.995 2475.01 797.904 2474.85 798.812 2474.77 799.491 2474.77 799.94 2474.77 800.33 2474.83 800.667 2474.93 800.951 2475.04 801.234 2475.22 801.473 2475.46 801.668 2475.71 801.864 2476.05 802.01 2476.5 802.108 2476.95 802.205 2477.53 802.274 2478.23 802.313L2477.82 804.1 2465.13 804.1 2465.46 802.313C2466.06 802.215 2466.56 802.093 2466.95 801.947 2467.34 801.8 2467.69 801.517 2467.99 801.097 2468.29 800.677 2468.57 800.047 2468.81 799.207 2469.06 798.368 2469.34 797.196 2469.68 795.692L2474.48 774.334C2474.68 773.475 2474.82 772.713 2474.92 772.049 2475.02 771.385 2475.07 770.838 2475.07 770.409 2475.07 769.53 2474.85 768.905 2474.41 768.534 2473.97 768.162 2473.14 767.967 2471.93 767.948ZM2431.37 766.102 2446.72 766.102C2449.01 766.102 2450.95 766.287 2452.54 766.659 2454.13 767.03 2455.44 767.567 2456.46 768.27 2457.49 768.973 2458.23 769.818 2458.69 770.804 2459.15 771.79 2459.38 772.918 2459.38 774.188 2459.38 778.993 2456.36 782.381 2450.33 784.354 2450.33 784.452 2450.32 784.53 2450.31 784.588 2450.3 784.647 2450.3 784.696 2450.3 784.735 2452.11 785.457 2453.49 786.453 2454.43 787.723 2455.36 788.993 2455.83 790.457 2455.83 792.118 2455.83 793.993 2455.49 795.667 2454.79 797.142 2454.1 798.617 2453.03 799.867 2451.59 800.892 2450.14 801.917 2448.28 802.708 2446.02 803.265 2443.75 803.822 2441.04 804.1 2437.87 804.1L2424.13 804.1 2424.46 802.313C2425.06 802.215 2425.56 802.103 2425.94 801.976 2426.32 801.849 2426.66 801.576 2426.96 801.156 2427.26 800.736 2427.54 800.106 2427.8 799.266 2428.05 798.426 2428.34 797.235 2428.68 795.692L2433.48 774.334C2433.68 773.475 2433.82 772.713 2433.92 772.049 2434.02 771.385 2434.07 770.838 2434.07 770.409 2434.07 769.53 2433.85 768.905 2433.41 768.534 2432.97 768.162 2432.14 767.967 2430.93 767.948ZM2527.31 765.545C2529.38 765.545 2531.2 765.853 2532.79 766.468 2534.37 767.083 2535.69 767.948 2536.74 769.061 2537.8 770.174 2538.59 771.517 2539.13 773.089 2539.67 774.661 2539.94 776.424 2539.94 778.377 2539.94 779.94 2539.78 781.673 2539.47 783.578 2539.15 785.482 2538.66 787.411 2537.99 789.364 2537.31 791.317 2536.42 793.216 2535.32 795.062 2534.22 796.908 2532.89 798.548 2531.35 799.984 2529.81 801.419 2528.01 802.572 2525.96 803.441 2523.91 804.31 2521.58 804.745 2518.96 804.745 2516.99 804.745 2515.22 804.461 2513.66 803.895 2512.09 803.328 2510.77 802.498 2509.67 801.405 2508.58 800.311 2507.74 798.963 2507.15 797.362 2506.57 795.76 2506.27 793.944 2506.27 791.912 2506.27 790.213 2506.44 788.387 2506.77 786.434 2507.1 784.481 2507.62 782.528 2508.32 780.575 2509.03 778.621 2509.94 776.742 2511.05 774.935 2512.16 773.128 2513.5 771.532 2515.06 770.145 2516.62 768.758 2518.42 767.645 2520.45 766.805 2522.48 765.965 2524.77 765.545 2527.31 765.545Z" fill-rule="evenodd"/><text fill="#000000" fill-opacity="0" font-family="Arial,Arial_MSFontService,sans-serif" font-size="39.1992" x="2424.13" y="799.845">𝐵𝑃𝑂</text><path d="M2580.35 775.742 2581.45 778.863C2575.13 780.943 2570.45 785.003 2567.41 791.041 2564.37 797.08 2562.85 804.665 2562.85 813.797 2562.85 823.254 2564.37 831.048 2567.41 837.182 2570.45 843.315 2575.09 847.422 2581.33 849.502L2580.35 852.622C2572.44 850.542 2566.37 846.064 2562.16 839.188 2557.94 832.312 2555.84 823.983 2555.84 814.203 2555.84 804.449 2557.95 796.121 2562.18 789.217 2566.41 782.314 2572.46 777.823 2580.35 775.742Z" fill-rule="evenodd"/><text fill="#000000" fill-opacity="0" font-family="Arial,Arial_MSFontService,sans-serif" font-size="76.8804" x="2555.84" y="843.012">(</text><path d="M2611.45 798.113C2610.42 798.113 2609.44 798.296 2608.51 798.66 2607.58 799.025 2606.6 799.646 2605.59 800.525 2604.58 801.403 2603.61 802.585 2602.69 804.071 2601.77 805.557 2600.95 807.306 2600.22 809.319 2599.49 811.332 2598.79 813.905 2598.11 817.039L2596.69 823.564C2596.64 823.862 2596.58 824.287 2596.51 824.841 2596.44 825.395 2596.41 825.901 2596.41 826.361 2596.41 828.09 2597.12 829.421 2598.54 830.353 2599.96 831.285 2601.84 831.751 2604.19 831.751 2606.98 831.751 2609.44 830.623 2611.59 828.367 2613.74 826.111 2615.4 823.004 2616.59 819.046 2617.78 815.087 2618.38 811.15 2618.38 807.232 2618.38 805.476 2618.19 803.942 2617.83 802.632 2617.46 801.322 2616.77 800.241 2615.74 799.39 2614.72 798.539 2613.28 798.113 2611.45 798.113ZM2612.5 794.912C2615.12 794.912 2617.43 795.445 2619.43 796.512 2621.43 797.58 2622.94 799.126 2623.97 801.153 2625 803.179 2625.51 805.665 2625.51 808.61 2625.51 813.203 2624.61 817.56 2622.81 821.68 2621.02 825.8 2618.52 829.042 2615.32 831.406 2612.12 833.771 2608.53 834.953 2604.56 834.953 2602.72 834.953 2600.98 834.79 2599.33 834.466 2597.68 834.142 2596.03 833.588 2594.38 832.805L2590.17 851.812 2583.52 851.812 2591.75 815.135C2592.72 810.812 2594.11 807.191 2595.92 804.273 2597.73 801.355 2600.03 799.066 2602.81 797.404 2605.6 795.742 2608.83 794.912 2612.5 794.912Z" fill-rule="evenodd"/><text fill="#000000" fill-opacity="0" font-family="Arial,Arial_MSFontService,sans-serif" font-size="56.9004" x="2583.52" y="844.699">𝜌</text><path d="M2632.96 775.742C2640.85 777.823 2646.91 782.314 2651.14 789.217 2655.37 796.121 2657.48 804.449 2657.48 814.203 2657.48 823.983 2655.38 832.312 2651.16 839.188 2646.95 846.064 2640.88 850.542 2632.96 852.622L2631.99 849.502C2638.23 847.422 2642.87 843.315 2645.91 837.182 2648.95 831.048 2650.47 823.254 2650.47 813.797 2650.47 804.665 2648.96 797.08 2645.93 791.041 2642.91 785.003 2638.22 780.943 2631.87 778.863Z" fill-rule="evenodd"/><text fill="#000000" fill-opacity="0" font-family="Arial,Arial_MSFontService,sans-serif" font-size="76.8804" x="2631.87" y="843.012">)</text><path d="M2682.69 1552.21 2684.92 1552.21C2684.75 1554.8 2684.67 1558.4 2684.67 1562.99L2684.67 1597.6C2684.67 1599.17 2684.76 1600.35 2684.94 1601.15 2685.11 1601.94 2685.42 1602.59 2685.87 1603.09 2686.31 1603.59 2686.96 1603.98 2687.79 1604.27 2688.63 1604.55 2689.69 1604.77 2690.95 1604.92 2692.22 1605.06 2693.9 1605.17 2695.98 1605.22L2695.98 1608.18 2666.03 1608.18 2666.03 1605.22C2669.03 1605.08 2671.17 1604.9 2672.45 1604.67 2673.74 1604.44 2674.72 1604.1 2675.39 1603.64 2676.07 1603.18 2676.56 1602.53 2676.87 1601.69 2677.18 1600.86 2677.34 1599.49 2677.34 1597.6L2677.34 1564.73C2677.34 1563.65 2677.15 1562.86 2676.77 1562.36 2676.39 1561.86 2675.84 1561.61 2675.11 1561.61 2674.24 1561.61 2673.01 1562.06 2671.42 1562.95 2669.83 1563.84 2667.85 1565.07 2665.5 1566.64L2663.72 1563.52Z" fill-rule="evenodd"/><text fill="#000000" fill-opacity="0" font-family="Arial,Arial_MSFontService,sans-serif" font-size="55.9683" x="2663.72" y="1601.18">1</text><path d="M2726.71 1581.75 2776.64 1581.75 2776.64 1587.14 2726.71 1587.14Z" fill-rule="evenodd"/><text fill="#000000" fill-opacity="0" font-family="Arial,Arial_MSFontService,sans-serif" font-size="5.39014" x="2726.71" y="1586.47">−</text><path d="M2828.97 1568.75C2830.83 1568.75 2832.53 1568.87 2834.07 1569.11 2835.61 1569.35 2837.22 1569.83 2838.9 1570.53L2837.48 1574.14C2834.8 1573.3 2832.06 1572.88 2829.25 1572.88 2825.52 1572.88 2822.27 1574.01 2819.5 1576.26 2816.73 1578.52 2814.73 1581.73 2813.49 1585.89L2833.87 1585.89 2832.98 1590.1 2812.43 1590.1C2812.3 1590.59 2812.16 1591.37 2812.01 1592.45 2811.86 1593.53 2811.78 1594.57 2811.78 1595.57 2811.78 1598.49 2812.51 1600.73 2813.97 1602.3 2815.43 1603.87 2817.43 1604.65 2819.97 1604.65 2822.19 1604.65 2824.1 1604.5 2825.7 1604.19 2827.31 1603.88 2829.02 1603.38 2830.83 1602.71L2831.76 1605.95C2829.33 1606.92 2827.08 1607.64 2825.02 1608.12 2822.95 1608.59 2820.59 1608.83 2817.94 1608.83 2813.81 1608.83 2810.64 1607.66 2808.44 1605.34 2806.24 1603.02 2805.14 1599.71 2805.14 1595.41 2805.14 1593.3 2805.41 1590.97 2805.97 1588.4 2806.52 1585.83 2807.43 1583.38 2808.7 1581.02 2809.97 1578.67 2811.59 1576.57 2813.57 1574.7 2815.54 1572.84 2817.83 1571.38 2820.44 1570.33 2823.04 1569.27 2825.89 1568.75 2828.97 1568.75Z" fill-rule="evenodd"/><text fill="#000000" fill-opacity="0" font-family="Arial,Arial_MSFontService,sans-serif" font-size="40.0815" x="2805.14" y="1603.82">𝜖</text><path d="M3044.98 1557.73 3047.21 1557.73C3047.04 1560.32 3046.96 1563.92 3046.96 1568.51L3046.96 1603.12C3046.96 1604.69 3047.05 1605.87 3047.23 1606.67 3047.4 1607.46 3047.71 1608.11 3048.16 1608.61 3048.6 1609.11 3049.25 1609.5 3050.08 1609.79 3050.92 1610.07 3051.97 1610.29 3053.24 1610.44 3054.51 1610.58 3056.19 1610.69 3058.27 1610.74L3058.27 1613.7 3028.32 1613.7 3028.32 1610.74C3031.32 1610.6 3033.46 1610.42 3034.74 1610.19 3036.03 1609.96 3037.01 1609.62 3037.68 1609.16 3038.36 1608.7 3038.85 1608.05 3039.16 1607.21 3039.47 1606.38 3039.63 1605.01 3039.63 1603.12L3039.63 1570.25C3039.63 1569.17 3039.44 1568.38 3039.06 1567.88 3038.68 1567.38 3038.13 1567.13 3037.4 1567.13 3036.53 1567.13 3035.3 1567.58 3033.71 1568.47 3032.12 1569.36 3030.14 1570.59 3027.79 1572.16L3026.01 1569.04Z" fill-rule="evenodd"/><text fill="#000000" fill-opacity="0" font-family="Arial,Arial_MSFontService,sans-serif" font-size="55.9683" x="3026.01" y="1606.7">1</text><path d="M3111.09 1563.93 3116.84 1563.93 3116.84 1587.27 3138.93 1587.27 3138.93 1592.66 3116.84 1592.66 3116.84 1616.01 3111.09 1616.01 3111.09 1592.66 3089 1592.66 3089 1587.27 3111.09 1587.27Z" fill-rule="evenodd"/><text fill="#000000" fill-opacity="0" font-family="Arial,Arial_MSFontService,sans-serif" font-size="52.0776" x="3089" y="1609.5">+</text><path d="M3191.26 1574.26C3193.12 1574.26 3194.82 1574.39 3196.36 1574.63 3197.9 1574.87 3199.51 1575.35 3201.19 1576.05L3199.77 1579.65C3197.09 1578.82 3194.35 1578.4 3191.54 1578.4 3187.81 1578.4 3184.56 1579.53 3181.79 1581.78 3179.02 1584.04 3177.02 1587.25 3175.77 1591.41L3196.16 1591.41 3195.27 1595.62 3174.72 1595.62C3174.59 1596.11 3174.44 1596.89 3174.3 1597.97 3174.15 1599.05 3174.07 1600.09 3174.07 1601.09 3174.07 1604.01 3174.8 1606.25 3176.26 1607.82 3177.72 1609.39 3179.72 1610.17 3182.26 1610.17 3184.47 1610.17 3186.39 1610.02 3187.99 1609.71 3189.6 1609.4 3191.31 1608.9 3193.12 1608.23L3194.05 1611.47C3191.62 1612.44 3189.37 1613.16 3187.3 1613.64 3185.24 1614.11 3182.88 1614.35 3180.23 1614.35 3176.1 1614.35 3172.93 1613.18 3170.73 1610.86 3168.53 1608.54 3167.43 1605.23 3167.43 1600.93 3167.43 1598.82 3167.7 1596.49 3168.26 1593.92 3168.81 1591.35 3169.72 1588.9 3170.99 1586.54 3172.26 1584.19 3173.88 1582.09 3175.86 1580.22 3177.83 1578.36 3180.12 1576.9 3182.73 1575.85 3185.33 1574.79 3188.18 1574.26 3191.26 1574.26Z" fill-rule="evenodd"/><text fill="#000000" fill-opacity="0" font-family="Arial,Arial_MSFontService,sans-serif" font-size="40.0815" x="3167.43" y="1609.34">𝜖</text><path d="M2306 1292 2724.77 1456.74" stroke="#4E95D9" stroke-width="10.3125" stroke-miterlimit="8" fill="none" fill-rule="evenodd"/><path d="M0 0 367.085 134.03" stroke="#4E95D9" stroke-width="10.3125" stroke-miterlimit="8" fill="none" fill-rule="evenodd" transform="matrix(-1 0 0 1 3140.08 1323)"/><path d="M0 0 321.978 122.637" stroke="#FFC000" stroke-width="10.3125" stroke-miterlimit="8" fill="none" fill-rule="evenodd" transform="matrix(-1 0 0 1 3457.98 1334)"/><path d="M2679 1312 3088.69 1457.4" stroke="#FFC000" stroke-width="10.3125" stroke-miterlimit="8" fill="none" fill-rule="evenodd"/><path d="M3078.5 1481.5C3078.5 1462.72 3093.72 1447.5 3112.5 1447.5 3131.28 1447.5 3146.5 1462.72 3146.5 1481.5 3146.5 1500.28 3131.28 1515.5 3112.5 1515.5 3093.72 1515.5 3078.5 1500.28 3078.5 1481.5Z" stroke="#042433" stroke-width="6.875" stroke-miterlimit="8" fill="#FDE78B" fill-rule="evenodd"/><path d="M1308.38 889.067 1351.41 889.067 1349.48 897.422 1338.48 897.422 1333.44 918.895C1332.88 921.321 1332.59 923.267 1332.59 924.735 1332.59 925.903 1332.79 926.711 1333.17 927.161 1333.56 927.61 1334.12 927.835 1334.84 927.835 1335.74 927.835 1336.68 927.46 1337.67 926.711 1338.66 925.963 1339.82 924.825 1341.17 923.297L1344.41 926.532C1341.77 929.287 1339.25 931.279 1336.84 932.506 1334.42 933.734 1331.96 934.348 1329.45 934.348 1326.48 934.348 1324.3 933.599 1322.91 932.102 1321.52 930.605 1320.82 928.224 1320.82 924.96 1320.82 923.193 1321.15 920.842 1321.81 917.907L1322.21 916.11C1323.47 910.48 1325.25 904.37 1327.56 897.782L1327.33 897.422 1315.48 897.422 1311.61 915.616C1310.08 922.863 1308.65 928.868 1307.3 933.629L1293.46 933.629 1294.09 930.799C1295.74 928.943 1297.42 925.91 1299.12 921.703 1300.83 917.495 1302.18 913.175 1303.17 908.743L1305.68 897.422 1304.78 897.422C1303.23 897.422 1301.95 897.557 1300.94 897.827 1299.94 898.096 1298.94 898.568 1297.96 899.242 1296.97 899.916 1295.77 901.001 1294.36 902.499L1290.59 899.129C1293.07 896.135 1295.12 893.963 1296.72 892.616 1298.32 891.268 1299.96 890.34 1301.64 889.831 1303.32 889.322 1305.56 889.067 1308.38 889.067Z" fill-rule="evenodd"/><text fill="#000000" fill-opacity="0" font-family="Arial,Arial_MSFontService,sans-serif" font-size="45.2812" x="1290.59" y="928.688">𝝅</text><path d="M1366.07 868.552 1370.39 868.552 1369.44 878.792 1377.85 872.87 1379.98 876.535 1370.65 880.886 1379.98 885.269 1377.85 888.901 1369.44 882.979 1370.39 893.219 1366.07 893.219 1367.05 882.979 1358.61 888.901 1356.45 885.269 1365.81 880.886 1356.45 876.535 1358.61 872.87 1367.05 878.792Z" fill-rule="evenodd"/><text fill="#000000" fill-opacity="0" font-family="Arial,Arial_MSFontService,sans-serif" font-size="24.667" x="1356.45" y="890.136">∗</text><path d="M1006.04 1363.22C941.629 1291.61 1099.4 1185.66 1190.4 1125.29 1281.41 1064.92 1433.86 1001 1552.04 1001 1670.23 1001 1809.68 1062.55 1899.5 1125.29 1989.32 1188.03 2144.73 1305.81 2090.96 1377.43 2037.19 1449.05 1758.87 1556.17 1576.86 1554.99 1394.86 1553.81 1070.45 1434.84 1006.04 1363.22Z" fill="url(#fill0)" fill-rule="evenodd"/><path d="M1470.93 1239.95 1513.96 1239.95 1512.03 1248.31 1501.03 1248.31 1496 1269.78C1495.43 1272.2 1495.14 1274.15 1495.14 1275.62 1495.14 1276.79 1495.34 1277.6 1495.73 1278.04 1496.11 1278.49 1496.67 1278.72 1497.39 1278.72 1498.29 1278.72 1499.23 1278.34 1500.22 1277.6 1501.21 1276.85 1502.37 1275.71 1503.72 1274.18L1506.96 1277.42C1504.32 1280.17 1501.8 1282.16 1499.39 1283.39 1496.98 1284.62 1494.51 1285.23 1492 1285.23 1489.03 1285.23 1486.85 1284.48 1485.46 1282.99 1484.07 1281.49 1483.37 1279.11 1483.37 1275.84 1483.37 1274.08 1483.7 1271.73 1484.36 1268.79L1484.76 1266.99C1486.02 1261.36 1487.8 1255.25 1490.11 1248.67L1489.89 1248.31 1478.03 1248.31 1474.16 1266.5C1472.64 1273.75 1471.2 1279.75 1469.85 1284.51L1456.01 1284.51 1456.64 1281.68C1458.29 1279.83 1459.97 1276.79 1461.67 1272.59 1463.38 1268.38 1464.73 1264.06 1465.72 1259.63L1468.23 1248.31 1467.33 1248.31C1465.78 1248.31 1464.5 1248.44 1463.49 1248.71 1462.49 1248.98 1461.5 1249.45 1460.51 1250.13 1459.52 1250.8 1458.32 1251.89 1456.91 1253.38L1453.14 1250.01C1455.63 1247.02 1457.67 1244.85 1459.27 1243.5 1460.87 1242.15 1462.51 1241.22 1464.19 1240.71 1465.87 1240.21 1468.11 1239.95 1470.93 1239.95Z" fill-rule="evenodd"/><text fill="#000000" fill-opacity="0" font-family="Arial,Arial_MSFontService,sans-serif" font-size="45.2812" x="1453.14" y="1279.57">𝝅</text><path d="M1534.61 1261.7C1533.06 1261.7 1531.84 1262.38 1530.95 1263.74 1530.05 1265.11 1529.41 1267.13 1529.02 1269.83 1528.62 1272.52 1528.43 1276.03 1528.43 1280.35 1528.43 1285.14 1528.64 1288.96 1529.06 1291.8 1529.49 1294.63 1530.16 1296.72 1531.08 1298.06 1531.99 1299.4 1533.21 1300.07 1534.74 1300.07 1535.57 1300.07 1536.29 1299.87 1536.92 1299.47 1537.54 1299.06 1538.09 1298.43 1538.58 1297.57 1539.08 1296.71 1539.5 1295.56 1539.84 1294.14 1540.19 1292.71 1540.44 1290.93 1540.6 1288.8 1540.75 1286.68 1540.83 1284.3 1540.83 1281.69 1540.83 1277.78 1540.68 1274.5 1540.38 1271.84 1540.09 1269.18 1539.67 1267.13 1539.12 1265.69 1538.58 1264.25 1537.94 1263.23 1537.19 1262.61 1536.45 1262 1535.59 1261.7 1534.61 1261.7ZM1534.81 1258.03C1540.17 1258.03 1544.17 1259.86 1546.81 1263.51 1549.45 1267.17 1550.77 1272.76 1550.77 1280.28 1550.77 1288 1549.37 1293.84 1546.57 1297.8 1543.76 1301.76 1539.65 1303.74 1534.22 1303.74 1528.85 1303.74 1524.89 1301.88 1522.33 1298.16 1519.76 1294.44 1518.48 1288.82 1518.48 1281.29 1518.48 1273.75 1519.91 1267.99 1522.77 1264 1525.62 1260.02 1529.64 1258.03 1534.81 1258.03Z" fill-rule="evenodd"/><text fill="#000000" fill-opacity="0" font-family="Arial,Arial_MSFontService,sans-serif" font-size="45.7026" x="1518.48" y="1298.02">𝟎</text><path d="M1427 1175C1427 1158.43 1440.66 1145 1457.5 1145 1474.34 1145 1488 1158.43 1488 1175 1488 1191.57 1474.34 1205 1457.5 1205 1440.66 1205 1427 1191.57 1427 1175Z" fill="#4E95D9" fill-rule="evenodd"/><path d="M1799.09 1359.8 1854.12 1359.8 1853.49 1362.77C1851.78 1363.25 1850.52 1364.09 1849.71 1365.28 1848.91 1366.48 1848.14 1368.7 1847.42 1371.93L1839.25 1408.99C1839.04 1409.95 1838.89 1410.78 1838.8 1411.49 1838.71 1412.19 1838.66 1413.11 1838.66 1414.25 1838.66 1415.51 1838.95 1416.43 1839.54 1417.01 1840.12 1417.6 1841.07 1417.98 1842.39 1418.16L1841.76 1421.12 1819.17 1421.12 1819.8 1418.16C1821.5 1417.68 1822.76 1416.84 1823.57 1415.64 1824.38 1414.44 1825.14 1412.23 1825.86 1408.99L1835.47 1365.46 1816.43 1365.46 1806.81 1408.99C1806.6 1409.95 1806.45 1410.78 1806.36 1411.49 1806.27 1412.19 1806.23 1413.11 1806.23 1414.25 1806.23 1415.51 1806.52 1416.43 1807.11 1417.01 1807.69 1417.6 1808.64 1417.98 1809.96 1418.16L1809.33 1421.12 1786.73 1421.12 1787.36 1418.16C1789.07 1417.68 1790.33 1416.84 1791.14 1415.64 1791.94 1414.44 1792.71 1412.23 1793.43 1408.99L1801.6 1371.93C1801.99 1370.17 1802.19 1368.41 1802.19 1366.68 1802.19 1365.42 1801.89 1364.5 1801.31 1363.91 1800.73 1363.33 1799.78 1362.95 1798.46 1362.77Z" fill-rule="evenodd"/><text fill="#000000" fill-opacity="0" font-family="Arial,Arial_MSFontService,sans-serif" font-size="61.3184" x="1786.73" y="1413.46">𝜫</text><path d="M1279 993.5C1279 976.655 1292.66 963 1309.5 963 1326.34 963 1340 976.655 1340 993.5 1340 1010.34 1326.34 1024 1309.5 1024 1292.66 1024 1279 1010.34 1279 993.5Z" fill="#4EA72E" fill-rule="evenodd"/><path d="M1280 1141C1280 1124.43 1293.66 1111 1310.5 1111 1327.34 1111 1341 1124.43 1341 1141 1341 1157.57 1327.34 1171 1310.5 1171 1293.66 1171 1280 1157.57 1280 1141Z" fill="#FFC000" fill-rule="evenodd"/><path d="M1222.71 1182.53 1265.74 1182.53 1263.81 1190.89 1252.8 1190.89 1247.77 1212.36C1247.2 1214.79 1246.92 1216.73 1246.92 1218.2 1246.92 1219.37 1247.11 1220.18 1247.5 1220.63 1247.89 1221.08 1248.45 1221.3 1249.17 1221.3 1250.06 1221.3 1251.01 1220.93 1252 1220.18 1252.98 1219.43 1254.15 1218.29 1255.5 1216.76L1258.73 1220C1256.1 1222.75 1253.57 1224.74 1251.16 1225.97 1248.75 1227.2 1246.29 1227.81 1243.77 1227.81 1240.81 1227.81 1238.63 1227.07 1237.24 1225.57 1235.85 1224.07 1235.15 1221.69 1235.15 1218.43 1235.15 1216.66 1235.48 1214.31 1236.14 1211.37L1236.54 1209.58C1237.8 1203.95 1239.58 1197.84 1241.89 1191.25L1241.66 1190.89 1229.8 1190.89 1225.94 1209.08C1224.41 1216.33 1222.98 1222.33 1221.63 1227.1L1207.79 1227.1 1208.42 1224.27C1210.07 1222.41 1211.75 1219.38 1213.45 1215.17 1215.16 1210.96 1216.51 1206.64 1217.5 1202.21L1220.01 1190.89 1219.11 1190.89C1217.56 1190.89 1216.27 1191.02 1215.27 1191.29 1214.27 1191.56 1213.27 1192.03 1212.28 1192.71 1211.3 1193.38 1210.1 1194.47 1208.69 1195.96L1204.92 1192.6C1207.4 1189.6 1209.45 1187.43 1211.05 1186.08 1212.65 1184.73 1214.29 1183.81 1215.97 1183.3 1217.65 1182.79 1219.89 1182.53 1222.71 1182.53Z" fill-rule="evenodd"/><text fill="#000000" fill-opacity="0" font-family="Arial,Arial_MSFontService,sans-serif" font-size="45.2812" x="1204.92" y="1222.15">𝝅</text><path d="M1280.3 1225.02C1279.74 1227.36 1279.33 1229.57 1279.08 1231.66 1278.82 1233.76 1278.7 1235.61 1278.7 1237.22 1278.7 1239.14 1278.99 1240.57 1279.57 1241.51 1280.14 1242.45 1281.05 1242.92 1282.3 1242.92 1284.48 1242.92 1286.53 1241.38 1288.46 1238.3 1290.39 1235.23 1292.05 1230.8 1293.42 1225.02ZM1292.37 1203.33C1290.15 1203.33 1288.07 1204.81 1286.14 1207.78 1284.21 1210.75 1282.56 1215.12 1281.19 1220.9L1294.3 1220.9C1294.78 1218.7 1295.16 1216.67 1295.43 1214.81 1295.71 1212.96 1295.84 1211.24 1295.84 1209.65 1295.84 1207.38 1295.57 1205.76 1295.04 1204.79 1294.51 1203.82 1293.62 1203.33 1292.37 1203.33ZM1292.44 1199.93C1296.45 1199.93 1299.45 1201.08 1301.44 1203.38 1303.42 1205.68 1304.41 1209.13 1304.41 1213.73 1304.41 1216.96 1303.88 1220.76 1302.83 1225.14 1301.77 1229.51 1300.27 1233.3 1298.34 1236.52 1296.41 1239.74 1294.09 1242.18 1291.36 1243.83 1288.63 1245.49 1285.56 1246.32 1282.13 1246.32 1278.14 1246.32 1275.14 1245.17 1273.14 1242.88 1271.13 1240.59 1270.13 1237.25 1270.13 1232.84 1270.13 1229.61 1270.65 1225.8 1271.68 1221.39 1272.72 1216.98 1274.2 1213.16 1276.11 1209.91 1278.03 1206.66 1280.36 1204.18 1283.08 1202.48 1285.81 1200.78 1288.93 1199.93 1292.44 1199.93Z" fill-rule="evenodd"/><text fill="#000000" fill-opacity="0" font-family="Arial,Arial_MSFontService,sans-serif" font-size="46.3896" x="1270.13" y="1240.52">𝜽</text><path d="M1314.16 1047.38 1314.55 1088.19 1307.68 1088.25 1307.28 1047.45ZM1297.02 1052.13 1310.5 1024.5 1324.52 1051.87ZM1324.82 1083.5 1311.34 1111.13 1297.32 1083.77Z" fill="#215F9A"/><path d="M1426.75 1178.68 1361.57 1153.08 1364.09 1146.68 1429.27 1172.28ZM1362.07 1164.35 1341.5 1141.5 1372.12 1138.76Z" fill="#FFC000"/><text font-family="Aptos,Aptos_MSFontService,sans-serif" font-weight="700" font-size="83" transform="matrix(1 0 0 1 808.428 1083)">ATV</text><path d="M998.39 1023.96 999.484 1027.08C993.162 1029.16 988.481 1033.22 985.442 1039.26 982.402 1045.3 980.882 1052.88 980.882 1062.02 980.882 1071.47 982.402 1079.27 985.442 1085.4 988.481 1091.53 993.121 1095.64 999.363 1097.72L998.39 1100.84C990.474 1098.76 984.408 1094.28 980.193 1087.41 975.978 1080.53 973.871 1072.2 973.871 1062.42 973.871 1052.67 975.985 1044.34 980.214 1037.44 984.442 1030.53 990.501 1026.04 998.39 1023.96Z" fill-rule="evenodd"/><text fill="#000000" fill-opacity="0" font-family="Arial,Arial_MSFontService,sans-serif" font-size="76.8804" x="973.871" y="1091.23">(</text><path d="M1018.42 1042.32 1057.24 1042.32 1055.5 1049.86 1045.57 1049.86 1041.03 1069.23C1040.52 1071.42 1040.26 1073.17 1040.26 1074.5 1040.26 1075.55 1040.44 1076.28 1040.79 1076.69 1041.14 1077.09 1041.64 1077.29 1042.29 1077.29 1043.1 1077.29 1043.95 1076.96 1044.84 1076.28 1045.73 1075.61 1046.79 1074.58 1048 1073.2L1050.92 1076.12C1048.54 1078.6 1046.27 1080.4 1044.09 1081.51 1041.92 1082.62 1039.7 1083.17 1037.43 1083.17 1034.75 1083.17 1032.79 1082.49 1031.53 1081.14 1030.27 1079.79 1029.64 1077.65 1029.64 1074.7 1029.64 1073.11 1029.94 1070.99 1030.54 1068.34L1030.9 1066.72C1032.04 1061.64 1033.64 1056.13 1035.72 1050.18L1035.52 1049.86 1024.82 1049.86 1021.34 1066.27C1019.96 1072.81 1018.66 1078.23 1017.45 1082.52L1004.96 1082.52 1005.53 1079.97C1007.02 1078.29 1008.53 1075.56 1010.07 1071.76 1011.61 1067.97 1012.83 1064.07 1013.72 1060.07L1015.99 1049.86 1015.18 1049.86C1013.77 1049.86 1012.62 1049.98 1011.71 1050.22 1010.81 1050.46 1009.91 1050.89 1009.02 1051.5 1008.12 1052.11 1007.04 1053.09 1005.77 1054.44L1002.37 1051.4C1004.61 1048.7 1006.46 1046.74 1007.9 1045.52 1009.35 1044.3 1010.83 1043.47 1012.34 1043.01 1013.85 1042.55 1015.88 1042.32 1018.42 1042.32Z" fill-rule="evenodd"/><text fill="#000000" fill-opacity="0" font-family="Arial,Arial_MSFontService,sans-serif" font-size="40.8516" x="1002.37" y="1078.06">𝝅</text><path d="M1070.15 1080.76C1069.64 1082.85 1069.28 1084.83 1069.05 1086.71 1068.83 1088.58 1068.71 1090.24 1068.71 1091.69 1068.71 1093.41 1068.97 1094.69 1069.49 1095.53 1070.01 1096.37 1070.82 1096.79 1071.94 1096.79 1073.89 1096.79 1075.73 1095.41 1077.46 1092.66 1079.19 1089.9 1080.67 1085.94 1081.9 1080.76ZM1080.96 1061.34C1078.97 1061.34 1077.11 1062.67 1075.38 1065.32 1073.65 1067.98 1072.17 1071.9 1070.94 1077.07L1082.69 1077.07C1083.12 1075.1 1083.46 1073.28 1083.7 1071.62 1083.94 1069.96 1084.07 1068.42 1084.07 1066.99 1084.07 1064.96 1083.83 1063.51 1083.35 1062.64 1082.87 1061.77 1082.07 1061.34 1080.96 1061.34ZM1081.02 1058.29C1084.61 1058.29 1087.3 1059.32 1089.08 1061.38 1090.85 1063.44 1091.74 1066.53 1091.74 1070.65 1091.74 1073.55 1091.27 1076.95 1090.32 1080.86 1089.37 1084.78 1088.04 1088.18 1086.31 1091.06 1084.58 1093.94 1082.49 1096.12 1080.05 1097.61 1077.61 1099.09 1074.86 1099.83 1071.79 1099.83 1068.22 1099.83 1065.53 1098.81 1063.73 1096.76 1061.94 1094.71 1061.04 1091.71 1061.04 1087.76 1061.04 1084.87 1061.5 1081.46 1062.43 1077.51 1063.36 1073.56 1064.68 1070.14 1066.4 1067.23 1068.12 1064.32 1070.2 1062.1 1072.64 1060.58 1075.08 1059.05 1077.87 1058.29 1081.02 1058.29Z" fill-rule="evenodd"/><text fill="#000000" fill-opacity="0" font-family="Arial,Arial_MSFontService,sans-serif" font-size="41.543" x="1061.04" y="1094.64">𝜽</text><path d="M1104.33 1073.12 1111.42 1073.12C1111.8 1075.01 1111.99 1076.88 1111.99 1078.71 1111.99 1080.6 1111.66 1082.33 1111.01 1083.9 1110.37 1085.47 1109.33 1087.03 1107.91 1088.58 1106.5 1090.13 1104.54 1091.84 1102.06 1093.71L1099.87 1091.24C1101.25 1089.94 1102.25 1088.77 1102.87 1087.73 1103.49 1086.69 1103.94 1085.51 1104.21 1084.18 1104.48 1082.86 1104.61 1081.2 1104.61 1079.2 1104.61 1077.15 1104.52 1075.12 1104.33 1073.12Z" fill-rule="evenodd"/><text fill="#000000" fill-opacity="0" font-family="Arial,Arial_MSFontService,sans-serif" font-size="20.5879" x="1099.87" y="1091.13">,</text><path d="M1147.3 1042.32 1186.13 1042.32 1184.38 1049.86 1174.45 1049.86 1169.92 1069.23C1169.4 1071.42 1169.15 1073.17 1169.15 1074.5 1169.15 1075.55 1169.32 1076.28 1169.67 1076.69 1170.02 1077.09 1170.52 1077.29 1171.17 1077.29 1171.98 1077.29 1172.83 1076.96 1173.73 1076.28 1174.62 1075.61 1175.67 1074.58 1176.89 1073.2L1179.8 1076.12C1177.43 1078.6 1175.15 1080.4 1172.98 1081.51 1170.8 1082.62 1168.58 1083.17 1166.31 1083.17 1163.63 1083.17 1161.67 1082.49 1160.41 1081.14 1159.16 1079.79 1158.53 1077.65 1158.53 1074.7 1158.53 1073.11 1158.82 1070.99 1159.42 1068.34L1159.78 1066.72C1160.92 1061.64 1162.53 1056.13 1164.61 1050.18L1164.4 1049.86 1153.7 1049.86 1150.22 1066.27C1148.84 1072.81 1147.54 1078.23 1146.33 1082.52L1133.85 1082.52 1134.41 1079.97C1135.9 1078.29 1137.41 1075.56 1138.95 1071.76 1140.49 1067.97 1141.71 1064.07 1142.6 1060.07L1144.87 1049.86 1144.06 1049.86C1142.65 1049.86 1141.5 1049.98 1140.59 1050.22 1139.69 1050.46 1138.79 1050.89 1137.9 1051.5 1137.01 1052.11 1135.93 1053.09 1134.66 1054.44L1131.25 1051.4C1133.5 1048.7 1135.34 1046.74 1136.78 1045.52 1138.23 1044.3 1139.71 1043.47 1141.22 1043.01 1142.74 1042.55 1144.76 1042.32 1147.3 1042.32Z" fill-rule="evenodd"/><text fill="#000000" fill-opacity="0" font-family="Arial,Arial_MSFontService,sans-serif" font-size="40.8516" x="1131.25" y="1078.06">𝝅</text><path d="M1199.12 1024.1 1202.99 1024.1 1202.14 1033.27 1209.67 1027.97 1211.57 1031.25 1203.22 1035.15 1211.57 1039.08 1209.67 1042.33 1202.14 1037.02 1202.99 1046.19 1199.12 1046.19 1200 1037.02 1192.44 1042.33 1190.51 1039.08 1198.89 1035.15 1190.51 1031.25 1192.44 1027.97 1200 1033.27Z" fill-rule="evenodd"/><text fill="#000000" fill-opacity="0" font-family="Arial,Arial_MSFontService,sans-serif" font-size="22.0898" x="1190.51" y="1043.43">∗</text><path d="M1221.82 1023.96C1229.71 1026.04 1235.77 1030.53 1240 1037.44 1244.23 1044.34 1246.34 1052.67 1246.34 1062.42 1246.34 1072.2 1244.23 1080.53 1240.02 1087.41 1235.8 1094.28 1229.74 1098.76 1221.82 1100.84L1220.85 1097.72C1227.09 1095.64 1231.73 1091.53 1234.77 1085.4 1237.81 1079.27 1239.33 1071.47 1239.33 1062.02 1239.33 1052.88 1237.82 1045.3 1234.79 1039.26 1231.76 1033.22 1227.08 1029.16 1220.73 1027.08Z" fill-rule="evenodd"/><text fill="#000000" fill-opacity="0" font-family="Arial,Arial_MSFontService,sans-serif" font-size="76.8804" x="1220.73" y="1091.23">)</text></g></svg>