<svg width="2916" height="936" xmlns="http://www.w3.org/2000/svg" xmlns:xlink="http://www.w3.org/1999/xlink" xml:space="preserve" overflow="hidden"><g transform="translate(-601 -851)"><path d="M601.5 1581.06 1788.58 1581.06 1788.58 1587.94 601.5 1587.94ZM1784 1570.75 1811.5 1584.5 1784 1598.25Z"/><path d="M3.4375-2.16882e-06 3.43785 549.083-3.43715 549.083-3.4375 2.16882e-06ZM13.7503 544.5 0.000360892 572-13.7497 544.5Z" transform="matrix(1 0 0 -1 695.5 1676.5)"/><path d="M683.07 1013.31 719.95 1013.31 718.648 1019.24 707.956 1019.24 702.88 1041.75C702.221 1044.68 701.892 1046.9 701.892 1048.4 701.892 1049.59 702.086 1050.46 702.476 1051 702.865 1051.54 703.479 1051.81 704.318 1051.81 706.115 1051.81 708.226 1050.37 710.652 1047.5L713.257 1049.92C710.981 1052.41 708.907 1054.21 707.035 1055.31 705.164 1056.42 703.165 1056.98 701.038 1056.98 699.002 1056.98 697.4 1056.28 696.232 1054.89 695.064 1053.5 694.48 1051.66 694.48 1049.38 694.48 1047.38 694.899 1044.47 695.738 1040.67L696.726 1036.13C697.235 1033.74 697.961 1030.85 698.905 1027.46 699.848 1024.08 700.664 1021.47 701.353 1019.65L701.128 1019.24 687.921 1019.24 682.396 1044.8C681.947 1046.81 681.422 1048.97 680.823 1051.29 680.225 1053.61 679.76 1055.27 679.431 1056.26L669.907 1056.26 670.357 1054.06C673.531 1050.91 676.466 1043.54 679.161 1031.96L682.126 1019.24 680.689 1019.24C678.562 1019.24 676.766 1019.6 675.298 1020.32 673.831 1021.04 672.228 1022.48 670.491 1024.63L667.661 1022.25C669.219 1020.37 670.491 1018.93 671.48 1017.94 672.468 1016.95 673.509 1016.11 674.602 1015.42 675.695 1014.74 676.923 1014.21 678.285 1013.85 679.648 1013.49 681.243 1013.31 683.07 1013.31Z" fill-rule="evenodd"/><text fill="#000000" fill-opacity="0" font-family="Arial,Arial_MSFontService,sans-serif" font-size="43.6641" x="667.661" y="1051.52">𝜋</text><path d="M757.751 991.346 758.964 994.805C751.956 997.111 746.767 1001.61 743.398 1008.3 740.029 1015 738.344 1023.4 738.344 1033.53 738.344 1044.01 740.029 1052.65 743.398 1059.45 746.767 1066.25 751.911 1070.8 758.829 1073.1L757.751 1076.56C748.976 1074.26 742.253 1069.29 737.581 1061.67 732.909 1054.05 730.573 1044.82 730.573 1033.98 730.573 1023.17 732.916 1013.93 737.603 1006.28 742.29 998.631 749.006 993.652 757.751 991.346Z" fill-rule="evenodd"/><text fill="#000000" fill-opacity="0" font-family="Arial,Arial_MSFontService,sans-serif" font-size="85.2168" x="730.573" y="1065.91">(</text><path d="M789.094 1016.1C786.01 1016.1 783.24 1017.34 780.784 1019.83 778.328 1022.31 776.412 1025.64 775.034 1029.82 773.656 1034 772.968 1038.17 772.968 1042.33 772.968 1045.45 773.394 1047.78 774.248 1049.32 775.101 1050.86 776.531 1051.63 778.538 1051.63 780.514 1051.63 782.454 1050.78 784.355 1049.07 786.257 1047.36 788.219 1044.93 790.24 1041.77 792.261 1038.61 793.691 1034.96 794.53 1030.83L794.934 1028.9C795.204 1027.67 795.384 1026.61 795.473 1025.71 795.563 1024.81 795.608 1023.84 795.608 1022.79 795.608 1020.49 795.114 1018.79 794.126 1017.71 793.137 1016.64 791.46 1016.1 789.094 1016.1ZM788.196 1012.55C790.143 1012.55 791.962 1012.77 793.654 1013.2 795.346 1013.63 797.091 1014.41 798.887 1015.51L803.02 1012.55 805.895 1013.27 799.292 1041.75C798.633 1044.59 798.303 1046.81 798.303 1048.4 798.303 1049.59 798.498 1050.46 798.887 1051 799.277 1051.54 799.891 1051.81 800.729 1051.81 801.628 1051.81 802.586 1051.44 803.604 1050.71 804.622 1049.98 806.06 1048.58 807.917 1046.51L810.477 1049.03C807.782 1051.9 805.483 1053.94 803.582 1055.16 801.68 1056.37 799.621 1056.98 797.405 1056.98 795.548 1056.98 794.066 1056.36 792.958 1055.13 791.85 1053.91 791.296 1052.27 791.296 1050.24 791.296 1048.59 791.64 1046.84 792.329 1044.98L791.745 1044.8C788.87 1049 786.145 1052.07 783.569 1054.01 780.994 1055.96 778.268 1056.93 775.393 1056.93 772.099 1056.93 769.546 1055.69 767.734 1053.2 765.922 1050.72 765.016 1047.23 765.016 1042.74 765.016 1037.59 766.027 1032.64 768.049 1027.89 770.07 1023.14 772.848 1019.4 776.382 1016.66 779.915 1013.92 783.854 1012.55 788.196 1012.55Z" fill-rule="evenodd"/><text fill="#000000" fill-opacity="0" font-family="Arial,Arial_MSFontService,sans-serif" font-size="44.4277" x="765.016" y="1051.42">𝑎</text><path d="M824.631 991.975 831.549 991.975 831.549 1075.57 824.631 1075.57Z" fill-rule="evenodd"/><text fill="#000000" fill-opacity="0" font-family="Arial,Arial_MSFontService,sans-serif" font-size="83.5996" x="824.631" y="1065.12">|</text><path d="M867.82 1012.59C870.605 1012.59 873.143 1012.76 875.434 1013.09 877.725 1013.42 880.009 1013.99 882.285 1014.79L880.263 1024.23 876.625 1024.23C876.295 1021.56 875.419 1019.54 873.997 1018.16 872.574 1016.79 870.336 1016.1 867.281 1016.1 864.915 1016.1 862.999 1016.7 861.531 1017.92 860.064 1019.13 859.33 1020.72 859.33 1022.7 859.33 1023.78 859.517 1024.73 859.891 1025.55 860.266 1026.38 861.022 1027.28 862.16 1028.27 863.298 1029.26 865.065 1030.47 867.461 1031.91 869.347 1033.05 870.86 1034.09 871.998 1035.03 873.136 1035.98 874.034 1036.91 874.693 1037.84 875.352 1038.77 875.831 1039.75 876.131 1040.78 876.43 1041.82 876.58 1043.07 876.58 1044.53 876.58 1047.2 875.869 1049.48 874.446 1051.38 873.024 1053.29 871.092 1054.7 868.651 1055.63 866.21 1056.56 863.433 1057.02 860.318 1057.02 857.833 1057.02 855.392 1056.83 852.996 1056.46 850.6 1056.09 847.935 1055.45 845 1054.55L847.156 1044.76 850.66 1044.76C850.78 1047.63 851.588 1049.8 853.086 1051.27 854.583 1052.74 856.964 1053.47 860.228 1053.47 863.073 1053.47 865.297 1052.84 866.899 1051.56 868.501 1050.29 869.303 1048.49 869.303 1046.15 869.303 1044.8 869.078 1043.64 868.629 1042.67 868.18 1041.7 867.446 1040.76 866.428 1039.86 865.409 1038.96 863.792 1037.84 861.576 1036.49 859.24 1035.08 857.421 1033.81 856.118 1032.67 854.815 1031.54 853.834 1030.3 853.176 1028.97 852.517 1027.64 852.187 1026.1 852.187 1024.36 852.187 1022 852.824 1019.92 854.096 1018.14 855.369 1016.36 857.189 1014.99 859.555 1014.03 861.92 1013.07 864.676 1012.59 867.82 1012.59Z" fill-rule="evenodd"/><text fill="#000000" fill-opacity="0" font-family="Arial,Arial_MSFontService,sans-serif" font-size="44.4277" x="845" y="1051.47">𝑠</text><path d="M889.949 991.346C898.693 993.652 905.409 998.631 910.096 1006.28 914.783 1013.93 917.126 1023.17 917.126 1033.98 917.126 1044.82 914.79 1054.05 910.119 1061.67 905.447 1069.29 898.723 1074.26 889.949 1076.56L888.87 1073.1C895.788 1070.8 900.932 1066.25 904.301 1059.45 907.67 1052.65 909.355 1044.01 909.355 1033.53 909.355 1023.4 907.678 1015 904.324 1008.3 900.969 1001.61 895.773 997.111 888.736 994.805Z" fill-rule="evenodd"/><text fill="#000000" fill-opacity="0" font-family="Arial,Arial_MSFontService,sans-serif" font-size="85.2168" x="888.736" y="1065.91">)</text><path d="M1790.65 1629.1C1787.56 1629.1 1784.79 1630.34 1782.34 1632.83 1779.88 1635.32 1777.97 1638.65 1776.59 1642.83 1775.21 1647 1774.52 1651.17 1774.52 1655.34 1774.52 1658.45 1774.95 1660.78 1775.8 1662.32 1776.66 1663.86 1778.09 1664.64 1780.09 1664.64 1782.07 1664.64 1784.01 1663.78 1785.91 1662.07 1787.81 1660.37 1789.77 1657.93 1791.79 1654.78 1793.82 1651.62 1795.25 1647.97 1796.08 1643.84L1796.49 1641.9C1796.76 1640.68 1796.94 1639.61 1797.03 1638.72 1797.12 1637.82 1797.16 1636.84 1797.16 1635.8 1797.16 1633.49 1796.67 1631.8 1795.68 1630.72 1794.69 1629.64 1793.01 1629.1 1790.65 1629.1ZM1789.75 1625.55C1791.7 1625.55 1793.52 1625.77 1795.21 1626.2 1796.9 1626.64 1798.64 1627.41 1800.44 1628.52L1804.57 1625.55 1807.45 1626.27 1800.85 1654.75C1800.19 1657.6 1799.86 1659.81 1799.86 1661.4 1799.86 1662.6 1800.05 1663.47 1800.44 1664.01 1800.83 1664.55 1801.44 1664.82 1802.28 1664.82 1803.18 1664.82 1804.14 1664.45 1805.16 1663.71 1806.18 1662.98 1807.61 1661.58 1809.47 1659.51L1812.03 1662.03C1809.34 1664.9 1807.04 1666.95 1805.14 1668.16 1803.23 1669.37 1801.18 1669.98 1798.96 1669.98 1797.1 1669.98 1795.62 1669.37 1794.51 1668.14 1793.4 1666.91 1792.85 1665.28 1792.85 1663.24 1792.85 1661.6 1793.19 1659.84 1793.88 1657.99L1793.3 1657.81C1790.42 1662 1787.7 1665.07 1785.12 1667.02 1782.55 1668.96 1779.82 1669.94 1776.95 1669.94 1773.65 1669.94 1771.1 1668.69 1769.29 1666.21 1767.48 1663.72 1766.57 1660.23 1766.57 1655.74 1766.57 1650.59 1767.58 1645.64 1769.6 1640.89 1771.62 1636.15 1774.4 1632.4 1777.94 1629.66 1781.47 1626.92 1785.41 1625.55 1789.75 1625.55Z" fill-rule="evenodd"/><text fill="#000000" fill-opacity="0" font-family="Arial,Arial_MSFontService,sans-serif" font-size="44.4277" x="1766.57" y="1664.43">𝑎</text><path d="M1244.7 1080.47 1281.58 1080.47 1280.28 1086.4 1269.59 1086.4 1264.51 1108.91C1263.85 1111.84 1263.52 1114.06 1263.52 1115.56 1263.52 1116.75 1263.72 1117.62 1264.11 1118.16 1264.5 1118.7 1265.11 1118.97 1265.95 1118.97 1267.75 1118.97 1269.86 1117.53 1272.28 1114.66L1274.89 1117.08C1272.61 1119.57 1270.54 1121.37 1268.67 1122.47 1266.8 1123.58 1264.8 1124.14 1262.67 1124.14 1260.63 1124.14 1259.03 1123.44 1257.86 1122.05 1256.7 1120.66 1256.11 1118.82 1256.11 1116.54 1256.11 1114.54 1256.53 1111.63 1257.37 1107.83L1258.36 1103.29C1258.87 1100.9 1259.59 1098.01 1260.54 1094.62 1261.48 1091.24 1262.3 1088.63 1262.98 1086.81L1262.76 1086.4 1249.55 1086.4 1244.03 1111.96C1243.58 1113.97 1243.05 1116.13 1242.46 1118.45 1241.86 1120.77 1241.39 1122.43 1241.06 1123.42L1231.54 1123.42 1231.99 1121.22C1235.16 1118.07 1238.1 1110.7 1240.79 1099.11L1243.76 1086.4 1242.32 1086.4C1240.19 1086.4 1238.4 1086.76 1236.93 1087.48 1235.46 1088.2 1233.86 1089.64 1232.12 1091.79L1229.29 1089.41C1230.85 1087.53 1232.12 1086.09 1233.11 1085.1 1234.1 1084.11 1235.14 1083.27 1236.23 1082.58 1237.33 1081.89 1238.55 1081.37 1239.92 1081.01 1241.28 1080.65 1242.87 1080.47 1244.7 1080.47Z" fill-rule="evenodd"/><text fill="#000000" fill-opacity="0" font-family="Arial,Arial_MSFontService,sans-serif" font-size="43.6641" x="1229.29" y="1118.68">𝜋</text><path d="M1301.55 1102.93C1300.02 1102.93 1298.75 1103.32 1297.72 1104.12 1296.7 1104.92 1295.88 1106.08 1295.28 1107.62 1294.68 1109.16 1294.26 1111.03 1294.01 1113.25 1293.76 1115.46 1293.63 1117.97 1293.63 1120.79 1293.63 1124.04 1293.79 1126.85 1294.11 1129.21 1294.42 1131.58 1294.91 1133.52 1295.58 1135.05 1296.24 1136.58 1297.08 1137.7 1298.08 1138.42 1299.08 1139.14 1300.28 1139.5 1301.68 1139.5 1302.99 1139.5 1304.13 1139.16 1305.11 1138.49 1306.1 1137.81 1306.91 1136.76 1307.55 1135.33 1308.19 1133.9 1308.68 1132.09 1309.01 1129.9 1309.33 1127.71 1309.5 1125.12 1309.5 1122.13 1309.5 1118.77 1309.32 1115.88 1308.96 1113.46 1308.6 1111.04 1308.09 1109.05 1307.44 1107.49 1306.78 1105.93 1305.96 1104.78 1304.97 1104.04 1303.97 1103.3 1302.83 1102.93 1301.55 1102.93ZM1301.68 1099.75C1304.27 1099.75 1306.49 1100.24 1308.34 1101.21 1310.18 1102.18 1311.68 1103.56 1312.85 1105.36 1314.02 1107.16 1314.87 1109.36 1315.42 1111.95 1315.96 1114.55 1316.24 1117.48 1316.24 1120.75 1316.24 1128.02 1314.95 1133.51 1312.38 1137.23 1309.8 1140.95 1306.07 1142.8 1301.19 1142.8 1296.35 1142.8 1292.75 1141.05 1290.39 1137.54 1288.04 1134.03 1286.86 1128.7 1286.86 1121.57 1286.86 1117.84 1287.22 1114.62 1287.95 1111.89 1288.69 1109.16 1289.71 1106.9 1291.03 1105.1 1292.35 1103.3 1293.91 1101.96 1295.72 1101.08 1297.53 1100.19 1299.52 1099.75 1301.68 1099.75Z" fill-rule="evenodd"/><text fill="#000000" fill-opacity="0" font-family="Arial,Arial_MSFontService,sans-serif" font-size="43.0527" x="1286.86" y="1137.42">0</text><path d="M726 1544C784.816 1510.21 843.631 1476.41 896.24 1422.07 948.849 1367.74 980.178 1263.48 1041.65 1217.98 1103.13 1172.48 1190.84 1150.6 1265.09 1149.07 1339.35 1147.54 1425.71 1172.29 1487.19 1218.67 1548.66 1265.05 1583.11 1368.18 1633.95 1427.38 1684.78 1486.57 1737.39 1511.31 1790 1536.05" stroke="#4E95D9" stroke-width="10.3125" stroke-miterlimit="8" fill="none" fill-rule="evenodd"/><path d="M724 1546C782.816 1523.33 841.631 1500.66 894.24 1464.2 946.849 1427.75 978.178 1357.8 1039.65 1327.28 1101.13 1296.75 1188.84 1282.07 1263.09 1281.04 1337.35 1280.02 1423.71 1296.62 1485.19 1327.74 1546.66 1358.86 1581.11 1428.04 1631.95 1467.76 1682.78 1507.47 1735.39 1524.07 1788 1540.67" stroke="#8ED973" stroke-width="10.3125" stroke-miterlimit="8" stroke-dasharray="41.25 30.9375" fill="none" fill-rule="evenodd"/><path d="M725 1544C783.871 1497.29 842.742 1450.57 895.4 1375.46 948.058 1300.36 979.417 1156.25 1040.95 1093.35 1102.48 1030.46 1190.27 1000.2 1264.6 998.092 1338.93 995.979 1425.37 1030.19 1486.9 1094.3 1548.43 1158.42 1582.92 1300.97 1633.8 1382.79 1684.68 1464.62 1737.34 1498.81 1790 1533.01" stroke="#8ED973" stroke-width="10.3125" stroke-miterlimit="8" stroke-dasharray="41.25 30.9375" fill="none" fill-rule="evenodd"/><path d="M1078.41 892.896 1115.29 892.896 1113.99 898.825 1103.3 898.825 1098.22 921.331C1097.56 924.266 1097.23 926.482 1097.23 927.98 1097.23 929.178 1097.43 930.046 1097.82 930.585 1098.2 931.124 1098.82 931.394 1099.66 931.394 1101.45 931.394 1103.57 929.956 1105.99 927.081L1108.6 929.507C1106.32 931.993 1104.25 933.79 1102.38 934.898 1100.5 936.006 1098.5 936.56 1096.38 936.56 1094.34 936.56 1092.74 935.863 1091.57 934.471 1090.4 933.078 1089.82 931.244 1089.82 928.968 1089.82 926.961 1090.24 924.057 1091.08 920.253L1092.07 915.716C1092.57 913.32 1093.3 910.43 1094.24 907.046 1095.19 903.662 1096 901.057 1096.69 899.23L1096.47 898.825 1083.26 898.825 1077.74 924.386C1077.29 926.392 1076.76 928.556 1076.16 930.877 1075.56 933.198 1075.1 934.853 1074.77 935.841L1065.25 935.841 1065.7 933.64C1068.87 930.495 1071.81 923.128 1074.5 911.538L1077.47 898.825 1076.03 898.825C1073.9 898.825 1072.11 899.185 1070.64 899.904 1069.17 900.622 1067.57 902.06 1065.83 904.216L1063 901.835C1064.56 899.948 1065.83 898.511 1066.82 897.523 1067.81 896.534 1068.85 895.696 1069.94 895.007 1071.03 894.318 1072.26 893.794 1073.63 893.435 1074.99 893.075 1076.58 892.896 1078.41 892.896Z" fill-rule="evenodd"/><text fill="#000000" fill-opacity="0" font-family="Arial,Arial_MSFontService,sans-serif" font-size="43.6641" x="1063" y="931.102">𝜋</text><path d="M1135.26 915.349C1133.73 915.349 1132.45 915.747 1131.43 916.543 1130.4 917.339 1129.59 918.506 1128.99 920.043 1128.39 921.581 1127.97 923.456 1127.72 925.67 1127.46 927.884 1127.34 930.397 1127.34 933.211 1127.34 936.461 1127.5 939.269 1127.81 941.635 1128.13 944.001 1128.62 945.948 1129.29 947.475 1129.95 949.001 1130.78 950.125 1131.79 950.844 1132.79 951.564 1133.99 951.924 1135.39 951.924 1136.7 951.924 1137.84 951.586 1138.82 950.91 1139.8 950.234 1140.62 949.181 1141.26 947.753 1141.9 946.324 1142.39 944.514 1142.71 942.322 1143.04 940.13 1143.21 937.54 1143.21 934.552 1143.21 931.194 1143.03 928.304 1142.67 925.883 1142.31 923.462 1141.8 921.472 1141.14 919.912 1140.49 918.353 1139.67 917.202 1138.67 916.461 1137.68 915.719 1136.54 915.349 1135.26 915.349ZM1135.39 912.175C1137.98 912.175 1140.2 912.661 1142.04 913.631 1143.89 914.602 1145.39 915.987 1146.56 917.786 1147.73 919.585 1148.58 921.783 1149.13 924.378 1149.67 926.973 1149.94 929.907 1149.94 933.178 1149.94 940.441 1148.66 945.932 1146.08 949.65 1143.51 953.369 1139.78 955.228 1134.9 955.228 1130.05 955.228 1126.46 953.472 1124.1 949.961 1121.74 946.45 1120.57 941.128 1120.57 933.996 1120.57 930.267 1120.93 927.039 1121.66 924.312 1122.39 921.586 1123.42 919.323 1124.74 917.524 1126.06 915.725 1127.62 914.384 1129.43 913.5 1131.24 912.617 1133.23 912.175 1135.39 912.175Z" fill-rule="evenodd"/><text fill="#000000" fill-opacity="0" font-family="Arial,Arial_MSFontService,sans-serif" font-size="43.0527" x="1120.57" y="949.846">0</text><path d="M1191.97 904.081C1193.5 904.081 1194.75 904.59 1195.72 905.609 1196.7 906.627 1197.18 907.945 1197.18 909.562 1197.18 911.179 1196.7 912.497 1195.72 913.515 1194.75 914.533 1193.5 915.042 1191.97 915.042 1190.45 915.042 1189.2 914.533 1188.22 913.515 1187.25 912.497 1186.76 911.179 1186.76 909.562 1186.76 907.945 1187.25 906.627 1188.22 905.609 1189.2 904.59 1190.45 904.081 1191.97 904.081Z" fill-rule="evenodd"/><text fill="#000000" fill-opacity="0" font-family="Arial,Arial_MSFontService,sans-serif" font-size="10.9609" x="1186.76" y="913.672">⋅</text><path d="M1260.41 870.929 1261.62 874.388C1254.61 876.694 1249.43 881.194 1246.06 887.887 1242.69 894.58 1241 902.988 1241 913.111 1241 923.592 1242.69 932.232 1246.06 939.03 1249.43 945.829 1254.57 950.381 1261.49 952.687L1260.41 956.146C1251.63 953.84 1244.91 948.876 1240.24 941.254 1235.57 933.632 1233.23 924.401 1233.23 913.56 1233.23 902.749 1235.57 893.517 1240.26 885.865 1244.95 878.214 1251.66 873.235 1260.41 870.929Z" fill-rule="evenodd"/><text fill="#000000" fill-opacity="0" font-family="Arial,Arial_MSFontService,sans-serif" font-size="85.2168" x="1233.23" y="945.494">(</text><path d="M1291.98 873.804 1294.45 873.804C1294.27 876.679 1294.18 880.662 1294.18 885.753L1294.18 924.116C1294.18 925.853 1294.28 927.164 1294.47 928.047 1294.67 928.931 1295.01 929.649 1295.5 930.203 1296 930.757 1296.71 931.192 1297.64 931.506 1298.57 931.82 1299.73 932.06 1301.14 932.225 1302.55 932.39 1304.41 932.502 1306.71 932.562L1306.71 935.841 1273.51 935.841 1273.51 932.562C1276.84 932.412 1279.21 932.21 1280.63 931.955 1282.06 931.701 1283.14 931.319 1283.89 930.81 1284.64 930.301 1285.19 929.582 1285.53 928.654 1285.88 927.725 1286.05 926.213 1286.05 924.116L1286.05 887.685C1286.05 886.487 1285.84 885.611 1285.42 885.057 1285 884.503 1284.39 884.226 1283.58 884.226 1282.62 884.226 1281.26 884.72 1279.49 885.708 1277.72 886.696 1275.54 888.059 1272.93 889.796L1270.95 886.337Z" fill-rule="evenodd"/><text fill="#000000" fill-opacity="0" font-family="Arial,Arial_MSFontService,sans-serif" font-size="62.0371" x="1270.95" y="928.086">1</text><path d="M1365.5 880.677 1371.88 880.677 1371.88 906.552 1396.36 906.552 1396.36 912.527 1371.88 912.527 1371.88 938.402 1365.5 938.402 1365.5 912.527 1341.01 912.527 1341.01 906.552 1365.5 906.552Z" fill-rule="evenodd"/><text fill="#000000" fill-opacity="0" font-family="Arial,Arial_MSFontService,sans-serif" font-size="57.7246" x="1341.01" y="931.186">+</text><path d="M1454.57 892.132C1456.64 892.132 1458.53 892.267 1460.23 892.536 1461.94 892.806 1463.72 893.33 1465.58 894.109L1464.01 898.107C1461.04 897.178 1458 896.714 1454.89 896.714 1450.76 896.714 1447.15 897.964 1444.08 900.465 1441.02 902.966 1438.79 906.522 1437.41 911.134L1460.01 911.134 1459.02 915.806 1436.25 915.806C1436.1 916.345 1435.94 917.213 1435.77 918.411 1435.61 919.609 1435.53 920.762 1435.53 921.87 1435.53 925.105 1436.34 927.59 1437.95 929.327 1439.57 931.064 1441.79 931.933 1444.6 931.933 1447.06 931.933 1449.18 931.761 1450.96 931.416 1452.74 931.072 1454.63 930.525 1456.64 929.777L1457.67 933.37C1454.98 934.448 1452.49 935.25 1450.19 935.774 1447.9 936.298 1445.29 936.56 1442.36 936.56 1437.77 936.56 1434.26 935.272 1431.82 932.696 1429.38 930.121 1428.16 926.452 1428.16 921.691 1428.16 919.355 1428.47 916.764 1429.08 913.919 1429.69 911.074 1430.71 908.349 1432.11 905.743 1433.52 903.138 1435.32 900.802 1437.5 898.736 1439.69 896.669 1442.23 895.052 1445.12 893.884 1448.01 892.716 1451.16 892.132 1454.57 892.132Z" fill-rule="evenodd"/><text fill="#000000" fill-opacity="0" font-family="Arial,Arial_MSFontService,sans-serif" font-size="44.4277" x="1428.16" y="931.006">𝜖</text><path d="M1471.67 870.929C1480.41 873.235 1487.13 878.214 1491.82 885.865 1496.5 893.517 1498.85 902.749 1498.85 913.56 1498.85 924.401 1496.51 933.632 1491.84 941.254 1487.17 948.876 1480.44 953.84 1471.67 956.146L1470.59 952.687C1477.51 950.381 1482.65 945.829 1486.02 939.03 1489.39 932.232 1491.08 923.592 1491.08 913.111 1491.08 902.988 1489.4 894.58 1486.04 887.887 1482.69 881.194 1477.49 876.694 1470.46 874.388Z" fill-rule="evenodd"/><text fill="#000000" fill-opacity="0" font-family="Arial,Arial_MSFontService,sans-serif" font-size="85.2168" x="1470.46" y="945.494">)</text><path d="M1078.41 1376.28 1115.29 1376.28 1113.99 1382.21 1103.3 1382.21 1098.22 1404.72C1097.56 1407.65 1097.23 1409.87 1097.23 1411.37 1097.23 1412.57 1097.43 1413.43 1097.82 1413.97 1098.2 1414.51 1098.82 1414.78 1099.66 1414.78 1101.45 1414.78 1103.57 1413.34 1105.99 1410.47L1108.6 1412.9C1106.32 1415.38 1104.25 1417.18 1102.37 1418.29 1100.5 1419.39 1098.5 1419.95 1096.38 1419.95 1094.34 1419.95 1092.74 1419.25 1091.57 1417.86 1090.4 1416.47 1089.82 1414.63 1089.82 1412.36 1089.82 1410.35 1090.24 1407.44 1091.08 1403.64L1092.07 1399.1C1092.57 1396.71 1093.3 1393.82 1094.24 1390.43 1095.19 1387.05 1096 1384.44 1096.69 1382.62L1096.47 1382.21 1083.26 1382.21 1077.74 1407.77C1077.29 1409.78 1076.76 1411.94 1076.16 1414.27 1075.56 1416.59 1075.1 1418.24 1074.77 1419.23L1065.25 1419.23 1065.7 1417.03C1068.87 1413.88 1071.81 1406.52 1074.5 1394.93L1077.47 1382.21 1076.03 1382.21C1073.9 1382.21 1072.1 1382.57 1070.64 1383.29 1069.17 1384.01 1067.57 1385.45 1065.83 1387.6L1063 1385.22C1064.56 1383.34 1065.83 1381.9 1066.82 1380.91 1067.81 1379.92 1068.85 1379.08 1069.94 1378.4 1071.03 1377.71 1072.26 1377.18 1073.62 1376.82 1074.99 1376.46 1076.58 1376.28 1078.41 1376.28Z" fill-rule="evenodd"/><text fill="#000000" fill-opacity="0" font-family="Arial,Arial_MSFontService,sans-serif" font-size="43.6641" x="1063" y="1414.49">𝜋</text><path d="M1135.26 1398.74C1133.73 1398.74 1132.45 1399.14 1131.43 1399.93 1130.4 1400.73 1129.59 1401.89 1128.99 1403.43 1128.39 1404.97 1127.97 1406.84 1127.71 1409.06 1127.46 1411.27 1127.34 1413.79 1127.34 1416.6 1127.34 1419.85 1127.5 1422.66 1127.81 1425.02 1128.13 1427.39 1128.62 1429.34 1129.29 1430.86 1129.95 1432.39 1130.78 1433.51 1131.79 1434.23 1132.79 1434.95 1133.99 1435.31 1135.39 1435.31 1136.69 1435.31 1137.84 1434.97 1138.82 1434.3 1139.8 1433.62 1140.62 1432.57 1141.26 1431.14 1141.9 1429.71 1142.39 1427.9 1142.71 1425.71 1143.04 1423.52 1143.21 1420.93 1143.21 1417.94 1143.21 1414.58 1143.03 1411.69 1142.67 1409.27 1142.31 1406.85 1141.8 1404.86 1141.14 1403.3 1140.49 1401.74 1139.67 1400.59 1138.67 1399.85 1137.68 1399.11 1136.54 1398.74 1135.26 1398.74ZM1135.39 1395.56C1137.98 1395.56 1140.2 1396.05 1142.04 1397.02 1143.89 1397.99 1145.39 1399.37 1146.56 1401.17 1147.73 1402.97 1148.58 1405.17 1149.13 1407.77 1149.67 1410.36 1149.94 1413.3 1149.94 1416.57 1149.94 1423.83 1148.66 1429.32 1146.08 1433.04 1143.51 1436.76 1139.78 1438.62 1134.9 1438.62 1130.05 1438.62 1126.46 1436.86 1124.1 1433.35 1121.74 1429.84 1120.57 1424.52 1120.57 1417.38 1120.57 1413.65 1120.93 1410.43 1121.66 1407.7 1122.39 1404.97 1123.42 1402.71 1124.74 1400.91 1126.06 1399.11 1127.62 1397.77 1129.43 1396.89 1131.24 1396.01 1133.23 1395.56 1135.39 1395.56Z" fill-rule="evenodd"/><text fill="#000000" fill-opacity="0" font-family="Arial,Arial_MSFontService,sans-serif" font-size="43.0527" x="1120.57" y="1433.23">0</text><path d="M1191.97 1387.47C1193.5 1387.47 1194.75 1387.98 1195.72 1389 1196.7 1390.02 1197.18 1391.33 1197.18 1392.95 1197.18 1394.57 1196.7 1395.88 1195.72 1396.9 1194.75 1397.92 1193.5 1398.43 1191.97 1398.43 1190.45 1398.43 1189.2 1397.92 1188.22 1396.9 1187.25 1395.88 1186.76 1394.57 1186.76 1392.95 1186.76 1391.33 1187.25 1390.02 1188.22 1389 1189.2 1387.98 1190.45 1387.47 1191.97 1387.47Z" fill-rule="evenodd"/><text fill="#000000" fill-opacity="0" font-family="Arial,Arial_MSFontService,sans-serif" font-size="10.9609" x="1186.76" y="1397.06">⋅</text><path d="M1260.41 1354.32 1261.62 1357.78C1254.61 1360.08 1249.43 1364.58 1246.06 1371.28 1242.69 1377.97 1241 1386.38 1241 1396.5 1241 1406.98 1242.69 1415.62 1246.06 1422.42 1249.43 1429.22 1254.57 1433.77 1261.49 1436.07L1260.41 1439.53C1251.63 1437.23 1244.91 1432.26 1240.24 1424.64 1235.57 1417.02 1233.23 1407.79 1233.23 1396.95 1233.23 1386.14 1235.57 1376.91 1240.26 1369.25 1244.95 1361.6 1251.66 1356.62 1260.41 1354.32Z" fill-rule="evenodd"/><text fill="#000000" fill-opacity="0" font-family="Arial,Arial_MSFontService,sans-serif" font-size="85.2168" x="1233.23" y="1428.88">(</text><path d="M1291.98 1357.19 1294.45 1357.19C1294.27 1360.07 1294.18 1364.05 1294.18 1369.14L1294.18 1407.5C1294.18 1409.24 1294.28 1410.55 1294.47 1411.44 1294.67 1412.32 1295.01 1413.04 1295.5 1413.59 1296 1414.15 1296.71 1414.58 1297.64 1414.89 1298.57 1415.21 1299.73 1415.45 1301.14 1415.61 1302.55 1415.78 1304.41 1415.89 1306.71 1415.95L1306.71 1419.23 1273.51 1419.23 1273.51 1415.95C1276.84 1415.8 1279.21 1415.6 1280.63 1415.34 1282.06 1415.09 1283.14 1414.71 1283.89 1414.2 1284.64 1413.69 1285.19 1412.97 1285.53 1412.04 1285.88 1411.11 1286.05 1409.6 1286.05 1407.5L1286.05 1371.07C1286.05 1369.88 1285.84 1369 1285.42 1368.45 1285 1367.89 1284.39 1367.61 1283.58 1367.61 1282.62 1367.61 1281.26 1368.11 1279.49 1369.1 1277.72 1370.08 1275.54 1371.45 1272.93 1373.18L1270.95 1369.73Z" fill-rule="evenodd"/><text fill="#000000" fill-opacity="0" font-family="Arial,Arial_MSFontService,sans-serif" font-size="62.0371" x="1270.95" y="1411.47">1</text><path d="M1341.01 1389.94 1396.36 1389.94 1396.36 1395.91 1341.01 1395.91Z" fill-rule="evenodd"/><text fill="#000000" fill-opacity="0" font-family="Arial,Arial_MSFontService,sans-serif" font-size="5.97461" x="1341.01" y="1395.17">−</text><path d="M1454.57 1375.52C1456.64 1375.52 1458.53 1375.66 1460.23 1375.92 1461.94 1376.19 1463.72 1376.72 1465.58 1377.5L1464.01 1381.49C1461.04 1380.57 1458 1380.1 1454.89 1380.1 1450.76 1380.1 1447.15 1381.35 1444.08 1383.85 1441.02 1386.35 1438.79 1389.91 1437.41 1394.52L1460.01 1394.52 1459.02 1399.19 1436.25 1399.19C1436.1 1399.73 1435.94 1400.6 1435.77 1401.8 1435.61 1403 1435.53 1404.15 1435.53 1405.26 1435.53 1408.49 1436.34 1410.98 1437.95 1412.72 1439.57 1414.45 1441.79 1415.32 1444.6 1415.32 1447.06 1415.32 1449.18 1415.15 1450.96 1414.8 1452.74 1414.46 1454.63 1413.91 1456.64 1413.16L1457.67 1416.76C1454.98 1417.84 1452.49 1418.64 1450.19 1419.16 1447.9 1419.69 1445.29 1419.95 1442.36 1419.95 1437.77 1419.95 1434.26 1418.66 1431.82 1416.08 1429.38 1413.51 1428.16 1409.84 1428.16 1405.08 1428.16 1402.74 1428.47 1400.15 1429.08 1397.31 1429.69 1394.46 1430.71 1391.74 1432.11 1389.13 1433.52 1386.53 1435.32 1384.19 1437.5 1382.12 1439.69 1380.06 1442.23 1378.44 1445.12 1377.27 1448.01 1376.1 1451.16 1375.52 1454.57 1375.52Z" fill-rule="evenodd"/><text fill="#000000" fill-opacity="0" font-family="Arial,Arial_MSFontService,sans-serif" font-size="44.4277" x="1428.16" y="1414.39">𝜖</text><path d="M1471.67 1354.32C1480.41 1356.62 1487.13 1361.6 1491.82 1369.25 1496.5 1376.91 1498.85 1386.14 1498.85 1396.95 1498.85 1407.79 1496.51 1417.02 1491.84 1424.64 1487.17 1432.26 1480.44 1437.23 1471.67 1439.53L1470.59 1436.07C1477.51 1433.77 1482.65 1429.22 1486.02 1422.42 1489.39 1415.62 1491.08 1406.98 1491.08 1396.5 1491.08 1386.38 1489.4 1377.97 1486.04 1371.28 1482.69 1364.58 1477.49 1360.08 1470.46 1357.78Z" fill-rule="evenodd"/><text fill="#000000" fill-opacity="0" font-family="Arial,Arial_MSFontService,sans-serif" font-size="85.2168" x="1470.46" y="1428.88">)</text><path d="M2162.5 1596.06 3128.82 1596.06 3128.82 1602.94 2162.5 1602.94ZM3124.23 1585.75 3151.73 1599.5 3124.23 1613.25Z"/><path d="M2327.52 1690.91 2329.75 1690.91C2329.59 1693.5 2329.51 1697.1 2329.51 1701.69L2329.51 1736.3C2329.51 1737.87 2329.6 1739.05 2329.77 1739.85 2329.95 1740.64 2330.26 1741.29 2330.7 1741.79 2331.15 1742.29 2331.79 1742.68 2332.63 1742.97 2333.47 1743.25 2334.52 1743.47 2335.79 1743.62 2337.06 1743.77 2338.74 1743.87 2340.82 1743.92L2340.82 1746.88 2310.87 1746.88 2310.87 1743.92C2313.87 1743.79 2316.01 1743.6 2317.29 1743.37 2318.57 1743.14 2319.55 1742.8 2320.23 1742.34 2320.9 1741.88 2321.4 1741.23 2321.71 1740.39 2322.02 1739.56 2322.17 1738.19 2322.17 1736.3L2322.17 1703.43C2322.17 1702.35 2321.98 1701.56 2321.61 1701.06 2321.23 1700.56 2320.67 1700.31 2319.94 1700.31 2319.08 1700.31 2317.85 1700.76 2316.26 1701.65 2314.66 1702.54 2312.69 1703.77 2310.34 1705.34L2308.56 1702.22Z" fill-rule="evenodd"/><text fill="#000000" fill-opacity="0" font-family="Arial,Arial_MSFontService,sans-serif" font-size="55.9683" x="2308.56" y="1739.88">1</text><path d="M2371.55 1720.46 2421.48 1720.46 2421.48 1725.85 2371.55 1725.85Z" fill-rule="evenodd"/><text fill="#000000" fill-opacity="0" font-family="Arial,Arial_MSFontService,sans-serif" font-size="5.39014" x="2371.55" y="1725.17">−</text><path d="M2473.8 1707.45C2475.67 1707.45 2477.37 1707.57 2478.91 1707.81 2480.45 1708.05 2482.06 1708.53 2483.73 1709.23L2482.31 1712.84C2479.64 1712 2476.9 1711.58 2474.09 1711.58 2470.36 1711.58 2467.11 1712.71 2464.34 1714.96 2461.57 1717.22 2459.56 1720.43 2458.32 1724.59L2478.71 1724.59 2477.82 1728.8 2457.27 1728.8C2457.13 1729.29 2456.99 1730.07 2456.84 1731.15 2456.69 1732.24 2456.62 1733.28 2456.62 1734.28 2456.62 1737.19 2457.35 1739.44 2458.81 1741 2460.27 1742.57 2462.27 1743.35 2464.81 1743.35 2467.02 1743.35 2468.93 1743.2 2470.54 1742.89 2472.15 1742.58 2473.86 1742.08 2475.67 1741.41L2476.6 1744.65C2474.17 1745.62 2471.92 1746.35 2469.85 1746.82 2467.78 1747.29 2465.43 1747.53 2462.78 1747.53 2458.65 1747.53 2455.48 1746.37 2453.28 1744.04 2451.07 1741.72 2449.97 1738.41 2449.97 1734.11 2449.97 1732.01 2450.25 1729.67 2450.8 1727.1 2451.36 1724.54 2452.27 1722.08 2453.54 1719.73 2454.81 1717.38 2456.43 1715.27 2458.4 1713.4 2460.38 1711.54 2462.67 1710.08 2465.27 1709.03 2467.88 1707.97 2470.72 1707.45 2473.8 1707.45Z" fill-rule="evenodd"/><text fill="#000000" fill-opacity="0" font-family="Arial,Arial_MSFontService,sans-serif" font-size="40.0815" x="2449.97" y="1742.52">𝜖</text><path d="M2775.25 1690.91 2777.48 1690.91C2777.31 1693.5 2777.23 1697.1 2777.23 1701.69L2777.23 1736.3C2777.23 1737.87 2777.32 1739.05 2777.5 1739.85 2777.67 1740.64 2777.98 1741.29 2778.43 1741.79 2778.87 1742.29 2779.52 1742.68 2780.35 1742.97 2781.19 1743.25 2782.24 1743.47 2783.51 1743.62 2784.78 1743.77 2786.46 1743.87 2788.54 1743.92L2788.54 1746.88 2758.59 1746.88 2758.59 1743.92C2761.59 1743.79 2763.73 1743.6 2765.01 1743.37 2766.3 1743.14 2767.28 1742.8 2767.95 1742.34 2768.63 1741.88 2769.12 1741.23 2769.43 1740.39 2769.74 1739.56 2769.9 1738.19 2769.9 1736.3L2769.9 1703.43C2769.9 1702.35 2769.71 1701.56 2769.33 1701.06 2768.95 1700.56 2768.4 1700.31 2767.67 1700.31 2766.8 1700.31 2765.57 1700.76 2763.98 1701.65 2762.39 1702.54 2760.41 1703.77 2758.06 1705.34L2756.28 1702.22Z" fill-rule="evenodd"/><text fill="#000000" fill-opacity="0" font-family="Arial,Arial_MSFontService,sans-serif" font-size="55.9683" x="2756.28" y="1739.88">1</text><path d="M2841.36 1697.11 2847.11 1697.11 2847.11 1720.46 2869.2 1720.46 2869.2 1725.85 2847.11 1725.85 2847.11 1749.19 2841.36 1749.19 2841.36 1725.85 2819.27 1725.85 2819.27 1720.46 2841.36 1720.46Z" fill-rule="evenodd"/><text fill="#000000" fill-opacity="0" font-family="Arial,Arial_MSFontService,sans-serif" font-size="52.0776" x="2819.27" y="1742.68">+</text><path d="M2921.53 1707.45C2923.39 1707.45 2925.09 1707.57 2926.63 1707.81 2928.17 1708.05 2929.78 1708.53 2931.46 1709.23L2930.04 1712.84C2927.36 1712 2924.62 1711.58 2921.81 1711.58 2918.08 1711.58 2914.83 1712.71 2912.06 1714.96 2909.29 1717.22 2907.29 1720.43 2906.05 1724.59L2926.43 1724.59 2925.54 1728.8 2904.99 1728.8C2904.86 1729.29 2904.71 1730.07 2904.57 1731.15 2904.42 1732.24 2904.34 1733.28 2904.34 1734.28 2904.34 1737.19 2905.07 1739.44 2906.53 1741 2907.99 1742.57 2909.99 1743.35 2912.53 1743.35 2914.75 1743.35 2916.66 1743.2 2918.26 1742.89 2919.87 1742.58 2921.58 1742.08 2923.39 1741.41L2924.32 1744.65C2921.89 1745.62 2919.64 1746.35 2917.58 1746.82 2915.51 1747.29 2913.15 1747.53 2910.5 1747.53 2906.37 1747.53 2903.2 1746.37 2901 1744.04 2898.8 1741.72 2897.7 1738.41 2897.7 1734.11 2897.7 1732.01 2897.97 1729.67 2898.53 1727.1 2899.08 1724.54 2899.99 1722.08 2901.26 1719.73 2902.53 1717.38 2904.15 1715.27 2906.13 1713.4 2908.1 1711.54 2910.39 1710.08 2913 1709.03 2915.6 1707.97 2918.45 1707.45 2921.53 1707.45Z" fill-rule="evenodd"/><text fill="#000000" fill-opacity="0" font-family="Arial,Arial_MSFontService,sans-serif" font-size="40.0815" x="2897.7" y="1742.52">𝜖</text><path d="M3094.16 1668.67C3093.14 1668.67 3092.16 1668.86 3091.22 1669.22 3090.29 1669.59 3089.32 1670.21 3088.31 1671.09 3087.29 1671.96 3086.33 1673.15 3085.41 1674.63 3084.49 1676.12 3083.67 1677.87 3082.94 1679.88 3082.21 1681.89 3081.5 1684.47 3080.83 1687.6L3079.41 1694.13C3079.36 1694.42 3079.3 1694.85 3079.23 1695.4 3079.16 1695.96 3079.13 1696.46 3079.13 1696.92 3079.13 1698.65 3079.84 1699.98 3081.25 1700.91 3082.67 1701.85 3084.56 1702.31 3086.91 1702.31 3089.69 1702.31 3092.16 1701.18 3094.3 1698.93 3096.45 1696.67 3098.12 1693.57 3099.31 1689.61 3100.5 1685.65 3101.09 1681.71 3101.09 1677.79 3101.09 1676.04 3100.91 1674.5 3100.55 1673.19 3100.18 1671.88 3099.48 1670.8 3098.46 1669.95 3097.43 1669.1 3096 1668.67 3094.16 1668.67ZM3095.22 1665.47C3097.84 1665.47 3100.15 1666.01 3102.15 1667.07 3104.15 1668.14 3105.66 1669.69 3106.69 1671.71 3107.71 1673.74 3108.23 1676.23 3108.23 1679.17 3108.23 1683.76 3107.33 1688.12 3105.53 1692.24 3103.73 1696.36 3101.23 1699.6 3098.03 1701.97 3094.83 1704.33 3091.24 1705.51 3087.27 1705.51 3085.44 1705.51 3083.69 1705.35 3082.04 1705.03 3080.4 1704.7 3078.75 1704.15 3077.1 1703.37L3072.89 1722.37 3066.24 1722.37 3074.47 1685.7C3075.44 1681.37 3076.83 1677.75 3078.64 1674.83 3080.45 1671.92 3082.75 1669.63 3085.53 1667.97 3088.31 1666.3 3091.54 1665.47 3095.22 1665.47Z" fill-rule="evenodd"/><text fill="#000000" fill-opacity="0" font-family="Arial,Arial_MSFontService,sans-serif" font-size="56.9004" x="3066.24" y="1715.26">𝜌</text><path d="M3157.6 1686.87 3207.53 1686.87 3207.53 1692.26 3157.6 1692.26ZM3146.9 1686.55C3148.31 1686.55 3149.49 1687.04 3150.43 1688.03 3151.38 1689.01 3151.85 1690.26 3151.85 1691.78 3151.85 1693.29 3151.38 1694.54 3150.43 1695.52 3149.49 1696.51 3148.31 1697 3146.9 1697 3145.53 1697 3144.36 1696.51 3143.42 1695.52 3142.47 1694.54 3142 1693.29 3142 1691.78 3142 1690.26 3142.47 1689.01 3143.42 1688.03 3144.36 1687.04 3145.53 1686.55 3146.9 1686.55ZM3157.6 1670.05 3207.53 1670.05 3207.53 1675.44 3157.6 1675.44ZM3146.9 1665.27C3148.31 1665.27 3149.49 1665.76 3150.43 1666.75 3151.38 1667.74 3151.85 1668.99 3151.85 1670.5 3151.85 1672.01 3151.38 1673.26 3150.43 1674.25 3149.49 1675.23 3148.31 1675.73 3146.9 1675.73 3145.53 1675.73 3144.36 1675.23 3143.42 1674.25 3142.47 1673.26 3142 1672.01 3142 1670.5 3142 1668.99 3142.47 1667.74 3143.42 1666.75 3144.36 1665.76 3145.53 1665.27 3146.9 1665.27Z" fill-rule="evenodd"/><text fill="#000000" fill-opacity="0" font-family="Arial,Arial_MSFontService,sans-serif" font-size="31.7329" x="3142" y="1693.04">≔</text><path d="M3269.83 1603.67 3303.1 1603.67 3301.93 1609.02 3292.28 1609.02 3287.7 1629.33C3287.11 1631.98 3286.81 1633.97 3286.81 1635.33 3286.81 1636.41 3286.99 1637.19 3287.34 1637.68 3287.69 1638.16 3288.24 1638.41 3289 1638.41 3290.62 1638.41 3292.52 1637.11 3294.71 1634.51L3297.06 1636.7C3295.01 1638.95 3293.14 1640.57 3291.45 1641.57 3289.76 1642.57 3287.96 1643.07 3286.04 1643.07 3284.2 1643.07 3282.76 1642.44 3281.7 1641.18 3280.65 1639.93 3280.12 1638.27 3280.12 1636.22 3280.12 1634.41 3280.5 1631.79 3281.26 1628.35L3282.15 1624.26C3282.61 1622.1 3283.26 1619.49 3284.12 1616.44 3284.97 1613.39 3285.7 1611.04 3286.32 1609.39L3286.12 1609.02 3274.21 1609.02 3269.22 1632.08C3268.82 1633.89 3268.34 1635.85 3267.8 1637.94 3267.26 1640.03 3266.84 1641.53 3266.55 1642.42L3257.96 1642.42 3258.36 1640.43C3261.22 1637.59 3263.87 1630.95 3266.3 1620.49L3268.98 1609.02 3267.68 1609.02C3265.76 1609.02 3264.14 1609.35 3262.82 1610 3261.49 1610.64 3260.05 1611.94 3258.48 1613.89L3255.93 1611.74C3257.33 1610.04 3258.48 1608.74 3259.37 1607.85 3260.27 1606.96 3261.2 1606.2 3262.19 1605.58 3263.18 1604.96 3264.28 1604.48 3265.51 1604.16 3266.74 1603.84 3268.18 1603.67 3269.83 1603.67Z" fill-rule="evenodd"/><text fill="#000000" fill-opacity="0" font-family="Arial,Arial_MSFontService,sans-serif" font-size="39.3926" x="3255.93" y="1638.14">𝜋</text><path d="M3336.79 1583.86 3337.88 1586.98C3331.56 1589.06 3326.88 1593.12 3323.84 1599.15 3320.8 1605.19 3319.28 1612.78 3319.28 1621.91 3319.28 1631.37 3320.8 1639.16 3323.84 1645.3 3326.88 1651.43 3331.52 1655.54 3337.76 1657.62L3336.79 1660.74C3328.87 1658.66 3322.8 1654.18 3318.59 1647.3 3314.38 1640.43 3312.27 1632.1 3312.27 1622.32 3312.27 1612.56 3314.38 1604.23 3318.61 1597.33 3322.84 1590.43 3328.9 1585.94 3336.79 1583.86Z" fill-rule="evenodd"/><text fill="#000000" fill-opacity="0" font-family="Arial,Arial_MSFontService,sans-serif" font-size="76.8804" x="3312.27" y="1651.13">(</text><path d="M3365.33 1606.19C3362.54 1606.19 3360.04 1607.31 3357.83 1609.55 3355.61 1611.79 3353.88 1614.8 3352.64 1618.57 3351.4 1622.34 3350.78 1626.1 3350.78 1629.85 3350.78 1632.66 3351.16 1634.76 3351.93 1636.16 3352.7 1637.55 3353.99 1638.24 3355.8 1638.24 3357.58 1638.24 3359.33 1637.47 3361.05 1635.93 3362.77 1634.39 3364.54 1632.2 3366.36 1629.35 3368.18 1626.5 3369.47 1623.21 3370.23 1619.48L3370.59 1617.74C3370.84 1616.63 3371 1615.67 3371.08 1614.86 3371.16 1614.05 3371.2 1613.17 3371.2 1612.22 3371.2 1610.14 3370.76 1608.62 3369.86 1607.65 3368.97 1606.67 3367.46 1606.19 3365.33 1606.19ZM3364.52 1602.98C3366.27 1602.98 3367.91 1603.18 3369.44 1603.57 3370.97 1603.96 3372.54 1604.66 3374.16 1605.66L3377.89 1602.98 3380.48 1603.63 3374.53 1629.33C3373.93 1631.89 3373.63 1633.89 3373.63 1635.33 3373.63 1636.41 3373.81 1637.19 3374.16 1637.68 3374.51 1638.16 3375.07 1638.41 3375.82 1638.41 3376.63 1638.41 3377.5 1638.07 3378.42 1637.41 3379.33 1636.75 3380.63 1635.49 3382.31 1633.62L3384.62 1635.89C3382.19 1638.49 3380.11 1640.33 3378.4 1641.42 3376.68 1642.52 3374.82 1643.07 3372.82 1643.07 3371.15 1643.07 3369.81 1642.51 3368.81 1641.4 3367.81 1640.3 3367.31 1638.82 3367.31 1636.99 3367.31 1635.5 3367.62 1633.92 3368.24 1632.25L3367.72 1632.08C3365.12 1635.87 3362.66 1638.64 3360.34 1640.39 3358.02 1642.15 3355.56 1643.03 3352.96 1643.03 3349.99 1643.03 3347.69 1641.9 3346.05 1639.66 3344.42 1637.42 3343.6 1634.27 3343.6 1630.22 3343.6 1625.57 3344.51 1621.11 3346.34 1616.82 3348.16 1612.54 3350.67 1609.17 3353.86 1606.69 3357.04 1604.22 3360.6 1602.98 3364.52 1602.98Z" fill-rule="evenodd"/><text fill="#000000" fill-opacity="0" font-family="Arial,Arial_MSFontService,sans-serif" font-size="40.0815" x="3343.6" y="1638.06">𝑎</text><path d="M3397.21 1584.42 3403.45 1584.42 3403.45 1659.84 3397.21 1659.84Z" fill-rule="evenodd"/><text fill="#000000" fill-opacity="0" font-family="Arial,Arial_MSFontService,sans-serif" font-size="75.4214" x="3397.21" y="1650.42">|</text><path d="M3436.17 1603.03C3438.68 1603.03 3440.97 1603.17 3443.04 1603.47 3445.1 1603.77 3447.16 1604.28 3449.22 1605.01L3447.39 1613.52 3444.11 1613.52C3443.81 1611.12 3443.02 1609.29 3441.74 1608.05 3440.46 1606.81 3438.44 1606.19 3435.68 1606.19 3433.55 1606.19 3431.82 1606.73 3430.49 1607.83 3429.17 1608.92 3428.51 1610.36 3428.51 1612.14 3428.51 1613.12 3428.68 1613.97 3429.01 1614.72 3429.35 1615.46 3430.03 1616.28 3431.06 1617.17 3432.09 1618.06 3433.68 1619.16 3435.84 1620.45 3437.54 1621.48 3438.91 1622.42 3439.94 1623.27 3440.96 1624.12 3441.77 1624.96 3442.37 1625.8 3442.96 1626.64 3443.39 1627.52 3443.66 1628.46 3443.93 1629.39 3444.07 1630.52 3444.07 1631.84 3444.07 1634.24 3443.43 1636.3 3442.14 1638.02 3440.86 1639.74 3439.12 1641.01 3436.92 1641.85 3434.71 1642.69 3432.21 1643.11 3429.4 1643.11 3427.16 1643.11 3424.95 1642.94 3422.79 1642.6 3420.63 1642.26 3418.23 1641.69 3415.58 1640.88L3417.52 1632.04 3420.68 1632.04C3420.79 1634.64 3421.52 1636.6 3422.87 1637.92 3424.22 1639.24 3426.37 1639.91 3429.32 1639.91 3431.88 1639.91 3433.89 1639.33 3435.34 1638.18 3436.78 1637.03 3437.5 1635.41 3437.5 1633.3 3437.5 1632.08 3437.3 1631.04 3436.9 1630.16 3436.49 1629.28 3435.83 1628.44 3434.91 1627.63 3433.99 1626.81 3432.53 1625.8 3430.53 1624.59 3428.43 1623.32 3426.78 1622.17 3425.61 1621.14 3424.43 1620.11 3423.55 1619 3422.95 1617.8 3422.36 1616.6 3422.06 1615.21 3422.06 1613.64 3422.06 1611.51 3422.64 1609.64 3423.79 1608.03 3424.93 1606.42 3426.57 1605.19 3428.71 1604.32 3430.84 1603.46 3433.33 1603.03 3436.17 1603.03Z" fill-rule="evenodd"/><text fill="#000000" fill-opacity="0" font-family="Arial,Arial_MSFontService,sans-serif" font-size="40.0815" x="3415.58" y="1638.1">𝑠</text><path d="M3456.27 1583.86C3464.16 1585.94 3470.22 1590.43 3474.44 1597.33 3478.67 1604.23 3480.79 1612.56 3480.79 1622.32 3480.79 1632.1 3478.68 1640.43 3474.46 1647.3 3470.25 1654.18 3464.18 1658.66 3456.27 1660.74L3455.29 1657.62C3461.54 1655.54 3466.18 1651.43 3469.22 1645.3 3472.26 1639.16 3473.78 1631.37 3473.78 1621.91 3473.78 1612.78 3472.26 1605.19 3469.24 1599.15 3466.21 1593.12 3461.52 1589.06 3455.17 1586.98Z" fill-rule="evenodd"/><text fill="#000000" fill-opacity="0" font-family="Arial,Arial_MSFontService,sans-serif" font-size="76.8804" x="3455.17" y="1651.13">)</text><path d="M3251.54 1721.3 3284.81 1721.3 3283.64 1726.65 3273.99 1726.65 3269.41 1746.96C3268.82 1749.61 3268.52 1751.61 3268.52 1752.96 3268.52 1754.04 3268.7 1754.82 3269.05 1755.31 3269.4 1755.79 3269.95 1756.04 3270.71 1756.04 3272.33 1756.04 3274.24 1754.74 3276.43 1752.15L3278.78 1754.33C3276.72 1756.58 3274.85 1758.2 3273.16 1759.2 3271.47 1760.2 3269.67 1760.7 3267.75 1760.7 3265.92 1760.7 3264.47 1760.07 3263.42 1758.81 3262.36 1757.56 3261.84 1755.9 3261.84 1753.85 3261.84 1752.04 3262.21 1749.42 3262.97 1745.99L3263.86 1741.89C3264.32 1739.73 3264.98 1737.12 3265.83 1734.07 3266.68 1731.02 3267.42 1728.67 3268.04 1727.02L3267.83 1726.65 3255.92 1726.65 3250.93 1749.71C3250.53 1751.52 3250.06 1753.48 3249.52 1755.57 3248.98 1757.66 3248.56 1759.16 3248.26 1760.05L3239.67 1760.05 3240.07 1758.06C3242.94 1755.23 3245.58 1748.58 3248.02 1738.12L3250.69 1726.65 3249.39 1726.65C3247.48 1726.65 3245.85 1726.98 3244.53 1727.63 3243.21 1728.28 3241.76 1729.57 3240.19 1731.52L3237.64 1729.37C3239.05 1727.67 3240.19 1726.37 3241.09 1725.48 3241.98 1724.59 3242.92 1723.83 3243.9 1723.21 3244.89 1722.59 3246 1722.12 3247.23 1721.79 3248.46 1721.47 3249.89 1721.3 3251.54 1721.3Z" fill-rule="evenodd"/><text fill="#000000" fill-opacity="0" font-family="Arial,Arial_MSFontService,sans-serif" font-size="39.3926" x="3237.64" y="1755.77">𝜋</text><path d="M3302.29 1741.8C3300.93 1741.8 3299.78 1742.15 3298.87 1742.86 3297.95 1743.58 3297.22 1744.62 3296.68 1746 3296.15 1747.38 3295.77 1749.06 3295.54 1751.04 3295.32 1753.02 3295.2 1755.27 3295.2 1757.79 3295.2 1760.7 3295.35 1763.22 3295.63 1765.34 3295.91 1767.45 3296.35 1769.2 3296.95 1770.56 3297.54 1771.93 3298.29 1772.94 3299.19 1773.58 3300.09 1774.23 3301.16 1774.55 3302.41 1774.55 3303.58 1774.55 3304.61 1774.25 3305.49 1773.64 3306.37 1773.04 3307.09 1772.09 3307.67 1770.81 3308.25 1769.53 3308.68 1767.91 3308.97 1765.95 3309.27 1763.99 3309.41 1761.67 3309.41 1758.99 3309.41 1755.98 3309.25 1753.4 3308.93 1751.23 3308.61 1749.06 3308.15 1747.28 3307.57 1745.88 3306.98 1744.49 3306.24 1743.46 3305.36 1742.79 3304.47 1742.13 3303.45 1741.8 3302.29 1741.8ZM3302.41 1738.95C3304.74 1738.95 3306.72 1739.39 3308.37 1740.26 3310.02 1741.13 3311.37 1742.37 3312.42 1743.98 3313.46 1745.59 3314.23 1747.56 3314.72 1749.88 3315.2 1752.21 3315.45 1754.83 3315.45 1757.76 3315.45 1764.27 3314.3 1769.18 3311.99 1772.51 3309.69 1775.84 3306.35 1777.51 3301.97 1777.51 3297.64 1777.51 3294.41 1775.94 3292.3 1772.79 3290.19 1769.65 3289.14 1764.88 3289.14 1758.49 3289.14 1755.15 3289.47 1752.26 3290.12 1749.82 3290.78 1747.38 3291.69 1745.35 3292.87 1743.74 3294.06 1742.13 3295.46 1740.93 3297.08 1740.14 3298.7 1739.35 3300.48 1738.95 3302.41 1738.95Z" fill-rule="evenodd"/><text fill="#000000" fill-opacity="0" font-family="Arial,Arial_MSFontService,sans-serif" font-size="38.5547" x="3289.14" y="1772.69">0</text><path d="M3355.1 1701.49 3356.19 1704.61C3349.87 1706.69 3345.19 1710.75 3342.15 1716.79 3339.11 1722.82 3337.59 1730.41 3337.59 1739.54 3337.59 1749 3339.11 1756.79 3342.15 1762.93 3345.19 1769.06 3349.83 1773.17 3356.07 1775.25L3355.1 1778.37C3347.18 1776.29 3341.12 1771.81 3336.9 1764.93 3332.69 1758.06 3330.58 1749.73 3330.58 1739.95 3330.58 1730.19 3332.69 1721.87 3336.92 1714.96 3341.15 1708.06 3347.21 1703.57 3355.1 1701.49Z" fill-rule="evenodd"/><text fill="#000000" fill-opacity="0" font-family="Arial,Arial_MSFontService,sans-serif" font-size="76.8804" x="3330.58" y="1768.76">(</text><path d="M3383.64 1723.82C3380.85 1723.82 3378.35 1724.94 3376.14 1727.18 3373.92 1729.42 3372.19 1732.43 3370.95 1736.2 3369.71 1739.97 3369.09 1743.73 3369.09 1747.49 3369.09 1750.3 3369.47 1752.4 3370.24 1753.79 3371.01 1755.18 3372.3 1755.87 3374.11 1755.87 3375.9 1755.87 3377.65 1755.1 3379.36 1753.56 3381.08 1752.02 3382.85 1749.83 3384.67 1746.98 3386.49 1744.13 3387.78 1740.84 3388.54 1737.11L3388.9 1735.37C3389.15 1734.26 3389.31 1733.3 3389.39 1732.49 3389.47 1731.68 3389.51 1730.8 3389.51 1729.86 3389.51 1727.78 3389.07 1726.25 3388.18 1725.28 3387.28 1724.3 3385.77 1723.82 3383.64 1723.82ZM3382.83 1720.62C3384.58 1720.62 3386.22 1720.81 3387.75 1721.2 3389.28 1721.6 3390.85 1722.29 3392.47 1723.29L3396.2 1720.62 3398.79 1721.26 3392.84 1746.96C3392.24 1749.53 3391.94 1751.52 3391.94 1752.96 3391.94 1754.04 3392.12 1754.82 3392.47 1755.31 3392.82 1755.79 3393.38 1756.04 3394.13 1756.04 3394.94 1756.04 3395.81 1755.71 3396.73 1755.04 3397.65 1754.38 3398.94 1753.12 3400.62 1751.25L3402.93 1753.52C3400.5 1756.12 3398.42 1757.96 3396.71 1759.06 3394.99 1760.15 3393.13 1760.7 3391.13 1760.7 3389.46 1760.7 3388.12 1760.14 3387.12 1759.04 3386.12 1757.93 3385.62 1756.46 3385.62 1754.62 3385.62 1753.13 3385.93 1751.55 3386.55 1749.88L3386.03 1749.71C3383.43 1753.5 3380.97 1756.27 3378.65 1758.02 3376.33 1759.78 3373.87 1760.66 3371.28 1760.66 3368.3 1760.66 3366 1759.54 3364.37 1757.29 3362.73 1755.05 3361.91 1751.9 3361.91 1747.85 3361.91 1743.2 3362.83 1738.74 3364.65 1734.46 3366.47 1730.17 3368.98 1726.8 3372.17 1724.32 3375.36 1721.85 3378.91 1720.62 3382.83 1720.62Z" fill-rule="evenodd"/><text fill="#000000" fill-opacity="0" font-family="Arial,Arial_MSFontService,sans-serif" font-size="40.0815" x="3361.91" y="1755.69">𝑎</text><path d="M3415.52 1702.05 3421.76 1702.05 3421.76 1777.48 3415.52 1777.48Z" fill-rule="evenodd"/><text fill="#000000" fill-opacity="0" font-family="Arial,Arial_MSFontService,sans-serif" font-size="75.4214" x="3415.52" y="1768.05">|</text><path d="M3454.48 1720.66C3456.99 1720.66 3459.28 1720.8 3461.35 1721.1 3463.41 1721.4 3465.47 1721.91 3467.53 1722.64L3465.7 1731.15 3462.42 1731.15C3462.12 1728.75 3461.33 1726.92 3460.05 1725.68 3458.77 1724.44 3456.75 1723.82 3453.99 1723.82 3451.86 1723.82 3450.13 1724.36 3448.8 1725.46 3447.48 1726.55 3446.82 1727.99 3446.82 1729.78 3446.82 1730.75 3446.99 1731.61 3447.32 1732.35 3447.66 1733.09 3448.34 1733.91 3449.37 1734.8 3450.4 1735.69 3451.99 1736.79 3454.15 1738.08 3455.85 1739.11 3457.22 1740.05 3458.25 1740.9 3459.27 1741.75 3460.08 1742.6 3460.68 1743.43 3461.27 1744.27 3461.7 1745.16 3461.97 1746.09 3462.24 1747.02 3462.38 1748.15 3462.38 1749.47 3462.38 1751.88 3461.74 1753.94 3460.45 1755.65 3459.17 1757.37 3457.43 1758.64 3455.23 1759.48 3453.02 1760.32 3450.52 1760.74 3447.71 1760.74 3445.47 1760.74 3443.26 1760.57 3441.1 1760.23 3438.94 1759.89 3436.54 1759.32 3433.89 1758.51L3435.83 1749.67 3439 1749.67C3439.1 1752.27 3439.83 1754.23 3441.18 1755.55 3442.53 1756.87 3444.68 1757.54 3447.63 1757.54 3450.19 1757.54 3452.2 1756.96 3453.65 1755.81 3455.09 1754.67 3455.81 1753.04 3455.81 1750.93 3455.81 1749.71 3455.61 1748.67 3455.21 1747.79 3454.8 1746.91 3454.14 1746.07 3453.22 1745.26 3452.3 1744.45 3450.84 1743.43 3448.84 1742.22 3446.74 1740.95 3445.09 1739.8 3443.92 1738.77 3442.74 1737.75 3441.86 1736.63 3441.26 1735.43 3440.67 1734.23 3440.37 1732.84 3440.37 1731.27 3440.37 1729.14 3440.95 1727.27 3442.1 1725.66 3443.24 1724.05 3444.89 1722.82 3447.02 1721.95 3449.15 1721.09 3451.64 1720.66 3454.48 1720.66Z" fill-rule="evenodd"/><text fill="#000000" fill-opacity="0" font-family="Arial,Arial_MSFontService,sans-serif" font-size="40.0815" x="3433.89" y="1755.73">𝑠</text><path d="M3474.58 1701.49C3482.47 1703.57 3488.53 1708.06 3492.75 1714.96 3496.98 1721.87 3499.1 1730.19 3499.1 1739.95 3499.1 1749.73 3496.99 1758.06 3492.77 1764.93 3488.56 1771.81 3482.49 1776.29 3474.58 1778.37L3473.61 1775.25C3479.85 1773.17 3484.49 1769.06 3487.53 1762.93 3490.57 1756.79 3492.09 1749 3492.09 1739.54 3492.09 1730.41 3490.57 1722.82 3487.55 1716.79 3484.52 1710.75 3479.83 1706.69 3473.48 1704.61Z" fill-rule="evenodd"/><text fill="#000000" fill-opacity="0" font-family="Arial,Arial_MSFontService,sans-serif" font-size="76.8804" x="3473.48" y="1768.76">)</text><path d="M3236.39 1678.86 3326.39 1678.86 3416.39 1678.86 3506.39 1678.86 3506.39 1683.86 3416.39 1683.86 3326.39 1683.86 3236.39 1683.86Z" fill-rule="evenodd"/><path d="M2394.06 1653.58 2393 1027" stroke="#8ED973" stroke-width="10.3125" stroke-miterlimit="8" stroke-dasharray="41.25 30.9375" fill="none" fill-rule="evenodd"/><path d="M0 0 0.000360892 626.579" stroke="#8ED973" stroke-width="10.3125" stroke-miterlimit="8" stroke-dasharray="41.25 30.9375" fill="none" fill-rule="evenodd" transform="matrix(1 0 0 -1 2906 1653.58)"/><path d="M2626.5 1597.5C2626.5 1584.25 2637.47 1573.5 2651 1573.5 2664.53 1573.5 2675.5 1584.25 2675.5 1597.5 2675.5 1610.75 2664.53 1621.5 2651 1621.5 2637.47 1621.5 2626.5 1610.75 2626.5 1597.5Z" stroke="#042433" stroke-width="6.875" stroke-miterlimit="8" fill-rule="evenodd"/><path d="M2485.78 1341.84 2816.32 1341.84 2816.32 1352.16 2485.78 1352.16ZM2490.94 1362.47 2460 1347 2490.94 1331.53ZM2811.16 1331.53 2842.1 1347 2811.16 1362.47Z" fill="#4E95D9"/></g></svg>