<svg width="2548" height="802" xmlns="http://www.w3.org/2000/svg" xmlns:xlink="http://www.w3.org/1999/xlink" xml:space="preserve" overflow="hidden"><g transform="translate(-803 -911)"><path d="M803.5 1523.06 1990.58 1523.06 1990.58 1529.94 803.5 1529.94ZM1986 1512.75 2013.5 1526.5 1986 1540.25Z"/><path d="M3.4375-2.16882e-06 3.43785 549.083-3.43715 549.083-3.4375 2.16882e-06ZM13.7503 544.5 0.000360892 572-13.7497 544.5Z" transform="matrix(1 0 0 -1 896.5 1618.5)"/><path d="M1992.17 1571.27C1989.09 1571.27 1986.32 1572.51 1983.86 1575 1981.41 1577.48 1979.49 1580.81 1978.11 1584.99 1976.73 1589.17 1976.05 1593.34 1976.05 1597.5 1976.05 1600.62 1976.47 1602.94 1977.33 1604.49 1978.18 1606.03 1979.61 1606.8 1981.62 1606.8 1983.59 1606.8 1985.53 1605.95 1987.43 1604.24 1989.33 1602.53 1991.3 1600.1 1993.32 1596.94 1995.34 1593.78 1996.77 1590.13 1997.61 1586L1998.01 1584.07C1998.28 1582.84 1998.46 1581.78 1998.55 1580.88 1998.64 1579.98 1998.69 1579.01 1998.69 1577.96 1998.69 1575.65 1998.19 1573.96 1997.2 1572.88 1996.22 1571.81 1994.54 1571.27 1992.17 1571.27ZM1991.27 1567.72C1993.22 1567.72 1995.04 1567.94 1996.73 1568.37 1998.42 1568.8 2000.17 1569.58 2001.97 1570.68L2006.1 1567.72 2008.97 1568.44 2002.37 1596.92C2001.71 1599.76 2001.38 1601.98 2001.38 1603.57 2001.38 1604.76 2001.58 1605.63 2001.97 1606.17 2002.35 1606.71 2002.97 1606.98 2003.81 1606.98 2004.71 1606.98 2005.66 1606.61 2006.68 1605.88 2007.7 1605.15 2009.14 1603.75 2010.99 1601.68L2013.56 1604.2C2010.86 1607.07 2008.56 1609.11 2006.66 1610.33 2004.76 1611.54 2002.7 1612.15 2000.48 1612.15 1998.63 1612.15 1997.14 1611.53 1996.04 1610.3 1994.93 1609.08 1994.37 1607.44 1994.37 1605.41 1994.37 1603.76 1994.72 1602.01 1995.41 1600.15L1994.82 1599.97C1991.95 1604.17 1989.22 1607.23 1986.65 1609.18 1984.07 1611.13 1981.35 1612.1 1978.47 1612.1 1975.18 1612.1 1972.62 1610.86 1970.81 1608.37 1969 1605.89 1968.09 1602.4 1968.09 1597.91 1968.09 1592.76 1969.11 1587.81 1971.13 1583.06 1973.15 1578.31 1975.93 1574.57 1979.46 1571.83 1982.99 1569.09 1986.93 1567.72 1991.27 1567.72Z" fill-rule="evenodd"/><text fill="#000000" fill-opacity="0" font-family="Arial,Arial_MSFontService,sans-serif" font-size="44.4277" x="1968.09" y="1606.59">𝑎</text><path d="M878.311 952.596 915.192 952.596 913.889 958.525 903.198 958.525 898.121 981.031C897.463 983.966 897.133 986.182 897.133 987.68 897.133 988.878 897.328 989.746 897.717 990.285 898.107 990.824 898.72 991.094 899.559 991.094 901.356 991.094 903.467 989.656 905.893 986.781L908.498 989.207C906.222 991.693 904.148 993.489 902.277 994.598 900.405 995.706 898.406 996.26 896.28 996.26 894.243 996.26 892.641 995.563 891.473 994.171 890.305 992.778 889.721 990.944 889.721 988.668 889.721 986.661 890.14 983.756 890.979 979.953L891.967 975.416C892.476 973.02 893.203 970.13 894.146 966.746 895.089 963.362 895.905 960.756 896.594 958.93L896.37 958.525 883.162 958.525 877.637 984.086C877.188 986.092 876.664 988.256 876.065 990.577 875.466 992.898 875.002 994.553 874.672 995.541L865.149 995.541 865.598 993.34C868.773 990.195 871.707 982.828 874.403 971.238L877.368 958.525 875.93 958.525C873.804 958.525 872.007 958.885 870.539 959.603 869.072 960.322 867.47 961.76 865.733 963.916L862.903 961.535C864.46 959.648 865.733 958.211 866.721 957.223 867.709 956.234 868.75 955.396 869.843 954.707 870.936 954.018 872.164 953.494 873.527 953.135 874.889 952.775 876.484 952.596 878.311 952.596Z" fill-rule="evenodd"/><text fill="#000000" fill-opacity="0" font-family="Arial,Arial_MSFontService,sans-serif" font-size="43.6641" x="862.903" y="990.802">𝜋</text><path d="M952.992 930.629 954.205 934.088C947.197 936.394 942.009 940.893 938.639 947.587 935.27 954.28 933.586 962.688 933.586 972.81 933.586 983.292 935.27 991.932 938.639 998.73 942.009 1005.53 947.152 1010.08 954.07 1012.39L952.992 1015.85C944.217 1013.54 937.494 1008.58 932.822 1000.95 928.15 993.332 925.814 984.101 925.814 973.26 925.814 962.448 928.158 953.217 932.845 945.565 937.531 937.914 944.247 932.935 952.992 930.629Z" fill-rule="evenodd"/><text fill="#000000" fill-opacity="0" font-family="Arial,Arial_MSFontService,sans-serif" font-size="85.2168" x="925.814" y="1005.19">(</text><path d="M984.336 955.381C981.251 955.381 978.481 956.624 976.025 959.109 973.569 961.595 971.653 964.927 970.275 969.104 968.898 973.282 968.209 977.452 968.209 981.615 968.209 984.73 968.636 987.058 969.489 988.6 970.343 990.143 971.773 990.914 973.779 990.914 975.756 990.914 977.695 990.06 979.596 988.353 981.498 986.646 983.46 984.213 985.481 981.054 987.503 977.894 988.933 974.248 989.771 970.115L990.176 968.183C990.445 966.956 990.625 965.892 990.715 964.994 990.805 964.096 990.849 963.122 990.849 962.074 990.849 959.768 990.355 958.076 989.367 956.998 988.379 955.92 986.702 955.381 984.336 955.381ZM983.437 951.832C985.384 951.832 987.203 952.049 988.895 952.483 990.587 952.918 992.332 953.689 994.129 954.797L998.262 951.832 1001.14 952.551 994.533 981.031C993.874 983.876 993.545 986.092 993.545 987.68 993.545 988.878 993.739 989.746 994.129 990.285 994.518 990.824 995.132 991.094 995.971 991.094 996.869 991.094 997.827 990.727 998.846 989.993 999.864 989.259 1001.3 987.859 1003.16 985.793L1005.72 988.308C1003.02 991.183 1000.72 993.227 998.823 994.44 996.921 995.653 994.862 996.26 992.646 996.26 990.79 996.26 989.307 995.646 988.199 994.418 987.091 993.19 986.537 991.558 986.537 989.521 986.537 987.874 986.881 986.122 987.57 984.266L986.986 984.086C984.111 988.279 981.386 991.348 978.81 993.295 976.235 995.241 973.51 996.215 970.635 996.215 967.34 996.215 964.787 994.972 962.975 992.486 961.164 990.001 960.258 986.512 960.258 982.019 960.258 976.868 961.268 971.919 963.29 967.173 965.311 962.426 968.089 958.682 971.623 955.942 975.157 953.202 979.095 951.832 983.437 951.832Z" fill-rule="evenodd"/><text fill="#000000" fill-opacity="0" font-family="Arial,Arial_MSFontService,sans-serif" font-size="44.4277" x="960.258" y="990.706">𝑎</text><path d="M1019.87 931.258 1026.79 931.258 1026.79 1014.86 1019.87 1014.86Z" fill-rule="evenodd"/><text fill="#000000" fill-opacity="0" font-family="Arial,Arial_MSFontService,sans-serif" font-size="83.5996" x="1019.87" y="1004.41">|</text><path d="M1063.06 951.877C1065.85 951.877 1068.38 952.042 1070.68 952.371 1072.97 952.7 1075.25 953.269 1077.53 954.078L1075.5 963.512 1071.87 963.512C1071.54 960.846 1070.66 958.825 1069.24 957.447 1067.82 956.07 1065.58 955.381 1062.52 955.381 1060.16 955.381 1058.24 955.987 1056.77 957.2 1055.3 958.413 1054.57 960.008 1054.57 961.984 1054.57 963.062 1054.76 964.013 1055.13 964.837 1055.51 965.66 1056.26 966.566 1057.4 967.555 1058.54 968.543 1060.31 969.756 1062.7 971.193 1064.59 972.331 1066.1 973.372 1067.24 974.315 1068.38 975.259 1069.28 976.195 1069.93 977.123 1070.59 978.051 1071.07 979.032 1071.37 980.065 1071.67 981.099 1071.82 982.349 1071.82 983.816 1071.82 986.482 1071.11 988.765 1069.69 990.667 1068.26 992.569 1066.33 993.984 1063.89 994.912 1061.45 995.84 1058.67 996.305 1055.56 996.305 1053.07 996.305 1050.63 996.117 1048.24 995.743 1045.84 995.369 1043.18 994.732 1040.24 993.834L1042.4 984.041 1045.9 984.041C1046.02 986.916 1046.83 989.087 1048.33 990.555 1049.82 992.022 1052.21 992.756 1055.47 992.756 1058.31 992.756 1060.54 992.119 1062.14 990.847 1063.74 989.574 1064.54 987.769 1064.54 985.433 1064.54 984.086 1064.32 982.925 1063.87 981.952 1063.42 980.979 1062.69 980.043 1061.67 979.144 1060.65 978.246 1059.03 977.123 1056.82 975.775 1054.48 974.368 1052.66 973.095 1051.36 971.957 1050.06 970.819 1049.08 969.584 1048.42 968.251 1047.76 966.918 1047.43 965.383 1047.43 963.646 1047.43 961.28 1048.06 959.207 1049.34 957.425 1050.61 955.643 1052.43 954.273 1054.8 953.314 1057.16 952.356 1059.92 951.877 1063.06 951.877Z" fill-rule="evenodd"/><text fill="#000000" fill-opacity="0" font-family="Arial,Arial_MSFontService,sans-serif" font-size="44.4277" x="1040.24" y="990.751">𝑠</text><path d="M1085.19 930.629C1093.93 932.935 1100.65 937.914 1105.34 945.565 1110.02 953.217 1112.37 962.448 1112.37 973.26 1112.37 984.101 1110.03 993.332 1105.36 1000.95 1100.69 1008.58 1093.96 1013.54 1085.19 1015.85L1084.11 1012.39C1091.03 1010.08 1096.17 1005.53 1099.54 998.73 1102.91 991.932 1104.6 983.292 1104.6 972.81 1104.6 962.688 1102.92 954.28 1099.56 947.587 1096.21 940.893 1091.01 936.394 1083.98 934.088Z" fill-rule="evenodd"/><text fill="#000000" fill-opacity="0" font-family="Arial,Arial_MSFontService,sans-serif" font-size="85.2168" x="1083.98" y="1005.19">)</text><path d="M1955.37 1032.91 1992.25 1032.91 1990.94 1038.84 1980.25 1038.84 1975.18 1061.34C1974.52 1064.28 1974.19 1066.5 1974.19 1067.99 1974.19 1069.19 1974.38 1070.06 1974.77 1070.6 1975.16 1071.14 1975.77 1071.41 1976.61 1071.41 1978.41 1071.41 1980.52 1069.97 1982.95 1067.09L1985.55 1069.52C1983.28 1072.01 1981.2 1073.8 1979.33 1074.91 1977.46 1076.02 1975.46 1076.57 1973.33 1076.57 1971.3 1076.57 1969.7 1075.88 1968.53 1074.48 1967.36 1073.09 1966.78 1071.26 1966.78 1068.98 1966.78 1066.97 1967.19 1064.07 1968.03 1060.27L1969.02 1055.73C1969.53 1053.33 1970.26 1050.44 1971.2 1047.06 1972.14 1043.67 1972.96 1041.07 1973.65 1039.24L1973.42 1038.84 1960.22 1038.84 1954.69 1064.4C1954.24 1066.41 1953.72 1068.57 1953.12 1070.89 1952.52 1073.21 1952.06 1074.87 1951.73 1075.85L1942.2 1075.85 1942.65 1073.65C1945.83 1070.51 1948.76 1063.14 1951.46 1051.55L1954.42 1038.84 1952.98 1038.84C1950.86 1038.84 1949.06 1039.2 1947.59 1039.92 1946.13 1040.64 1944.52 1042.07 1942.79 1044.23L1939.96 1041.85C1941.51 1039.96 1942.79 1038.52 1943.78 1037.54 1944.76 1036.55 1945.8 1035.71 1946.9 1035.02 1947.99 1034.33 1949.22 1033.81 1950.58 1033.45 1951.94 1033.09 1953.54 1032.91 1955.37 1032.91Z" fill-rule="evenodd"/><text fill="#000000" fill-opacity="0" font-family="Arial,Arial_MSFontService,sans-serif" font-size="43.6641" x="1939.96" y="1071.11">𝜋</text><path d="M2012.21 1055.36C2010.69 1055.36 2009.41 1055.76 2008.38 1056.56 2007.36 1057.35 2006.55 1058.52 2005.95 1060.06 2005.35 1061.59 2004.92 1063.47 2004.67 1065.68 2004.42 1067.9 2004.29 1070.41 2004.29 1073.22 2004.29 1076.47 2004.45 1079.28 2004.77 1081.65 2005.09 1084.01 2005.58 1085.96 2006.24 1087.49 2006.91 1089.01 2007.74 1090.14 2008.74 1090.86 2009.75 1091.58 2010.95 1091.94 2012.34 1091.94 2013.65 1091.94 2014.8 1091.6 2015.78 1090.92 2016.76 1090.25 2017.57 1089.19 2018.21 1087.77 2018.86 1086.34 2019.34 1084.53 2019.67 1082.33 2020 1080.14 2020.16 1077.55 2020.16 1074.57 2020.16 1071.21 2019.98 1068.32 2019.62 1065.9 2019.26 1063.47 2018.75 1061.48 2018.1 1059.93 2017.45 1058.37 2016.62 1057.22 2015.63 1056.47 2014.64 1055.73 2013.5 1055.36 2012.21 1055.36ZM2012.34 1052.19C2014.94 1052.19 2017.16 1052.67 2019 1053.64 2020.84 1054.61 2022.35 1056 2023.51 1057.8 2024.68 1059.6 2025.54 1061.8 2026.08 1064.39 2026.63 1066.99 2026.9 1069.92 2026.9 1073.19 2026.9 1080.45 2025.61 1085.94 2023.04 1089.66 2020.47 1093.38 2016.74 1095.24 2011.85 1095.24 2007.01 1095.24 2003.41 1093.49 2001.06 1089.97 1998.7 1086.46 1997.52 1081.14 1997.52 1074.01 1997.52 1070.28 1997.89 1067.05 1998.62 1064.33 1999.35 1061.6 2000.37 1059.34 2001.69 1057.54 2003.01 1055.74 2004.58 1054.4 2006.39 1053.51 2008.2 1052.63 2010.18 1052.19 2012.34 1052.19Z" fill-rule="evenodd"/><text fill="#000000" fill-opacity="0" font-family="Arial,Arial_MSFontService,sans-serif" font-size="43.0527" x="1997.52" y="1089.86">0</text><path d="M1814 1051 1891.14 1051" stroke="#4E95D9" stroke-width="13.75" stroke-miterlimit="8" fill="none" fill-rule="evenodd"/><path d="M1814 1154 1891.14 1154" stroke="#3B7D23" stroke-width="13.75" stroke-miterlimit="8" fill="none" fill-rule="evenodd"/><path d="M1966.75 1140.02 2003.63 1140.02 2002.33 1145.95 1991.64 1145.95 1986.56 1168.45C1985.9 1171.39 1985.57 1173.61 1985.57 1175.1 1985.57 1176.3 1985.77 1177.17 1986.16 1177.71 1986.55 1178.25 1987.16 1178.52 1988 1178.52 1989.8 1178.52 1991.91 1177.08 1994.33 1174.2L1996.94 1176.63C1994.66 1179.12 1992.59 1180.91 1990.72 1182.02 1988.85 1183.13 1986.85 1183.68 1984.72 1183.68 1982.68 1183.68 1981.08 1182.99 1979.91 1181.59 1978.75 1180.2 1978.16 1178.37 1978.16 1176.09 1978.16 1174.09 1978.58 1171.18 1979.42 1167.38L1980.41 1162.84C1980.92 1160.44 1981.64 1157.55 1982.59 1154.17 1983.53 1150.79 1984.35 1148.18 1985.03 1146.35L1984.81 1145.95 1971.6 1145.95 1966.08 1171.51C1965.63 1173.52 1965.1 1175.68 1964.51 1178 1963.91 1180.32 1963.44 1181.98 1963.11 1182.96L1953.59 1182.96 1954.04 1180.76C1957.21 1177.62 1960.15 1170.25 1962.84 1158.66L1965.81 1145.95 1964.37 1145.95C1962.24 1145.95 1960.45 1146.31 1958.98 1147.03 1957.51 1147.75 1955.91 1149.18 1954.17 1151.34L1951.34 1148.96C1952.9 1147.07 1954.17 1145.63 1955.16 1144.65 1956.15 1143.66 1957.19 1142.82 1958.28 1142.13 1959.38 1141.44 1960.6 1140.92 1961.97 1140.56 1963.33 1140.2 1964.92 1140.02 1966.75 1140.02Z" fill-rule="evenodd"/><text fill="#000000" fill-opacity="0" font-family="Arial,Arial_MSFontService,sans-serif" font-size="43.6641" x="1951.34" y="1178.23">𝜋</text><path d="M2023.34 1117.89 2027.66 1117.89 2026.71 1128.13 2035.12 1122.21 2037.25 1125.87 2027.92 1130.22 2037.25 1134.6 2035.12 1138.24 2026.71 1132.31 2027.66 1142.55 2023.34 1142.55 2024.32 1132.31 2015.88 1138.24 2013.72 1134.6 2023.08 1130.22 2013.72 1125.87 2015.88 1122.21 2024.32 1128.13Z" fill-rule="evenodd"/><text fill="#000000" fill-opacity="0" font-family="Arial,Arial_MSFontService,sans-serif" font-size="24.667" x="2013.72" y="1139.47">∗</text><path d="M929 1484C987.871 1450.21 1046.74 1416.41 1099.4 1362.07 1152.06 1307.74 1183.42 1203.48 1244.95 1157.98 1306.48 1112.48 1394.27 1090.6 1468.6 1089.07 1542.93 1087.54 1629.37 1112.29 1690.9 1158.67 1752.43 1205.05 1786.92 1308.18 1837.8 1367.38 1888.68 1426.57 1941.34 1451.31 1994 1476.05" stroke="#4E95D9" stroke-width="10.3125" stroke-miterlimit="8" fill="none" fill-rule="evenodd"/><path d="M927 1486C985.871 1463.33 1044.74 1440.66 1097.4 1404.2 1150.06 1367.75 1181.42 1297.8 1242.95 1267.28 1304.48 1236.75 1392.27 1222.07 1466.6 1221.04 1540.93 1220.02 1627.37 1236.62 1688.9 1267.74 1750.43 1298.86 1784.92 1368.04 1835.8 1407.76 1886.68 1447.47 1939.34 1464.07 1992 1480.67" stroke="#8ED973" stroke-width="10.3125" stroke-miterlimit="8" stroke-dasharray="41.25 30.9375" fill="none" fill-rule="evenodd"/><path d="M929 1484C987.816 1437.29 1046.63 1390.57 1099.24 1315.46 1151.85 1240.36 1183.18 1096.25 1244.65 1033.35 1306.13 970.456 1393.84 940.205 1468.09 938.092 1542.35 935.979 1628.71 970.187 1690.19 1034.3 1751.66 1098.42 1786.11 1240.97 1836.95 1322.79 1887.78 1404.62 1940.39 1438.81 1993 1473.01" stroke="#8ED973" stroke-width="10.3125" stroke-miterlimit="8" stroke-dasharray="41.25 30.9375" fill="none" fill-rule="evenodd"/><path d="M1467.5 1094.5 1467.5 1524.22" stroke="#000000" stroke-width="6.875" stroke-miterlimit="8" stroke-dasharray="27.5 20.625" fill="none" fill-rule="evenodd"/><path d="M1608.62 1584.74 1594.2 1610.27 1610.04 1610.27 1609.35 1597.22C1609.27 1595.44 1609.21 1593.21 1609.15 1590.53 1609.1 1587.86 1609.07 1585.93 1609.07 1584.74ZM1608.87 1576.19 1614.99 1576.19 1617.9 1621.37C1618.04 1623.51 1618.28 1625.18 1618.63 1626.38 1618.99 1627.58 1619.47 1628.47 1620.07 1629.05 1620.68 1629.64 1621.57 1630.01 1622.73 1630.17L1622.28 1632.15 1605.42 1632.15 1605.87 1630.17C1607.46 1630.03 1608.65 1629.41 1609.43 1628.3 1610.22 1627.2 1610.61 1625.25 1610.61 1622.47 1610.61 1621.42 1610.57 1620.27 1610.49 1619.02L1610.2 1613.8 1592.37 1613.8 1590.14 1617.77C1589.09 1619.63 1588.32 1621.23 1587.83 1622.57 1587.35 1623.91 1587.1 1625.09 1587.1 1626.12 1587.1 1628.39 1588.47 1629.74 1591.2 1630.17L1590.75 1632.15 1574.18 1632.15 1574.62 1630.17C1575.46 1630.06 1576.25 1629.73 1576.99 1629.18 1577.74 1628.62 1578.53 1627.78 1579.36 1626.66 1580.2 1625.54 1581.38 1623.68 1582.89 1621.09Z" fill-rule="evenodd"/><text fill="#000000" fill-opacity="0" font-family="Arial,Arial_MSFontService,sans-serif" font-size="55.9683" x="1574.18" y="1625.16">𝐴</text><path d="M1621.61 1561.21 1624.77 1562.59C1623.74 1564.58 1622.76 1566.12 1621.83 1567.19 1620.9 1568.25 1620.01 1568.99 1619.16 1569.39 1618.31 1569.8 1617.34 1570 1616.26 1570 1615.53 1570 1614.89 1569.95 1614.35 1569.84 1613.81 1569.73 1613.28 1569.58 1612.75 1569.37 1612.23 1569.17 1611.41 1568.79 1610.3 1568.22 1609.57 1567.87 1609 1567.59 1608.58 1567.39 1608.16 1567.19 1607.72 1567.02 1607.26 1566.9 1606.8 1566.78 1606.32 1566.72 1605.8 1566.72 1605.1 1566.72 1604.51 1566.82 1604.04 1567.02 1603.57 1567.23 1603.09 1567.57 1602.6 1568.06 1602.11 1568.54 1601.6 1569.23 1601.06 1570.12L1597.94 1568.79C1599.24 1566.52 1600.29 1564.94 1601.1 1564.06 1601.91 1563.19 1602.74 1562.55 1603.59 1562.16 1604.44 1561.77 1605.46 1561.57 1606.65 1561.57 1607.3 1561.57 1607.89 1561.63 1608.42 1561.73 1608.94 1561.84 1609.43 1561.98 1609.88 1562.16 1610.32 1562.34 1611.08 1562.69 1612.17 1563.23 1612.95 1563.61 1613.57 1563.92 1614.03 1564.15 1614.49 1564.38 1614.96 1564.55 1615.45 1564.67 1615.93 1564.79 1616.49 1564.85 1617.11 1564.85 1617.97 1564.85 1618.74 1564.6 1619.42 1564.08 1620.1 1563.57 1620.82 1562.61 1621.61 1561.21Z" fill-rule="evenodd"/><text fill="#000000" fill-opacity="0" font-family="Arial,Arial_MSFontService,sans-serif" font-size="8.91602" x="1597.94" y="1569.01">ሚ</text><path d="M1639.9 1619.7 1665.86 1619.7 1664.95 1624.24 1657.37 1624.24 1653.91 1639.42C1653.69 1640.3 1653.53 1641.08 1653.43 1641.76 1653.32 1642.45 1653.26 1643.04 1653.26 1643.55 1653.26 1644.17 1653.4 1644.67 1653.66 1645.04 1653.92 1645.41 1654.4 1645.6 1655.08 1645.6 1655.82 1645.6 1656.57 1645.31 1657.34 1644.72 1658.1 1644.14 1658.96 1643.31 1659.91 1642.23L1661.94 1644.14C1661.02 1645.13 1660.16 1645.97 1659.36 1646.65 1658.56 1647.34 1657.79 1647.89 1657.06 1648.31 1656.33 1648.73 1655.6 1649.04 1654.89 1649.23 1654.18 1649.43 1653.45 1649.53 1652.71 1649.53 1651.95 1649.53 1651.27 1649.39 1650.67 1649.12 1650.08 1648.84 1649.56 1648.46 1649.13 1647.96 1648.7 1647.46 1648.38 1646.87 1648.15 1646.19 1647.93 1645.5 1647.81 1644.76 1647.81 1643.96 1647.81 1643.18 1647.87 1642.34 1647.99 1641.44 1648.11 1640.54 1648.3 1639.48 1648.58 1638.25 1648.73 1637.64 1648.94 1636.82 1649.19 1635.77 1649.45 1634.73 1649.74 1633.57 1650.07 1632.31 1650.4 1631.05 1650.76 1629.74 1651.15 1628.36 1651.55 1626.98 1651.97 1625.65 1652.41 1624.36 1652.41 1624.28 1652.39 1624.24 1652.36 1624.24L1643.01 1624.24 1637.33 1649 1630.24 1649 1630.59 1646.98C1631.76 1645.86 1632.85 1644.14 1633.85 1641.79 1634.86 1639.45 1635.77 1636.49 1636.59 1632.91L1638.59 1624.24 1637.56 1624.24C1636.8 1624.24 1636.12 1624.29 1635.51 1624.39 1634.9 1624.49 1634.33 1624.68 1633.78 1624.96 1633.23 1625.24 1632.69 1625.63 1632.14 1626.12 1631.59 1626.61 1631 1627.23 1630.35 1627.99L1628.27 1625.94C1629.31 1624.77 1630.22 1623.79 1631 1623 1631.78 1622.21 1632.58 1621.57 1633.4 1621.08 1634.22 1620.59 1635.13 1620.24 1636.14 1620.02 1637.15 1619.81 1638.4 1619.7 1639.9 1619.7Z" fill-rule="evenodd"/><text fill="#000000" fill-opacity="0" font-family="Arial,Arial_MSFontService,sans-serif" font-size="29.8242" x="1628.27" y="1645.8">𝜋</text><path d="M1681.29 1633.6C1679.81 1633.6 1678.63 1634.1 1677.76 1635.1 1676.89 1636.1 1676.27 1637.51 1675.92 1639.32 1675.56 1641.14 1675.38 1643.39 1675.38 1646.07 1675.38 1650.68 1675.85 1654.03 1676.81 1656.12 1677.76 1658.21 1679.27 1659.26 1681.34 1659.26 1683.29 1659.26 1684.73 1658.28 1685.67 1656.34 1686.6 1654.39 1687.07 1651.28 1687.07 1647 1687.07 1642.44 1686.6 1639.07 1685.67 1636.88 1684.73 1634.69 1683.27 1633.6 1681.29 1633.6ZM1681.34 1631.03C1683.4 1631.03 1685.14 1631.4 1686.54 1632.13 1687.94 1632.87 1689.07 1633.89 1689.94 1635.22 1690.81 1636.55 1691.43 1638.13 1691.8 1639.97 1692.16 1641.81 1692.35 1643.83 1692.35 1646.02 1692.35 1651.25 1691.37 1655.19 1689.4 1657.84 1687.44 1660.49 1684.62 1661.82 1680.94 1661.82 1677.32 1661.82 1674.6 1660.56 1672.8 1658.04 1671 1655.51 1670.1 1651.73 1670.1 1646.68 1670.1 1643.17 1670.58 1640.24 1671.55 1637.89 1672.51 1635.55 1673.82 1633.82 1675.5 1632.71 1677.18 1631.59 1679.12 1631.03 1681.34 1631.03Z" fill-rule="evenodd"/><text fill="#000000" fill-opacity="0" font-family="Arial,Arial_MSFontService,sans-serif" font-size="30.7861" x="1670.1" y="1657.97">0</text><path d="M1730.46 1583.28 1780.55 1605.61 1780.55 1611.28 1730.46 1633.61 1730.46 1627.53 1774.47 1608.45 1730.46 1589.36Z" fill-rule="evenodd"/><text fill="#000000" fill-opacity="0" font-family="Arial,Arial_MSFontService,sans-serif" font-size="50.335" x="1730.46" y="1627.32">&gt;</text><path d="M1832.19 1579.63C1830.32 1579.63 1828.76 1580.19 1827.51 1581.29 1826.25 1582.4 1825.24 1583.99 1824.47 1586.08 1823.7 1588.16 1823.15 1590.69 1822.83 1593.67 1822.5 1596.66 1822.34 1600.03 1822.34 1603.79 1822.34 1612.59 1823.16 1619.06 1824.79 1623.18 1826.43 1627.3 1828.96 1629.36 1832.39 1629.36 1835.66 1629.36 1838.08 1627.42 1839.67 1623.54 1841.25 1619.67 1842.04 1613.66 1842.04 1605.53 1842.04 1599.31 1841.63 1594.28 1840.82 1590.43 1840.01 1586.58 1838.88 1583.82 1837.44 1582.14 1835.99 1580.47 1834.24 1579.63 1832.19 1579.63ZM1832.39 1576.19C1838.31 1576.19 1842.71 1578.47 1845.6 1583.04 1848.49 1587.6 1849.94 1594.51 1849.94 1603.75 1849.94 1613.31 1848.39 1620.54 1845.3 1625.45 1842.2 1630.35 1837.69 1632.8 1831.74 1632.8 1825.91 1632.8 1821.56 1630.51 1818.71 1625.91 1815.86 1621.32 1814.44 1614.35 1814.44 1605 1814.44 1600.03 1814.88 1595.73 1815.75 1592.11 1816.63 1588.49 1817.86 1585.5 1819.44 1583.14 1821.02 1580.77 1822.92 1579.02 1825.14 1577.89 1827.35 1576.75 1829.77 1576.19 1832.39 1576.19Z" fill-rule="evenodd"/><text fill="#000000" fill-opacity="0" font-family="Arial,Arial_MSFontService,sans-serif" font-size="56.6167" x="1814.44" y="1625.73">0</text><path d="M1126.3 1581.3 1111.87 1606.83 1127.72 1606.83 1127.03 1593.78C1126.95 1592 1126.88 1589.77 1126.83 1587.09 1126.77 1584.42 1126.75 1582.49 1126.75 1581.3ZM1126.54 1572.75 1132.66 1572.75 1135.58 1617.94C1135.72 1620.07 1135.96 1621.74 1136.31 1622.94 1136.66 1624.14 1137.14 1625.03 1137.75 1625.62 1138.36 1626.2 1139.24 1626.57 1140.4 1626.73L1139.96 1628.72 1123.1 1628.72 1123.54 1626.73C1125.14 1626.59 1126.33 1625.97 1127.11 1624.87 1127.89 1623.76 1128.29 1621.81 1128.29 1619.03 1128.29 1617.98 1128.25 1616.83 1128.16 1615.59L1127.88 1610.36 1110.05 1610.36 1107.82 1614.33C1106.77 1616.19 1106 1617.79 1105.51 1619.13 1105.02 1620.47 1104.78 1621.65 1104.78 1622.68 1104.78 1624.95 1106.14 1626.3 1108.87 1626.73L1108.43 1628.72 1091.85 1628.72 1092.3 1626.73C1093.13 1626.62 1093.93 1626.29 1094.67 1625.74 1095.41 1625.18 1096.2 1624.35 1097.04 1623.22 1097.88 1622.1 1099.05 1620.25 1100.56 1617.65Z" fill-rule="evenodd"/><text fill="#000000" fill-opacity="0" font-family="Arial,Arial_MSFontService,sans-serif" font-size="55.9683" x="1091.85" y="1621.72">𝐴</text><path d="M1139.28 1557.77 1142.45 1559.15C1141.42 1561.15 1140.44 1562.68 1139.51 1563.75 1138.57 1564.81 1137.68 1565.55 1136.83 1565.95 1135.98 1566.36 1135.02 1566.56 1133.93 1566.56 1133.2 1566.56 1132.57 1566.51 1132.03 1566.4 1131.49 1566.29 1130.96 1566.14 1130.43 1565.93 1129.9 1565.73 1129.08 1565.35 1127.98 1564.78 1127.25 1564.43 1126.67 1564.15 1126.25 1563.95 1125.84 1563.75 1125.4 1563.58 1124.94 1563.46 1124.48 1563.34 1123.99 1563.28 1123.48 1563.28 1122.78 1563.28 1122.19 1563.38 1121.72 1563.58 1121.24 1563.79 1120.76 1564.13 1120.28 1564.62 1119.79 1565.1 1119.28 1565.79 1118.74 1566.68L1115.62 1565.35C1116.91 1563.08 1117.97 1561.5 1118.78 1560.63 1119.59 1559.75 1120.42 1559.11 1121.27 1558.72 1122.12 1558.33 1123.14 1558.13 1124.33 1558.13 1124.98 1558.13 1125.57 1558.19 1126.09 1558.3 1126.62 1558.4 1127.11 1558.55 1127.55 1558.72 1128 1558.9 1128.76 1559.25 1129.84 1559.79 1130.62 1560.17 1131.25 1560.48 1131.71 1560.71 1132.16 1560.94 1132.64 1561.11 1133.12 1561.23 1133.61 1561.36 1134.16 1561.42 1134.79 1561.42 1135.65 1561.42 1136.42 1561.16 1137.1 1560.65 1137.77 1560.13 1138.5 1559.17 1139.28 1557.77Z" fill-rule="evenodd"/><text fill="#000000" fill-opacity="0" font-family="Arial,Arial_MSFontService,sans-serif" font-size="8.91602" x="1115.62" y="1565.57">ሚ</text><path d="M1157.58 1616.26 1183.54 1616.26 1182.63 1620.8 1175.04 1620.8 1171.58 1635.98C1171.37 1636.86 1171.21 1637.64 1171.1 1638.32 1170.99 1639.01 1170.94 1639.6 1170.94 1640.11 1170.94 1640.74 1171.07 1641.23 1171.34 1641.6 1171.6 1641.98 1172.07 1642.16 1172.76 1642.16 1173.5 1642.16 1174.25 1641.87 1175.01 1641.28 1175.77 1640.7 1176.63 1639.87 1177.59 1638.79L1179.61 1640.7C1178.69 1641.69 1177.83 1642.53 1177.03 1643.22 1176.23 1643.9 1175.47 1644.45 1174.73 1644.87 1174 1645.29 1173.28 1645.6 1172.57 1645.79 1171.85 1645.99 1171.13 1646.09 1170.38 1646.09 1169.62 1646.09 1168.94 1645.95 1168.35 1645.68 1167.75 1645.4 1167.24 1645.02 1166.81 1644.52 1166.38 1644.02 1166.05 1643.43 1165.83 1642.75 1165.6 1642.06 1165.49 1641.32 1165.49 1640.52 1165.49 1639.74 1165.55 1638.9 1165.67 1638 1165.78 1637.1 1165.98 1636.04 1166.25 1634.81 1166.41 1634.2 1166.61 1633.38 1166.87 1632.33 1167.12 1631.29 1167.41 1630.13 1167.75 1628.88 1168.08 1627.62 1168.44 1626.3 1168.83 1624.92 1169.22 1623.54 1169.64 1622.21 1170.09 1620.92 1170.09 1620.84 1170.07 1620.8 1170.03 1620.8L1160.69 1620.8 1155 1645.56 1147.91 1645.56 1148.26 1643.54C1149.44 1642.42 1150.52 1640.7 1151.53 1638.35 1152.54 1636.01 1153.45 1633.05 1154.27 1629.48L1156.26 1620.8 1155.24 1620.8C1154.47 1620.8 1153.79 1620.85 1153.19 1620.95 1152.58 1621.05 1152 1621.24 1151.46 1621.52 1150.91 1621.8 1150.36 1622.19 1149.82 1622.68 1149.27 1623.17 1148.67 1623.79 1148.03 1624.55L1145.95 1622.5C1146.98 1621.33 1147.89 1620.35 1148.67 1619.56 1149.46 1618.77 1150.26 1618.13 1151.08 1617.64 1151.9 1617.15 1152.81 1616.8 1153.82 1616.59 1154.82 1616.37 1156.08 1616.26 1157.58 1616.26Z" fill-rule="evenodd"/><text fill="#000000" fill-opacity="0" font-family="Arial,Arial_MSFontService,sans-serif" font-size="29.8242" x="1145.95" y="1642.36">𝜋</text><path d="M1198.96 1630.16C1197.48 1630.16 1196.3 1630.66 1195.43 1631.66 1194.56 1632.66 1193.95 1634.07 1193.59 1635.88 1193.23 1637.7 1193.05 1639.95 1193.05 1642.63 1193.05 1647.24 1193.53 1650.59 1194.48 1652.68 1195.43 1654.77 1196.94 1655.82 1199.01 1655.82 1200.96 1655.82 1202.41 1654.85 1203.34 1652.9 1204.28 1650.96 1204.75 1647.84 1204.75 1643.56 1204.75 1639.01 1204.28 1635.63 1203.34 1633.44 1202.41 1631.25 1200.95 1630.16 1198.96 1630.16ZM1199.01 1627.6C1201.08 1627.6 1202.81 1627.96 1204.21 1628.69 1205.61 1629.43 1206.75 1630.46 1207.62 1631.78 1208.49 1633.11 1209.11 1634.69 1209.47 1636.53 1209.84 1638.37 1210.02 1640.39 1210.02 1642.59 1210.02 1647.81 1209.04 1651.75 1207.08 1654.4 1205.12 1657.06 1202.3 1658.38 1198.62 1658.38 1194.99 1658.38 1192.28 1657.12 1190.48 1654.6 1188.68 1652.07 1187.78 1648.29 1187.78 1643.24 1187.78 1639.73 1188.26 1636.8 1189.22 1634.46 1190.18 1632.11 1191.5 1630.38 1193.18 1629.27 1194.85 1628.15 1196.8 1627.6 1199.01 1627.6Z" fill-rule="evenodd"/><text fill="#000000" fill-opacity="0" font-family="Arial,Arial_MSFontService,sans-serif" font-size="30.7861" x="1187.78" y="1654.53">0</text><path d="M1298.22 1579.84 1298.22 1585.92 1254.21 1605.01 1298.22 1624.1 1298.22 1630.17 1248.13 1607.84 1248.13 1602.17Z" fill-rule="evenodd"/><text fill="#000000" fill-opacity="0" font-family="Arial,Arial_MSFontService,sans-serif" font-size="50.335" x="1248.13" y="1623.88">&lt;</text><path d="M1349.86 1576.19C1348 1576.19 1346.44 1576.75 1345.18 1577.85 1343.93 1578.96 1342.91 1580.56 1342.14 1582.64 1341.37 1584.72 1340.83 1587.25 1340.5 1590.24 1340.18 1593.22 1340.02 1596.59 1340.02 1600.35 1340.02 1609.15 1340.83 1615.62 1342.47 1619.74 1344.1 1623.86 1346.64 1625.92 1350.07 1625.92 1353.34 1625.92 1355.76 1623.98 1357.34 1620.1 1358.92 1616.23 1359.71 1610.22 1359.71 1602.09 1359.71 1595.88 1359.31 1590.84 1358.5 1586.99 1357.69 1583.14 1356.56 1580.38 1355.11 1578.71 1353.67 1577.03 1351.92 1576.19 1349.86 1576.19ZM1350.07 1572.75C1355.98 1572.75 1360.39 1575.03 1363.28 1579.6 1366.17 1584.16 1367.61 1591.07 1367.61 1600.31 1367.61 1609.87 1366.07 1617.1 1362.97 1622.01 1359.88 1626.91 1355.36 1629.36 1349.42 1629.36 1343.58 1629.36 1339.24 1627.07 1336.39 1622.47 1333.54 1617.88 1332.11 1610.91 1332.11 1601.56 1332.11 1596.59 1332.55 1592.3 1333.43 1588.67 1334.31 1585.05 1335.54 1582.06 1337.12 1579.7 1338.7 1577.33 1340.6 1575.58 1342.81 1574.45 1345.03 1573.32 1347.45 1572.75 1350.07 1572.75Z" fill-rule="evenodd"/><text fill="#000000" fill-opacity="0" font-family="Arial,Arial_MSFontService,sans-serif" font-size="56.6167" x="1332.11" y="1622.29">0</text><path d="M1462 936C1492.99 936.591 1523.99 937.181 1557.64 950.177 1591.29 963.173 1633.21 987.982 1663.91 1013.97 1694.61 1039.96 1721.17 1070.68 1741.84 1106.12 1762.5 1141.56 1770.77 1188.23 1787.89 1226.63 1805.01 1265.02 1815.04 1298.1 1844.56 1336.5 1874.08 1374.89 1919.54 1415.95 1965 1457" stroke="#3B7D23" stroke-width="10.3125" stroke-miterlimit="8" fill="none" fill-rule="evenodd"/><path d="M1462 1220C1405.76 1224.14 1349.51 1228.29 1309.25 1237.75 1269 1247.22 1245.31 1260.83 1220.45 1276.81 1195.58 1292.79 1177.23 1314.69 1160.06 1333.62 1142.89 1352.56 1132.83 1375.64 1117.43 1390.44 1102.04 1405.23 1089.61 1409.96 1067.7 1422.39 1045.8 1434.82 1015.9 1449.91 986 1465" stroke="#3B7D23" stroke-width="10.3125" stroke-miterlimit="8" fill="none" fill-rule="evenodd"/><path d="M1462 936 1462 1219.87" stroke="#3B7D23" stroke-width="10.3125" stroke-miterlimit="8" fill="none" fill-rule="evenodd"/><path d="M2352.5 1527.06 3226.84 1527.06 3226.84 1533.94 2352.5 1533.94ZM3222.25 1516.75 3249.75 1530.5 3222.25 1544.25Z"/><path d="M2667.34 1053.43 2700.62 1053.43 2699.44 1058.78 2689.8 1058.78 2685.22 1079.09C2684.62 1081.74 2684.32 1083.73 2684.32 1085.09 2684.32 1086.17 2684.5 1086.95 2684.85 1087.44 2685.2 1087.92 2685.76 1088.17 2686.51 1088.17 2688.13 1088.17 2690.04 1086.87 2692.23 1084.27L2694.58 1086.46C2692.52 1088.71 2690.65 1090.33 2688.96 1091.33 2687.28 1092.33 2685.47 1092.83 2683.55 1092.83 2681.72 1092.83 2680.27 1092.2 2679.22 1090.94 2678.16 1089.69 2677.64 1088.03 2677.64 1085.98 2677.64 1084.17 2678.02 1081.55 2678.77 1078.11L2679.66 1074.02C2680.12 1071.86 2680.78 1069.25 2681.63 1066.2 2682.48 1063.15 2683.22 1060.8 2683.84 1059.15L2683.64 1058.78 2671.72 1058.78 2666.74 1081.84C2666.33 1083.65 2665.86 1085.61 2665.32 1087.7 2664.78 1089.79 2664.36 1091.29 2664.06 1092.18L2655.47 1092.18 2655.87 1090.19C2658.74 1087.35 2661.39 1080.71 2663.82 1070.25L2666.49 1058.78 2665.2 1058.78C2663.28 1058.78 2661.66 1059.11 2660.33 1059.76 2659.01 1060.4 2657.56 1061.7 2656 1063.65L2653.44 1061.5C2654.85 1059.8 2656 1058.5 2656.89 1057.61 2657.78 1056.72 2658.72 1055.96 2659.7 1055.34 2660.69 1054.72 2661.8 1054.24 2663.03 1053.92 2664.26 1053.6 2665.69 1053.43 2667.34 1053.43Z" fill-rule="evenodd"/><text fill="#000000" fill-opacity="0" font-family="Arial,Arial_MSFontService,sans-serif" font-size="39.3926" x="2653.44" y="1087.9">𝜋</text><path d="M2717.87 1033.76 2721.74 1033.76 2720.89 1042.93 2728.42 1037.63 2730.32 1040.91 2721.97 1044.81 2730.32 1048.73 2728.42 1051.98 2720.89 1046.68 2721.74 1055.85 2717.87 1055.85 2718.75 1046.68 2711.19 1051.98 2709.26 1048.73 2717.64 1044.81 2709.26 1040.91 2711.19 1037.63 2718.75 1042.93Z" fill-rule="evenodd"/><text fill="#000000" fill-opacity="0" font-family="Arial,Arial_MSFontService,sans-serif" font-size="22.0898" x="2709.26" y="1053.09">∗</text><path d="M2769.75 1033.62 2770.85 1036.74C2764.52 1038.82 2759.84 1042.88 2756.8 1048.91 2753.76 1054.95 2752.24 1062.54 2752.24 1071.67 2752.24 1081.13 2753.76 1088.92 2756.8 1095.06 2759.84 1101.19 2764.48 1105.3 2770.72 1107.38L2769.75 1110.5C2761.84 1108.42 2755.77 1103.94 2751.56 1097.06 2747.34 1090.19 2745.23 1081.86 2745.23 1072.08 2745.23 1062.32 2747.35 1053.99 2751.58 1047.09 2755.8 1040.19 2761.86 1035.7 2769.75 1033.62Z" fill-rule="evenodd"/><text fill="#000000" fill-opacity="0" font-family="Arial,Arial_MSFontService,sans-serif" font-size="76.8804" x="2745.23" y="1100.89">(</text><path d="M2798.29 1055.95C2795.51 1055.95 2793.01 1057.07 2790.79 1059.31 2788.58 1061.55 2786.85 1064.56 2785.61 1068.33 2784.36 1072.1 2783.74 1075.86 2783.74 1079.61 2783.74 1082.42 2784.13 1084.52 2784.9 1085.92 2785.67 1087.31 2786.96 1088 2788.77 1088 2790.55 1088 2792.3 1087.23 2794.02 1085.69 2795.73 1084.15 2797.5 1081.96 2799.32 1079.11 2801.15 1076.26 2802.44 1072.97 2803.2 1069.24L2803.56 1067.5C2803.8 1066.39 2803.97 1065.43 2804.05 1064.62 2804.13 1063.81 2804.17 1062.93 2804.17 1061.98 2804.17 1059.9 2803.72 1058.38 2802.83 1057.41 2801.94 1056.43 2800.43 1055.95 2798.29 1055.95ZM2797.48 1052.74C2799.24 1052.74 2800.88 1052.94 2802.4 1053.33 2803.93 1053.72 2805.51 1054.42 2807.13 1055.42L2810.85 1052.74 2813.45 1053.39 2807.49 1079.09C2806.9 1081.65 2806.6 1083.65 2806.6 1085.09 2806.6 1086.17 2806.77 1086.95 2807.13 1087.44 2807.48 1087.92 2808.03 1088.17 2808.79 1088.17 2809.6 1088.17 2810.46 1087.83 2811.38 1087.17 2812.3 1086.51 2813.6 1085.25 2815.27 1083.38L2817.58 1085.65C2815.15 1088.25 2813.08 1090.09 2811.36 1091.18 2809.65 1092.28 2807.79 1092.83 2805.79 1092.83 2804.11 1092.83 2802.78 1092.27 2801.78 1091.16 2800.78 1090.06 2800.28 1088.58 2800.28 1086.75 2800.28 1085.26 2800.59 1083.68 2801.21 1082.01L2800.68 1081.84C2798.09 1085.63 2795.63 1088.4 2793.31 1090.15 2790.98 1091.91 2788.52 1092.79 2785.93 1092.79 2782.96 1092.79 2780.66 1091.66 2779.02 1089.42 2777.39 1087.18 2776.57 1084.03 2776.57 1079.98 2776.57 1075.33 2777.48 1070.87 2779.3 1066.58 2781.13 1062.3 2783.63 1058.93 2786.82 1056.45 2790.01 1053.98 2793.56 1052.74 2797.48 1052.74Z" fill-rule="evenodd"/><text fill="#000000" fill-opacity="0" font-family="Arial,Arial_MSFontService,sans-serif" font-size="40.0815" x="2776.57" y="1087.82">𝑎</text><path d="M2830.17 1034.18 2836.41 1034.18 2836.41 1109.6 2830.17 1109.6Z" fill-rule="evenodd"/><text fill="#000000" fill-opacity="0" font-family="Arial,Arial_MSFontService,sans-serif" font-size="75.4214" x="2830.17" y="1100.18">|</text><path d="M2869.13 1052.79C2871.64 1052.79 2873.93 1052.93 2876 1053.23 2878.07 1053.53 2880.13 1054.04 2882.18 1054.77L2880.36 1063.28 2877.07 1063.28C2876.78 1060.88 2875.99 1059.05 2874.7 1057.81 2873.42 1056.57 2871.4 1055.95 2868.65 1055.95 2866.51 1055.95 2864.78 1056.49 2863.46 1057.59 2862.13 1058.68 2861.47 1060.12 2861.47 1061.9 2861.47 1062.88 2861.64 1063.73 2861.98 1064.48 2862.32 1065.22 2863 1066.04 2864.03 1066.93 2865.05 1067.82 2866.65 1068.92 2868.81 1070.21 2870.51 1071.24 2871.87 1072.18 2872.9 1073.03 2873.93 1073.88 2874.74 1074.72 2875.33 1075.56 2875.93 1076.4 2876.36 1077.28 2876.63 1078.22 2876.9 1079.15 2877.03 1080.28 2877.03 1081.6 2877.03 1084 2876.39 1086.06 2875.11 1087.78 2873.83 1089.5 2872.08 1090.77 2869.88 1091.61 2867.68 1092.45 2865.17 1092.87 2862.36 1092.87 2860.12 1092.87 2857.92 1092.7 2855.76 1092.36 2853.6 1092.02 2851.19 1091.45 2848.54 1090.64L2850.49 1081.8 2853.65 1081.8C2853.76 1084.4 2854.49 1086.36 2855.84 1087.68 2857.19 1089 2859.34 1089.67 2862.28 1089.67 2864.85 1089.67 2866.86 1089.09 2868.3 1087.94 2869.75 1086.79 2870.47 1085.17 2870.47 1083.06 2870.47 1081.84 2870.27 1080.8 2869.86 1079.92 2869.46 1079.04 2868.79 1078.2 2867.88 1077.39 2866.96 1076.57 2865.5 1075.56 2863.5 1074.35 2861.39 1073.08 2859.75 1071.93 2858.57 1070.9 2857.4 1069.87 2856.51 1068.76 2855.92 1067.56 2855.33 1066.36 2855.03 1064.97 2855.03 1063.4 2855.03 1061.27 2855.6 1059.4 2856.75 1057.79 2857.9 1056.18 2859.54 1054.95 2861.67 1054.08 2863.81 1053.22 2866.29 1052.79 2869.13 1052.79Z" fill-rule="evenodd"/><text fill="#000000" fill-opacity="0" font-family="Arial,Arial_MSFontService,sans-serif" font-size="40.0815" x="2848.54" y="1087.86">𝑠</text><path d="M2889.23 1033.62C2897.12 1035.7 2903.18 1040.19 2907.41 1047.09 2911.64 1053.99 2913.75 1062.32 2913.75 1072.08 2913.75 1081.86 2911.64 1090.19 2907.43 1097.06 2903.21 1103.94 2897.15 1108.42 2889.23 1110.5L2888.26 1107.38C2894.5 1105.3 2899.14 1101.19 2902.18 1095.06 2905.22 1088.92 2906.74 1081.13 2906.74 1071.67 2906.74 1062.54 2905.23 1054.95 2902.2 1048.91 2899.18 1042.88 2894.49 1038.82 2888.14 1036.74Z" fill-rule="evenodd"/><text fill="#000000" fill-opacity="0" font-family="Arial,Arial_MSFontService,sans-serif" font-size="76.8804" x="2888.14" y="1100.89">)</text><path d="M2666.77 1171.06 2700.04 1171.06 2698.87 1176.41 2689.22 1176.41 2684.64 1196.72C2684.05 1199.37 2683.75 1201.37 2683.75 1202.72 2683.75 1203.8 2683.93 1204.58 2684.28 1205.07 2684.63 1205.55 2685.18 1205.8 2685.94 1205.8 2687.56 1205.8 2689.47 1204.5 2691.65 1201.91L2694 1204.09C2691.95 1206.34 2690.08 1207.96 2688.39 1208.96 2686.7 1209.96 2684.9 1210.46 2682.98 1210.46 2681.14 1210.46 2679.7 1209.83 2678.64 1208.57 2677.59 1207.32 2677.06 1205.66 2677.06 1203.61 2677.06 1201.8 2677.44 1199.18 2678.2 1195.75L2679.09 1191.65C2679.55 1189.49 2680.2 1186.88 2681.06 1183.83 2681.91 1180.78 2682.64 1178.43 2683.26 1176.78L2683.06 1176.41 2671.15 1176.41 2666.16 1199.47C2665.76 1201.28 2665.28 1203.24 2664.74 1205.33 2664.2 1207.42 2663.78 1208.92 2663.49 1209.81L2654.9 1209.81 2655.3 1207.82C2658.16 1204.99 2660.81 1198.34 2663.24 1187.88L2665.92 1176.41 2664.62 1176.41C2662.7 1176.41 2661.08 1176.74 2659.76 1177.39 2658.43 1178.04 2656.99 1179.33 2655.42 1181.28L2652.87 1179.13C2654.27 1177.43 2655.42 1176.13 2656.31 1175.24 2657.21 1174.35 2658.14 1173.59 2659.13 1172.97 2660.12 1172.35 2661.22 1171.88 2662.45 1171.55 2663.68 1171.23 2665.12 1171.06 2666.77 1171.06Z" fill-rule="evenodd"/><text fill="#000000" fill-opacity="0" font-family="Arial,Arial_MSFontService,sans-serif" font-size="39.3926" x="2652.87" y="1205.53">𝜋</text><path d="M2717.52 1191.56C2716.15 1191.56 2715.01 1191.91 2714.09 1192.62 2713.18 1193.34 2712.45 1194.38 2711.91 1195.76 2711.37 1197.14 2710.99 1198.82 2710.77 1200.8 2710.54 1202.78 2710.43 1205.03 2710.43 1207.55 2710.43 1210.46 2710.57 1212.98 2710.86 1215.1 2711.14 1217.21 2711.58 1218.96 2712.18 1220.32 2712.77 1221.69 2713.52 1222.7 2714.42 1223.34 2715.31 1223.99 2716.39 1224.31 2717.64 1224.31 2718.81 1224.31 2719.84 1224.01 2720.72 1223.4 2721.59 1222.8 2722.32 1221.85 2722.9 1220.57 2723.47 1219.29 2723.91 1217.67 2724.2 1215.71 2724.49 1213.75 2724.64 1211.43 2724.64 1208.75 2724.64 1205.74 2724.48 1203.16 2724.16 1200.99 2723.84 1198.82 2723.38 1197.04 2722.8 1195.64 2722.21 1194.25 2721.47 1193.22 2720.58 1192.55 2719.69 1191.89 2718.67 1191.56 2717.52 1191.56ZM2717.64 1188.71C2719.96 1188.71 2721.95 1189.15 2723.6 1190.02 2725.25 1190.89 2726.6 1192.13 2727.64 1193.74 2728.69 1195.35 2729.46 1197.32 2729.94 1199.64 2730.43 1201.97 2730.68 1204.59 2730.68 1207.52 2730.68 1214.03 2729.52 1218.94 2727.22 1222.27 2724.91 1225.6 2721.57 1227.27 2717.2 1227.27 2712.86 1227.27 2709.64 1225.7 2707.53 1222.55 2705.42 1219.41 2704.37 1214.64 2704.37 1208.25 2704.37 1204.91 2704.69 1202.02 2705.35 1199.58 2706 1197.14 2706.92 1195.11 2708.1 1193.5 2709.28 1191.89 2710.69 1190.69 2712.31 1189.9 2713.93 1189.11 2715.71 1188.71 2717.64 1188.71Z" fill-rule="evenodd"/><text fill="#000000" fill-opacity="0" font-family="Arial,Arial_MSFontService,sans-serif" font-size="38.5547" x="2704.37" y="1222.45">0</text><path d="M2770.33 1151.25 2771.42 1154.37C2765.1 1156.45 2760.42 1160.51 2757.38 1166.55 2754.34 1172.58 2752.82 1180.17 2752.82 1189.3 2752.82 1198.76 2754.34 1206.55 2757.38 1212.69 2760.42 1218.82 2765.06 1222.93 2771.3 1225.01L2770.33 1228.13C2762.41 1226.05 2756.34 1221.57 2752.13 1214.69 2747.91 1207.82 2745.81 1199.49 2745.81 1189.71 2745.81 1179.95 2747.92 1171.63 2752.15 1164.72 2756.38 1157.82 2762.44 1153.33 2770.33 1151.25Z" fill-rule="evenodd"/><text fill="#000000" fill-opacity="0" font-family="Arial,Arial_MSFontService,sans-serif" font-size="76.8804" x="2745.81" y="1218.52">(</text><path d="M2798.86 1173.58C2796.08 1173.58 2793.58 1174.7 2791.37 1176.94 2789.15 1179.18 2787.42 1182.19 2786.18 1185.96 2784.94 1189.73 2784.31 1193.49 2784.31 1197.25 2784.31 1200.06 2784.7 1202.16 2785.47 1203.55 2786.24 1204.94 2787.53 1205.63 2789.34 1205.63 2791.12 1205.63 2792.87 1204.86 2794.59 1203.32 2796.3 1201.78 2798.07 1199.59 2799.9 1196.74 2801.72 1193.89 2803.01 1190.6 2803.77 1186.87L2804.13 1185.13C2804.38 1184.02 2804.54 1183.06 2804.62 1182.25 2804.7 1181.44 2804.74 1180.56 2804.74 1179.62 2804.74 1177.54 2804.29 1176.01 2803.4 1175.04 2802.51 1174.06 2801 1173.58 2798.86 1173.58ZM2798.05 1170.38C2799.81 1170.38 2801.45 1170.57 2802.98 1170.96 2804.5 1171.36 2806.08 1172.05 2807.7 1173.05L2811.43 1170.38 2814.02 1171.02 2808.06 1196.72C2807.47 1199.29 2807.17 1201.28 2807.17 1202.72 2807.17 1203.8 2807.35 1204.58 2807.7 1205.07 2808.05 1205.55 2808.6 1205.8 2809.36 1205.8 2810.17 1205.8 2811.04 1205.47 2811.95 1204.8 2812.87 1204.14 2814.17 1202.88 2815.85 1201.01L2818.16 1203.28C2815.72 1205.88 2813.65 1207.72 2811.93 1208.82 2810.22 1209.91 2808.36 1210.46 2806.36 1210.46 2804.69 1210.46 2803.35 1209.9 2802.35 1208.8 2801.35 1207.69 2800.85 1206.22 2800.85 1204.38 2800.85 1202.89 2801.16 1201.31 2801.78 1199.64L2801.26 1199.47C2798.66 1203.26 2796.2 1206.03 2793.88 1207.78 2791.56 1209.54 2789.1 1210.42 2786.5 1210.42 2783.53 1210.42 2781.23 1209.3 2779.59 1207.05 2777.96 1204.81 2777.14 1201.66 2777.14 1197.61 2777.14 1192.96 2778.05 1188.5 2779.88 1184.22 2781.7 1179.93 2784.21 1176.56 2787.4 1174.08 2790.58 1171.61 2794.14 1170.38 2798.05 1170.38Z" fill-rule="evenodd"/><text fill="#000000" fill-opacity="0" font-family="Arial,Arial_MSFontService,sans-serif" font-size="40.0815" x="2777.14" y="1205.45">𝑎</text><path d="M2830.75 1151.81 2836.99 1151.81 2836.99 1227.24 2830.75 1227.24Z" fill-rule="evenodd"/><text fill="#000000" fill-opacity="0" font-family="Arial,Arial_MSFontService,sans-serif" font-size="75.4214" x="2830.75" y="1217.81">|</text><path d="M2869.7 1170.42C2872.22 1170.42 2874.51 1170.57 2876.57 1170.86 2878.64 1171.16 2880.7 1171.67 2882.75 1172.4L2880.93 1180.91 2877.65 1180.91C2877.35 1178.51 2876.56 1176.68 2875.28 1175.44 2873.99 1174.2 2871.97 1173.58 2869.22 1173.58 2867.08 1173.58 2865.35 1174.12 2864.03 1175.22 2862.71 1176.31 2862.04 1177.75 2862.04 1179.54 2862.04 1180.51 2862.21 1181.37 2862.55 1182.11 2862.89 1182.85 2863.57 1183.67 2864.6 1184.56 2865.62 1185.45 2867.22 1186.55 2869.38 1187.84 2871.08 1188.87 2872.45 1189.81 2873.47 1190.66 2874.5 1191.51 2875.31 1192.36 2875.91 1193.19 2876.5 1194.03 2876.93 1194.92 2877.2 1195.85 2877.47 1196.78 2877.61 1197.91 2877.61 1199.23 2877.61 1201.64 2876.97 1203.7 2875.68 1205.41 2874.4 1207.13 2872.66 1208.4 2870.45 1209.24 2868.25 1210.08 2865.75 1210.5 2862.94 1210.5 2860.69 1210.5 2858.49 1210.33 2856.33 1209.99 2854.17 1209.65 2851.76 1209.08 2849.12 1208.27L2851.06 1199.43 2854.22 1199.43C2854.33 1202.03 2855.06 1203.99 2856.41 1205.31 2857.76 1206.63 2859.91 1207.3 2862.86 1207.3 2865.42 1207.3 2867.43 1206.72 2868.87 1205.57 2870.32 1204.43 2871.04 1202.8 2871.04 1200.69 2871.04 1199.47 2870.84 1198.43 2870.43 1197.55 2870.03 1196.67 2869.37 1195.83 2868.45 1195.02 2867.53 1194.21 2866.07 1193.19 2864.07 1191.98 2861.96 1190.71 2860.32 1189.56 2859.15 1188.53 2857.97 1187.51 2857.09 1186.39 2856.49 1185.19 2855.9 1183.99 2855.6 1182.6 2855.6 1181.03 2855.6 1178.9 2856.18 1177.03 2857.32 1175.42 2858.47 1173.81 2860.11 1172.58 2862.25 1171.71 2864.38 1170.85 2866.87 1170.42 2869.7 1170.42Z" fill-rule="evenodd"/><text fill="#000000" fill-opacity="0" font-family="Arial,Arial_MSFontService,sans-serif" font-size="40.0815" x="2849.12" y="1205.49">𝑠</text><path d="M2889.81 1151.25C2897.7 1153.33 2903.75 1157.82 2907.98 1164.72 2912.21 1171.63 2914.32 1179.95 2914.32 1189.71 2914.32 1199.49 2912.22 1207.82 2908 1214.69 2903.79 1221.57 2897.72 1226.05 2889.81 1228.13L2888.83 1225.01C2895.07 1222.93 2899.71 1218.82 2902.75 1212.69 2905.79 1206.55 2907.31 1198.76 2907.31 1189.3 2907.31 1180.17 2905.8 1172.58 2902.77 1166.55 2899.75 1160.51 2895.06 1156.45 2888.71 1154.37Z" fill-rule="evenodd"/><text fill="#000000" fill-opacity="0" font-family="Arial,Arial_MSFontService,sans-serif" font-size="76.8804" x="2888.71" y="1218.52">)</text><path d="M2651.85 1128.62 2719.35 1128.62 2786.85 1128.62 2854.35 1128.62 2921.85 1128.62 2921.85 1133.62 2854.35 1133.62 2786.85 1133.62 2719.35 1133.62 2651.85 1133.62Z" fill-rule="evenodd"/><path d="M2510.5 1530.5C2510.5 1506.2 2530.42 1486.5 2555 1486.5 2579.58 1486.5 2599.5 1506.2 2599.5 1530.5 2599.5 1554.8 2579.58 1574.5 2555 1574.5 2530.42 1574.5 2510.5 1554.8 2510.5 1530.5Z" stroke="#042433" stroke-width="6.875" stroke-miterlimit="8" fill="#DCEAF7" fill-rule="evenodd"/><path d="M2980.5 1530.5C2980.5 1506.2 3000.2 1486.5 3024.5 1486.5 3048.8 1486.5 3068.5 1506.2 3068.5 1530.5 3068.5 1554.8 3048.8 1574.5 3024.5 1574.5 3000.2 1574.5 2980.5 1554.8 2980.5 1530.5Z" stroke="#042433" stroke-width="6.875" stroke-miterlimit="8" fill="#FDE78B" fill-rule="evenodd"/><path d="M2440.46 1366.11 2426.03 1391.64 2441.88 1391.64 2441.19 1378.59C2441.1 1376.81 2441.04 1374.58 2440.98 1371.91 2440.93 1369.23 2440.9 1367.3 2440.9 1366.11ZM2440.7 1357.56 2446.82 1357.56 2449.74 1402.75C2449.87 1404.88 2450.12 1406.55 2450.47 1407.75 2450.82 1408.95 2451.3 1409.85 2451.91 1410.43 2452.51 1411.01 2453.4 1411.38 2454.56 1411.54L2454.11 1413.53 2437.25 1413.53 2437.7 1411.54C2439.29 1411.41 2440.48 1410.78 2441.27 1409.68 2442.05 1408.57 2442.44 1406.62 2442.44 1403.84 2442.44 1402.79 2442.4 1401.64 2442.32 1400.4L2442.04 1395.17 2424.21 1395.17 2421.98 1399.14C2420.92 1401 2420.15 1402.6 2419.67 1403.94 2419.18 1405.28 2418.94 1406.46 2418.94 1407.49 2418.94 1409.76 2420.3 1411.11 2423.03 1411.54L2422.58 1413.53 2406.01 1413.53 2406.45 1411.54C2407.29 1411.43 2408.08 1411.1 2408.82 1410.55 2409.57 1409.99 2410.36 1409.16 2411.2 1408.04 2412.03 1406.91 2413.21 1405.06 2414.72 1402.46Z" fill="#215F9A" fill-rule="evenodd"/><text fill="#000000" fill-opacity="0" font-family="Arial,Arial_MSFontService,sans-serif" font-size="55.9683" x="2406.01" y="1406.53">𝐴</text><path d="M2453.44 1342.58 2456.6 1343.96C2455.58 1345.96 2454.6 1347.49 2453.66 1348.56 2452.73 1349.62 2451.84 1350.36 2450.99 1350.77 2450.14 1351.17 2449.17 1351.37 2448.09 1351.37 2447.36 1351.37 2446.73 1351.32 2446.19 1351.21 2445.65 1351.1 2445.11 1350.95 2444.59 1350.75 2444.06 1350.54 2443.24 1350.16 2442.13 1349.59 2441.4 1349.24 2440.83 1348.96 2440.41 1348.76 2439.99 1348.56 2439.55 1348.39 2439.09 1348.27 2438.63 1348.15 2438.15 1348.09 2437.64 1348.09 2436.93 1348.09 2436.34 1348.19 2435.87 1348.39 2435.4 1348.6 2434.92 1348.94 2434.43 1349.43 2433.95 1349.91 2433.43 1350.6 2432.89 1351.5L2429.77 1350.16C2431.07 1347.89 2432.12 1346.31 2432.93 1345.44 2433.74 1344.56 2434.58 1343.92 2435.43 1343.53 2436.28 1343.14 2437.3 1342.94 2438.49 1342.94 2439.13 1342.94 2439.72 1343 2440.25 1343.11 2440.78 1343.21 2441.26 1343.36 2441.71 1343.53 2442.15 1343.71 2442.92 1344.07 2444 1344.61 2444.78 1344.98 2445.4 1345.29 2445.86 1345.52 2446.32 1345.75 2446.79 1345.92 2447.28 1346.04 2447.77 1346.17 2448.32 1346.23 2448.94 1346.23 2449.81 1346.23 2450.58 1345.97 2451.25 1345.46 2451.93 1344.94 2452.66 1343.98 2453.44 1342.58Z" fill="#215F9A" fill-rule="evenodd"/><text fill="#000000" fill-opacity="0" font-family="Arial,Arial_MSFontService,sans-serif" font-size="8.91602" x="2429.77" y="1350.38">ሚ</text><path d="M2471.74 1401.07 2497.69 1401.07 2496.79 1405.61 2489.2 1405.61 2485.74 1420.79C2485.53 1421.67 2485.36 1422.45 2485.26 1423.13 2485.15 1423.82 2485.1 1424.41 2485.1 1424.92 2485.1 1425.55 2485.23 1426.04 2485.49 1426.42 2485.76 1426.79 2486.23 1426.97 2486.91 1426.97 2487.66 1426.97 2488.41 1426.68 2489.17 1426.09 2489.93 1425.51 2490.79 1424.68 2491.75 1423.6L2493.77 1425.51C2492.85 1426.5 2491.99 1427.34 2491.19 1428.03 2490.39 1428.71 2489.62 1429.26 2488.89 1429.68 2488.16 1430.1 2487.44 1430.41 2486.72 1430.6 2486.01 1430.8 2485.28 1430.9 2484.54 1430.9 2483.78 1430.9 2483.1 1430.76 2482.5 1430.49 2481.91 1430.21 2481.4 1429.83 2480.97 1429.33 2480.54 1428.83 2480.21 1428.24 2479.98 1427.56 2479.76 1426.87 2479.65 1426.13 2479.65 1425.33 2479.65 1424.55 2479.71 1423.71 2479.82 1422.81 2479.94 1421.91 2480.14 1420.85 2480.41 1419.62 2480.57 1419.01 2480.77 1418.19 2481.02 1417.14 2481.28 1416.1 2481.57 1414.95 2481.9 1413.69 2482.24 1412.43 2482.6 1411.11 2482.99 1409.73 2483.38 1408.35 2483.8 1407.02 2484.25 1405.73 2484.25 1405.65 2484.23 1405.61 2484.19 1405.61L2474.84 1405.61 2469.16 1430.37 2462.07 1430.37 2462.42 1428.35C2463.59 1427.24 2464.68 1425.51 2465.69 1423.16 2466.69 1420.82 2467.61 1417.86 2468.43 1414.29L2470.42 1405.61 2469.39 1405.61C2468.63 1405.61 2467.95 1405.66 2467.34 1405.76 2466.74 1405.86 2466.16 1406.05 2465.61 1406.33 2465.07 1406.62 2464.52 1407 2463.97 1407.49 2463.43 1407.98 2462.83 1408.6 2462.19 1409.36L2460.11 1407.31C2461.14 1406.14 2462.05 1405.16 2462.83 1404.37 2463.61 1403.58 2464.41 1402.94 2465.23 1402.45 2466.05 1401.96 2466.97 1401.61 2467.97 1401.4 2468.98 1401.18 2470.23 1401.07 2471.74 1401.07Z" fill="#215F9A" fill-rule="evenodd"/><text fill="#000000" fill-opacity="0" font-family="Arial,Arial_MSFontService,sans-serif" font-size="29.8242" x="2460.11" y="1427.17">𝜋</text><path d="M2513.12 1414.97C2511.64 1414.97 2510.46 1415.47 2509.59 1416.47 2508.72 1417.47 2508.11 1418.88 2507.75 1420.69 2507.39 1422.51 2507.21 1424.76 2507.21 1427.45 2507.21 1432.05 2507.69 1435.4 2508.64 1437.49 2509.59 1439.58 2511.1 1440.63 2513.17 1440.63 2515.12 1440.63 2516.57 1439.66 2517.5 1437.71 2518.44 1435.77 2518.91 1432.65 2518.91 1428.37 2518.91 1423.82 2518.44 1420.44 2517.5 1418.25 2516.57 1416.06 2515.1 1414.97 2513.12 1414.97ZM2513.17 1412.41C2515.23 1412.41 2516.97 1412.77 2518.37 1413.5 2519.77 1414.24 2520.9 1415.27 2521.77 1416.59 2522.64 1417.92 2523.26 1419.5 2523.63 1421.34 2524 1423.18 2524.18 1425.2 2524.18 1427.4 2524.18 1432.62 2523.2 1436.56 2521.24 1439.21 2519.28 1441.87 2516.46 1443.19 2512.78 1443.19 2509.15 1443.19 2506.43 1441.93 2504.64 1439.41 2502.84 1436.89 2501.94 1433.1 2501.94 1428.06 2501.94 1424.54 2502.42 1421.61 2503.38 1419.27 2504.34 1416.92 2505.66 1415.19 2507.33 1414.08 2509.01 1412.96 2510.95 1412.41 2513.17 1412.41Z" fill="#215F9A" fill-rule="evenodd"/><text fill="#000000" fill-opacity="0" font-family="Arial,Arial_MSFontService,sans-serif" font-size="30.7861" x="2501.94" y="1439.34">0</text><path d="M2612.38 1364.65 2612.38 1370.73 2568.37 1389.82 2612.38 1408.91 2612.38 1414.99 2562.29 1392.66 2562.29 1386.98Z" fill="#215F9A" fill-rule="evenodd"/><text fill="#000000" fill-opacity="0" font-family="Arial,Arial_MSFontService,sans-serif" font-size="50.335" x="2562.29" y="1408.69">&lt;</text><path d="M2664.02 1361C2662.16 1361 2660.6 1361.56 2659.34 1362.66 2658.08 1363.77 2657.07 1365.37 2656.3 1367.45 2655.53 1369.53 2654.98 1372.06 2654.66 1375.05 2654.33 1378.03 2654.17 1381.4 2654.17 1385.16 2654.17 1393.97 2654.99 1400.43 2656.62 1404.55 2658.26 1408.67 2660.79 1410.73 2664.22 1410.73 2667.49 1410.73 2669.92 1408.79 2671.5 1404.91 2673.08 1401.04 2673.87 1395.03 2673.87 1386.9 2673.87 1380.69 2673.46 1375.65 2672.65 1371.8 2671.84 1367.95 2670.71 1365.19 2669.27 1363.52 2667.82 1361.84 2666.07 1361 2664.02 1361ZM2664.22 1357.56C2670.14 1357.56 2674.54 1359.84 2677.44 1364.41 2680.33 1368.97 2681.77 1375.88 2681.77 1385.12 2681.77 1394.68 2680.22 1401.92 2677.13 1406.82 2674.04 1411.72 2669.52 1414.18 2663.57 1414.18 2657.74 1414.18 2653.4 1411.88 2650.55 1407.29 2647.69 1402.69 2646.27 1395.72 2646.27 1386.37 2646.27 1381.4 2646.71 1377.11 2647.59 1373.49 2648.46 1369.87 2649.69 1366.87 2651.27 1364.51 2652.86 1362.14 2654.75 1360.4 2656.97 1359.26 2659.18 1358.13 2661.6 1357.56 2664.22 1357.56Z" fill="#215F9A" fill-rule="evenodd"/><text fill="#000000" fill-opacity="0" font-family="Arial,Arial_MSFontService,sans-serif" font-size="56.6167" x="2646.27" y="1407.1">0</text><path d="M2917.63 1350.12 2903.2 1375.65 2919.04 1375.65 2918.35 1362.6C2918.27 1360.82 2918.21 1358.59 2918.15 1355.92 2918.1 1353.24 2918.07 1351.31 2918.07 1350.12ZM2917.87 1341.57 2923.99 1341.57 2926.91 1386.76C2927.04 1388.89 2927.28 1390.56 2927.64 1391.76 2927.99 1392.97 2928.47 1393.86 2929.07 1394.44 2929.68 1395.02 2930.57 1395.39 2931.73 1395.55L2931.28 1397.54 2914.42 1397.54 2914.87 1395.55C2916.46 1395.42 2917.65 1394.8 2918.44 1393.69 2919.22 1392.58 2919.61 1390.64 2919.61 1387.85 2919.61 1386.8 2919.57 1385.65 2919.49 1384.41L2919.21 1379.18 2901.37 1379.18 2899.14 1383.15C2898.09 1385.02 2897.32 1386.62 2896.83 1387.95 2896.35 1389.29 2896.11 1390.47 2896.11 1391.5 2896.11 1393.77 2897.47 1395.12 2900.2 1395.55L2899.75 1397.54 2883.18 1397.54 2883.62 1395.55C2884.46 1395.45 2885.25 1395.11 2885.99 1394.56 2886.74 1394.01 2887.53 1393.17 2888.36 1392.05 2889.2 1390.93 2890.38 1389.07 2891.89 1386.48Z" fill="#CC9900" fill-rule="evenodd"/><text fill="#000000" fill-opacity="0" font-family="Arial,Arial_MSFontService,sans-serif" font-size="55.9683" x="2883.18" y="1390.54">𝐴</text><path d="M2930.61 1326.59 2933.77 1327.97C2932.74 1329.97 2931.76 1331.5 2930.83 1332.57 2929.9 1333.64 2929.01 1334.37 2928.16 1334.78 2927.31 1335.18 2926.34 1335.39 2925.26 1335.39 2924.53 1335.39 2923.9 1335.33 2923.35 1335.22 2922.81 1335.12 2922.28 1334.96 2921.75 1334.76 2921.23 1334.56 2920.41 1334.17 2919.3 1333.6 2918.57 1333.25 2918 1332.97 2917.58 1332.77 2917.16 1332.57 2916.72 1332.41 2916.26 1332.29 2915.8 1332.16 2915.32 1332.1 2914.8 1332.1 2914.1 1332.1 2913.51 1332.2 2913.04 1332.41 2912.57 1332.61 2912.09 1332.95 2911.6 1333.44 2911.12 1333.93 2910.6 1334.62 2910.06 1335.51L2906.94 1334.17C2908.24 1331.9 2909.29 1330.33 2910.1 1329.45 2910.91 1328.57 2911.74 1327.94 2912.59 1327.54 2913.45 1327.15 2914.47 1326.96 2915.65 1326.96 2916.3 1326.96 2916.89 1327.01 2917.42 1327.12 2917.94 1327.23 2918.43 1327.37 2918.88 1327.54 2919.32 1327.72 2920.09 1328.08 2921.17 1328.62 2921.95 1329 2922.57 1329.3 2923.03 1329.53 2923.49 1329.76 2923.96 1329.94 2924.45 1330.06 2924.94 1330.18 2925.49 1330.24 2926.11 1330.24 2926.98 1330.24 2927.75 1329.98 2928.42 1329.47 2929.1 1328.96 2929.83 1328 2930.61 1326.59Z" fill="#CC9900" fill-rule="evenodd"/><text fill="#000000" fill-opacity="0" font-family="Arial,Arial_MSFontService,sans-serif" font-size="8.91602" x="2906.94" y="1334.39">ሚ</text><path d="M2948.91 1385.09 2974.86 1385.09 2973.95 1389.63 2966.37 1389.63 2962.91 1404.8C2962.69 1405.68 2962.53 1406.46 2962.43 1407.15 2962.32 1407.83 2962.26 1408.43 2962.26 1408.93 2962.26 1409.56 2962.4 1410.06 2962.66 1410.43 2962.92 1410.8 2963.4 1410.98 2964.08 1410.98 2964.82 1410.98 2965.58 1410.69 2966.34 1410.11 2967.1 1409.52 2967.96 1408.69 2968.92 1407.62L2970.94 1409.52C2970.02 1410.52 2969.16 1411.36 2968.36 1412.04 2967.56 1412.72 2966.79 1413.27 2966.06 1413.69 2965.33 1414.11 2964.6 1414.42 2963.89 1414.62 2963.18 1414.81 2962.45 1414.91 2961.71 1414.91 2960.95 1414.91 2960.27 1414.77 2959.67 1414.5 2959.08 1414.23 2958.56 1413.84 2958.13 1413.34 2957.7 1412.85 2957.38 1412.25 2957.15 1411.57 2956.93 1410.89 2956.82 1410.14 2956.82 1409.34 2956.82 1408.56 2956.87 1407.72 2956.99 1406.82 2957.11 1405.93 2957.3 1404.86 2957.58 1403.63 2957.73 1403.03 2957.94 1402.2 2958.19 1401.16 2958.45 1400.11 2958.74 1398.96 2959.07 1397.7 2959.4 1396.44 2959.76 1395.12 2960.16 1393.74 2960.55 1392.37 2960.97 1391.03 2961.42 1389.74 2961.42 1389.67 2961.4 1389.63 2961.36 1389.63L2952.01 1389.63 2946.33 1414.38 2939.24 1414.38 2939.59 1412.36C2940.76 1411.25 2941.85 1409.52 2942.86 1407.18 2943.86 1404.83 2944.77 1401.87 2945.59 1398.3L2947.59 1389.63 2946.56 1389.63C2945.8 1389.63 2945.12 1389.68 2944.51 1389.77 2943.91 1389.87 2943.33 1390.06 2942.78 1390.35 2942.24 1390.63 2941.69 1391.01 2941.14 1391.5 2940.59 1391.99 2940 1392.62 2939.35 1393.38L2937.27 1391.33C2938.31 1390.15 2939.22 1389.17 2940 1388.38 2940.78 1387.59 2941.58 1386.95 2942.4 1386.46 2943.22 1385.97 2944.14 1385.62 2945.14 1385.41 2946.15 1385.19 2947.4 1385.09 2948.91 1385.09Z" fill="#CC9900" fill-rule="evenodd"/><text fill="#000000" fill-opacity="0" font-family="Arial,Arial_MSFontService,sans-serif" font-size="29.8242" x="2937.27" y="1411.18">𝜋</text><path d="M2990.29 1398.98C2988.81 1398.98 2987.63 1399.48 2986.76 1400.48 2985.89 1401.48 2985.27 1402.89 2984.92 1404.71 2984.56 1406.52 2984.38 1408.77 2984.38 1411.46 2984.38 1416.06 2984.86 1419.41 2985.81 1421.5 2986.76 1423.6 2988.27 1424.64 2990.34 1424.64 2992.29 1424.64 2993.73 1423.67 2994.67 1421.72 2995.61 1419.78 2996.07 1416.67 2996.07 1412.39 2996.07 1407.83 2995.61 1404.46 2994.67 1402.27 2993.73 1400.08 2992.27 1398.98 2990.29 1398.98ZM2990.34 1396.42C2992.4 1396.42 2994.14 1396.79 2995.54 1397.52 2996.94 1398.25 2998.07 1399.28 2998.94 1400.61 2999.81 1401.93 3000.43 1403.52 3000.8 1405.35 3001.16 1407.19 3001.35 1409.21 3001.35 1411.41 3001.35 1416.63 3000.37 1420.57 2998.41 1423.23 2996.44 1425.88 2993.62 1427.21 2989.95 1427.21 2986.32 1427.21 2983.6 1425.94 2981.8 1423.42 2980 1420.9 2979.11 1417.11 2979.11 1412.07 2979.11 1408.55 2979.59 1405.62 2980.55 1403.28 2981.51 1400.94 2982.82 1399.21 2984.5 1398.09 2986.18 1396.98 2988.12 1396.42 2990.34 1396.42Z" fill="#CC9900" fill-rule="evenodd"/><text fill="#000000" fill-opacity="0" font-family="Arial,Arial_MSFontService,sans-serif" font-size="30.7861" x="2979.11" y="1423.36">0</text><path d="M3039.46 1348.66 3089.55 1370.99 3089.55 1376.67 3039.46 1399 3039.46 1392.92 3083.47 1373.83 3039.46 1354.74Z" fill="#CC9900" fill-rule="evenodd"/><text fill="#000000" fill-opacity="0" font-family="Arial,Arial_MSFontService,sans-serif" font-size="50.335" x="3039.46" y="1392.71">&gt;</text><path d="M3141.19 1345.02C3139.32 1345.02 3137.76 1345.57 3136.51 1346.68 3135.25 1347.79 3134.24 1349.38 3133.47 1351.46 3132.7 1353.54 3132.15 1356.07 3131.83 1359.06 3131.5 1362.04 3131.34 1365.41 3131.34 1369.17 3131.34 1377.98 3132.16 1384.44 3133.79 1388.56 3135.43 1392.68 3137.96 1394.74 3141.39 1394.74 3144.66 1394.74 3147.09 1392.8 3148.67 1388.93 3150.25 1385.05 3151.04 1379.05 3151.04 1370.91 3151.04 1364.7 3150.63 1359.67 3149.82 1355.82 3149.01 1351.97 3147.88 1349.2 3146.44 1347.53 3144.99 1345.85 3143.24 1345.02 3141.19 1345.02ZM3141.39 1341.57C3147.31 1341.57 3151.71 1343.85 3154.6 1348.42 3157.49 1352.99 3158.94 1359.89 3158.94 1369.13 3158.94 1378.69 3157.39 1385.93 3154.3 1390.83 3151.21 1395.74 3146.69 1398.19 3140.74 1398.19 3134.91 1398.19 3130.56 1395.89 3127.71 1391.3 3124.86 1386.71 3123.44 1379.73 3123.44 1370.39 3123.44 1365.41 3123.88 1361.12 3124.76 1357.5 3125.63 1353.88 3126.86 1350.89 3128.44 1348.52 3130.02 1346.16 3131.92 1344.41 3134.14 1343.27 3136.35 1342.14 3138.77 1341.57 3141.39 1341.57Z" fill="#CC9900" fill-rule="evenodd"/><text fill="#000000" fill-opacity="0" font-family="Arial,Arial_MSFontService,sans-serif" font-size="56.6167" x="3123.44" y="1391.11">0</text><path d="M2445.56 1617 2447.79 1617C2447.63 1619.6 2447.55 1623.19 2447.55 1627.78L2447.55 1662.39C2447.55 1663.96 2447.64 1665.14 2447.81 1665.94 2447.99 1666.74 2448.3 1667.38 2448.74 1667.88 2449.19 1668.38 2449.83 1668.78 2450.67 1669.06 2451.51 1669.34 2452.56 1669.56 2453.83 1669.71 2455.1 1669.86 2456.78 1669.96 2458.86 1670.01L2458.86 1672.97 2428.91 1672.97 2428.91 1670.01C2431.91 1669.88 2434.05 1669.69 2435.33 1669.46 2436.61 1669.23 2437.59 1668.89 2438.27 1668.43 2438.94 1667.97 2439.44 1667.32 2439.75 1666.49 2440.06 1665.65 2440.21 1664.28 2440.21 1662.39L2440.21 1629.52C2440.21 1628.44 2440.02 1627.65 2439.65 1627.15 2439.27 1626.65 2438.71 1626.4 2437.98 1626.4 2437.12 1626.4 2435.89 1626.85 2434.3 1627.74 2432.7 1628.63 2430.73 1629.86 2428.38 1631.43L2426.6 1628.31Z" fill-rule="evenodd"/><text fill="#000000" fill-opacity="0" font-family="Arial,Arial_MSFontService,sans-serif" font-size="55.9683" x="2426.6" y="1665.97">1</text><path d="M2489.59 1646.55 2539.52 1646.55 2539.52 1651.94 2489.59 1651.94Z" fill-rule="evenodd"/><text fill="#000000" fill-opacity="0" font-family="Arial,Arial_MSFontService,sans-serif" font-size="5.39014" x="2489.59" y="1651.26">−</text><path d="M2591.84 1633.54C2593.71 1633.54 2595.41 1633.66 2596.95 1633.9 2598.49 1634.14 2600.1 1634.62 2601.77 1635.32L2600.35 1638.93C2597.68 1638.09 2594.94 1637.67 2592.13 1637.67 2588.4 1637.67 2585.15 1638.8 2582.38 1641.05 2579.61 1643.31 2577.6 1646.52 2576.36 1650.68L2596.75 1650.68 2595.86 1654.89 2575.31 1654.89C2575.17 1655.38 2575.03 1656.16 2574.88 1657.24 2574.73 1658.33 2574.66 1659.37 2574.66 1660.37 2574.66 1663.28 2575.39 1665.53 2576.85 1667.09 2578.31 1668.66 2580.31 1669.44 2582.85 1669.44 2585.06 1669.44 2586.97 1669.29 2588.58 1668.98 2590.19 1668.67 2591.9 1668.17 2593.71 1667.5L2594.64 1670.74C2592.21 1671.71 2589.96 1672.44 2587.89 1672.91 2585.82 1673.38 2583.47 1673.62 2580.82 1673.62 2576.69 1673.62 2573.52 1672.46 2571.32 1670.13 2569.11 1667.81 2568.01 1664.5 2568.01 1660.2 2568.01 1658.1 2568.29 1655.76 2568.84 1653.19 2569.4 1650.63 2570.31 1648.17 2571.58 1645.82 2572.85 1643.47 2574.47 1641.36 2576.44 1639.49 2578.42 1637.63 2580.71 1636.17 2583.31 1635.12 2585.92 1634.06 2588.76 1633.54 2591.84 1633.54Z" fill-rule="evenodd"/><text fill="#000000" fill-opacity="0" font-family="Arial,Arial_MSFontService,sans-serif" font-size="40.0815" x="2568.01" y="1668.61">𝜖</text><path d="M2914.76 1617 2916.99 1617C2916.83 1619.6 2916.75 1623.19 2916.75 1627.78L2916.75 1662.39C2916.75 1663.96 2916.84 1665.14 2917.01 1665.94 2917.19 1666.74 2917.5 1667.38 2917.94 1667.88 2918.39 1668.38 2919.03 1668.78 2919.87 1669.06 2920.71 1669.34 2921.76 1669.56 2923.03 1669.71 2924.3 1669.86 2925.98 1669.96 2928.06 1670.01L2928.06 1672.97 2898.11 1672.97 2898.11 1670.01C2901.11 1669.88 2903.25 1669.69 2904.53 1669.46 2905.81 1669.24 2906.79 1668.89 2907.47 1668.43 2908.14 1667.97 2908.64 1667.32 2908.95 1666.49 2909.26 1665.65 2909.41 1664.28 2909.41 1662.39L2909.41 1629.53C2909.41 1628.44 2909.22 1627.65 2908.85 1627.15 2908.47 1626.65 2907.91 1626.4 2907.18 1626.4 2906.32 1626.4 2905.09 1626.85 2903.5 1627.74 2901.9 1628.63 2899.93 1629.86 2897.58 1631.43L2895.8 1628.31Z" fill-rule="evenodd"/><text fill="#000000" fill-opacity="0" font-family="Arial,Arial_MSFontService,sans-serif" font-size="55.9683" x="2895.8" y="1665.97">1</text><path d="M2980.88 1623.2 2986.63 1623.2 2986.63 1646.55 3008.72 1646.55 3008.72 1651.94 2986.63 1651.94 2986.63 1675.28 2980.88 1675.28 2980.88 1651.94 2958.79 1651.94 2958.79 1646.55 2980.88 1646.55Z" fill-rule="evenodd"/><text fill="#000000" fill-opacity="0" font-family="Arial,Arial_MSFontService,sans-serif" font-size="52.0776" x="2958.79" y="1668.77">+</text><path d="M3061.04 1633.54C3062.91 1633.54 3064.61 1633.66 3066.15 1633.9 3067.69 1634.15 3069.3 1634.62 3070.97 1635.32L3069.55 1638.93C3066.88 1638.09 3064.14 1637.67 3061.33 1637.67 3057.6 1637.67 3054.35 1638.8 3051.58 1641.06 3048.81 1643.31 3046.8 1646.52 3045.56 1650.68L3065.95 1650.68 3065.06 1654.9 3044.51 1654.9C3044.37 1655.38 3044.23 1656.17 3044.08 1657.25 3043.93 1658.33 3043.86 1659.37 3043.86 1660.37 3043.86 1663.28 3044.59 1665.53 3046.05 1667.09 3047.51 1668.66 3049.51 1669.44 3052.05 1669.44 3054.26 1669.44 3056.17 1669.29 3057.78 1668.98 3059.39 1668.67 3061.1 1668.17 3062.91 1667.5L3063.84 1670.74C3061.41 1671.71 3059.16 1672.44 3057.09 1672.91 3055.02 1673.38 3052.67 1673.62 3050.02 1673.62 3045.89 1673.62 3042.72 1672.46 3040.52 1670.13 3038.31 1667.81 3037.21 1664.5 3037.21 1660.2 3037.21 1658.1 3037.49 1655.76 3038.04 1653.19 3038.6 1650.63 3039.51 1648.17 3040.78 1645.82 3042.05 1643.47 3043.67 1641.36 3045.64 1639.49 3047.61 1637.63 3049.9 1636.17 3052.51 1635.12 3055.12 1634.06 3057.96 1633.54 3061.04 1633.54Z" fill-rule="evenodd"/><text fill="#000000" fill-opacity="0" font-family="Arial,Arial_MSFontService,sans-serif" font-size="40.0815" x="3037.21" y="1668.61">𝜖</text><path d="M3323.61 1485.62C3322.58 1485.62 3321.6 1485.81 3320.67 1486.17 3319.74 1486.54 3318.77 1487.16 3317.75 1488.04 3316.74 1488.91 3315.78 1490.1 3314.86 1491.58 3313.94 1493.07 3313.11 1494.82 3312.38 1496.83 3311.66 1498.84 3310.95 1501.42 3310.28 1504.55L3308.86 1511.08C3308.8 1511.37 3308.74 1511.8 3308.68 1512.35 3308.61 1512.91 3308.58 1513.41 3308.58 1513.87 3308.58 1515.6 3309.28 1516.93 3310.7 1517.86 3312.12 1518.8 3314.01 1519.26 3316.36 1519.26 3319.14 1519.26 3321.6 1518.13 3323.75 1515.88 3325.9 1513.62 3327.57 1510.51 3328.76 1506.56 3329.95 1502.6 3330.54 1498.66 3330.54 1494.74 3330.54 1492.99 3330.36 1491.45 3329.99 1490.14 3329.63 1488.83 3328.93 1487.75 3327.91 1486.9 3326.88 1486.05 3325.45 1485.62 3323.61 1485.62ZM3324.66 1482.42C3327.29 1482.42 3329.6 1482.96 3331.59 1484.02 3333.59 1485.09 3335.11 1486.64 3336.13 1488.66 3337.16 1490.69 3337.67 1493.18 3337.67 1496.12 3337.67 1500.71 3336.78 1505.07 3334.98 1509.19 3333.18 1513.31 3330.68 1516.55 3327.48 1518.92 3324.28 1521.28 3320.69 1522.46 3316.72 1522.46 3314.88 1522.46 3313.14 1522.3 3311.49 1521.98 3309.84 1521.65 3308.2 1521.1 3306.55 1520.32L3302.33 1539.32 3295.69 1539.32 3303.91 1502.65C3304.89 1498.32 3306.28 1494.7 3308.09 1491.78 3309.9 1488.87 3312.2 1486.58 3314.98 1484.92 3317.76 1483.25 3320.99 1482.42 3324.66 1482.42Z" fill-rule="evenodd"/><text fill="#000000" fill-opacity="0" font-family="Arial,Arial_MSFontService,sans-serif" font-size="56.9004" x="3295.69" y="1532.21">𝜌</text></g></svg>