<svg width="1878" height="800" xmlns="http://www.w3.org/2000/svg" xmlns:xlink="http://www.w3.org/1999/xlink" xml:space="preserve" overflow="hidden"><g transform="translate(-1131 -814)"><path d="M2272.5 1411.06 2910.2 1411.06 2910.2 1417.94 2272.5 1417.94ZM2905.62 1400.75 2933.12 1414.5 2905.62 1428.25Z"/><path d="M2450.5 1414C2450.5 1398.26 2463.04 1385.5 2478.5 1385.5 2493.96 1385.5 2506.5 1398.26 2506.5 1414 2506.5 1429.74 2493.96 1442.5 2478.5 1442.5 2463.04 1442.5 2450.5 1429.74 2450.5 1414Z" stroke="#042433" stroke-width="6.875" stroke-miterlimit="8" fill="#DCEAF7" fill-rule="evenodd"/><path d="M2711.78 1165.4 2700.66 1185.09 2712.87 1185.09 2712.34 1175.03C2712.28 1173.65 2712.23 1171.93 2712.19 1169.87 2712.15 1167.81 2712.12 1166.32 2712.12 1165.4ZM2711.97 1158.81 2716.69 1158.81 2718.94 1193.65C2719.04 1195.3 2719.23 1196.58 2719.5 1197.51 2719.77 1198.44 2720.14 1199.13 2720.61 1199.57 2721.08 1200.02 2721.76 1200.31 2722.66 1200.43L2722.31 1201.96 2709.31 1201.96 2709.66 1200.43C2710.89 1200.33 2711.8 1199.85 2712.41 1198.99 2713.01 1198.14 2713.31 1196.64 2713.31 1194.49 2713.31 1193.68 2713.28 1192.8 2713.22 1191.84L2713 1187.81 2699.25 1187.81 2697.53 1190.87C2696.72 1192.31 2696.12 1193.54 2695.75 1194.57 2695.37 1195.6 2695.19 1196.52 2695.19 1197.31 2695.19 1199.06 2696.24 1200.1 2698.34 1200.43L2698 1201.96 2685.22 1201.96 2685.56 1200.43C2686.21 1200.35 2686.82 1200.09 2687.39 1199.67 2687.96 1199.24 2688.57 1198.59 2689.22 1197.73 2689.86 1196.86 2690.77 1195.43 2691.94 1193.43Z" fill="#215F9A" fill-rule="evenodd"/><text fill="#000000" fill-opacity="0" font-family="Arial,Arial_MSFontService,sans-serif" font-size="43.1562" x="2685.22" y="1196.57">𝐴</text><path d="M2736.54 1192.1 2756.87 1192.1 2756.16 1195.66 2750.21 1195.66 2747.51 1207.54C2747.34 1208.23 2747.21 1208.84 2747.13 1209.38 2747.04 1209.92 2747 1210.38 2747 1210.78 2747 1211.27 2747.11 1211.66 2747.31 1211.95 2747.52 1212.24 2747.89 1212.39 2748.42 1212.39 2749.01 1212.39 2749.6 1212.16 2750.19 1211.7 2750.79 1211.24 2751.46 1210.59 2752.21 1209.75L2753.79 1211.24C2753.08 1212.02 2752.4 1212.68 2751.78 1213.21 2751.15 1213.75 2750.55 1214.18 2749.97 1214.51 2749.4 1214.84 2748.83 1215.08 2748.28 1215.23 2747.72 1215.39 2747.15 1215.46 2746.57 1215.46 2745.97 1215.46 2745.44 1215.35 2744.97 1215.14 2744.5 1214.93 2744.1 1214.62 2743.77 1214.23 2743.43 1213.84 2743.17 1213.38 2743 1212.85 2742.82 1212.31 2742.73 1211.73 2742.73 1211.1 2742.73 1210.49 2742.78 1209.83 2742.87 1209.13 2742.96 1208.42 2743.12 1207.59 2743.33 1206.63 2743.45 1206.15 2743.61 1205.51 2743.81 1204.69 2744.01 1203.87 2744.24 1202.97 2744.5 1201.98 2744.76 1200.99 2745.04 1199.96 2745.35 1198.88 2745.66 1197.8 2745.98 1196.76 2746.34 1195.75 2746.34 1195.69 2746.32 1195.66 2746.29 1195.66L2738.97 1195.66 2734.52 1215.05 2728.96 1215.05 2729.24 1213.47C2730.16 1212.59 2731.01 1211.24 2731.8 1209.4 2732.59 1207.57 2733.3 1205.25 2733.94 1202.45L2735.5 1195.66 2734.7 1195.66C2734.1 1195.66 2733.57 1195.7 2733.09 1195.77 2732.62 1195.85 2732.17 1196 2731.74 1196.22 2731.31 1196.44 2730.88 1196.74 2730.46 1197.13 2730.03 1197.51 2729.56 1198 2729.06 1198.59L2727.43 1196.99C2728.24 1196.07 2728.95 1195.3 2729.56 1194.68 2730.17 1194.06 2730.8 1193.56 2731.44 1193.18 2732.08 1192.8 2732.8 1192.52 2733.59 1192.35 2734.38 1192.18 2735.36 1192.1 2736.54 1192.1Z" fill="#215F9A" fill-rule="evenodd"/><text fill="#000000" fill-opacity="0" font-family="Arial,Arial_MSFontService,sans-serif" font-size="23.3623" x="2727.43" y="1212.54">𝜋</text><path d="M2768.87 1203.01C2767.72 1203.01 2766.8 1203.4 2766.12 1204.18 2765.44 1204.96 2764.96 1206.06 2764.69 1207.47 2764.41 1208.89 2764.27 1210.64 2764.27 1212.74 2764.27 1216.33 2764.64 1218.94 2765.38 1220.57 2766.12 1222.21 2767.3 1223.02 2768.91 1223.02 2770.44 1223.02 2771.56 1222.26 2772.29 1220.75 2773.02 1219.23 2773.39 1216.8 2773.39 1213.46 2773.39 1209.91 2773.02 1207.28 2772.29 1205.57 2771.56 1203.86 2770.42 1203.01 2768.87 1203.01ZM2768.91 1201.01C2770.52 1201.01 2771.88 1201.29 2772.97 1201.86 2774.06 1202.44 2774.95 1203.24 2775.63 1204.27 2776.3 1205.31 2776.79 1206.54 2777.07 1207.98 2777.36 1209.41 2777.5 1210.99 2777.5 1212.7 2777.5 1216.77 2776.74 1219.85 2775.21 1221.92 2773.68 1223.99 2771.48 1225.02 2768.61 1225.02 2765.78 1225.02 2763.66 1224.04 2762.26 1222.07 2760.85 1220.1 2760.15 1217.15 2760.15 1213.21 2760.15 1210.47 2760.53 1208.19 2761.28 1206.36 2762.03 1204.53 2763.05 1203.18 2764.36 1202.31 2765.67 1201.44 2767.19 1201.01 2768.91 1201.01Z" fill="#215F9A" fill-rule="evenodd"/><text fill="#000000" fill-opacity="0" font-family="Arial,Arial_MSFontService,sans-serif" font-size="24.0132" x="2760.15" y="1222.02">0</text><path d="M2845.87 1164.28 2845.87 1168.96 2811.94 1183.68 2845.87 1198.4 2845.87 1203.09 2807.25 1185.87 2807.25 1181.49Z" fill="#215F9A" fill-rule="evenodd"/><text fill="#000000" fill-opacity="0" font-family="Arial,Arial_MSFontService,sans-serif" font-size="38.8125" x="2807.25" y="1198.24">&lt;</text><path d="M2886.26 1161.46C2884.83 1161.46 2883.62 1161.89 2882.66 1162.74 2881.69 1163.6 2880.91 1164.83 2880.31 1166.43 2879.72 1168.04 2879.3 1169.99 2879.05 1172.29 2878.8 1174.59 2878.67 1177.19 2878.67 1180.09 2878.67 1186.88 2879.3 1191.86 2880.56 1195.04 2881.82 1198.22 2883.77 1199.81 2886.42 1199.81 2888.94 1199.81 2890.81 1198.31 2892.03 1195.32 2893.25 1192.33 2893.86 1187.7 2893.86 1181.43 2893.86 1176.64 2893.55 1172.76 2892.92 1169.79 2892.3 1166.82 2891.43 1164.69 2890.31 1163.4 2889.2 1162.11 2887.85 1161.46 2886.26 1161.46ZM2886.42 1158.81C2890.98 1158.81 2894.38 1160.57 2896.61 1164.09 2898.84 1167.61 2899.95 1172.93 2899.95 1180.06 2899.95 1187.43 2898.76 1193.01 2896.37 1196.79 2893.99 1200.57 2890.5 1202.46 2885.92 1202.46 2881.42 1202.46 2878.07 1200.69 2875.87 1197.15 2873.68 1193.61 2872.58 1188.23 2872.58 1181.03 2872.58 1177.19 2872.92 1173.88 2873.59 1171.09 2874.27 1168.3 2875.22 1165.99 2876.44 1164.17 2877.66 1162.34 2879.12 1160.99 2880.83 1160.12 2882.54 1159.24 2884.4 1158.81 2886.42 1158.81Z" fill="#215F9A" fill-rule="evenodd"/><text fill="#000000" fill-opacity="0" font-family="Arial,Arial_MSFontService,sans-serif" font-size="43.6562" x="2872.58" y="1197.01">0</text><path d="M2381.65 1161.44 2370.52 1181.13 2382.74 1181.13 2382.21 1171.07C2382.15 1169.69 2382.1 1167.98 2382.05 1165.91 2382.01 1163.85 2381.99 1162.36 2381.99 1161.44ZM2381.84 1154.85 2386.55 1154.85 2388.8 1189.69C2388.91 1191.34 2389.1 1192.63 2389.37 1193.55 2389.64 1194.48 2390.01 1195.17 2390.48 1195.62 2390.95 1196.06 2391.63 1196.35 2392.52 1196.48L2392.18 1198.01 2379.18 1198.01 2379.52 1196.48C2380.75 1196.37 2381.67 1195.89 2382.27 1195.04 2382.88 1194.18 2383.18 1192.68 2383.18 1190.54 2383.18 1189.73 2383.15 1188.84 2383.09 1187.88L2382.87 1183.85 2369.12 1183.85 2367.4 1186.91C2366.59 1188.35 2365.99 1189.58 2365.62 1190.62 2365.24 1191.65 2365.05 1192.56 2365.05 1193.35 2365.05 1195.1 2366.11 1196.14 2368.21 1196.48L2367.87 1198.01 2355.09 1198.01 2355.43 1196.48C2356.08 1196.39 2356.69 1196.14 2357.26 1195.71 2357.83 1195.28 2358.44 1194.64 2359.09 1193.77 2359.73 1192.91 2360.64 1191.48 2361.8 1189.48Z" fill="#CC9900" fill-rule="evenodd"/><text fill="#000000" fill-opacity="0" font-family="Arial,Arial_MSFontService,sans-serif" font-size="43.1562" x="2355.09" y="1192.61">𝐴</text><path d="M2406.4 1188.14 2426.74 1188.14 2426.03 1191.7 2420.08 1191.7 2417.37 1203.59C2417.21 1204.28 2417.08 1204.89 2417 1205.42 2416.91 1205.96 2416.87 1206.43 2416.87 1206.82 2416.87 1207.31 2416.97 1207.7 2417.18 1207.99 2417.39 1208.28 2417.76 1208.43 2418.29 1208.43 2418.87 1208.43 2419.46 1208.2 2420.06 1207.74 2420.66 1207.28 2421.33 1206.63 2422.08 1205.79L2423.66 1207.28C2422.94 1208.06 2422.27 1208.72 2421.64 1209.26 2421.02 1209.79 2420.42 1210.22 2419.84 1210.55 2419.27 1210.88 2418.7 1211.12 2418.14 1211.28 2417.58 1211.43 2417.01 1211.51 2416.43 1211.51 2415.84 1211.51 2415.31 1211.4 2414.84 1211.18 2414.37 1210.97 2413.97 1210.67 2413.63 1210.28 2413.3 1209.89 2413.04 1209.42 2412.86 1208.89 2412.69 1208.35 2412.6 1207.77 2412.6 1207.14 2412.6 1206.53 2412.65 1205.88 2412.74 1205.17 2412.83 1204.47 2412.98 1203.63 2413.2 1202.67 2413.32 1202.2 2413.48 1201.55 2413.68 1200.73 2413.88 1199.91 2414.11 1199.01 2414.37 1198.02 2414.63 1197.04 2414.91 1196 2415.22 1194.92 2415.52 1193.85 2415.85 1192.8 2416.2 1191.79 2416.2 1191.73 2416.19 1191.7 2416.16 1191.7L2408.84 1191.7 2404.39 1211.09 2398.83 1211.09 2399.11 1209.51C2400.02 1208.64 2400.88 1207.28 2401.67 1205.45 2402.45 1203.61 2403.17 1201.29 2403.81 1198.49L2405.37 1191.7 2404.57 1191.7C2403.97 1191.7 2403.44 1191.74 2402.96 1191.81 2402.49 1191.89 2402.04 1192.04 2401.61 1192.26 2401.18 1192.48 2400.75 1192.79 2400.32 1193.17 2399.89 1193.55 2399.43 1194.04 2398.92 1194.64L2397.29 1193.03C2398.1 1192.11 2398.82 1191.34 2399.43 1190.72 2400.04 1190.11 2400.67 1189.6 2401.31 1189.22 2401.95 1188.84 2402.67 1188.56 2403.46 1188.4 2404.24 1188.23 2405.23 1188.14 2406.4 1188.14Z" fill="#CC9900" fill-rule="evenodd"/><text fill="#000000" fill-opacity="0" font-family="Arial,Arial_MSFontService,sans-serif" font-size="23.3623" x="2397.29" y="1208.58">𝜋</text><path d="M2438.74 1199.05C2437.59 1199.05 2436.67 1199.44 2435.99 1200.22 2435.31 1201 2434.83 1202.1 2434.55 1203.52 2434.27 1204.93 2434.13 1206.69 2434.13 1208.78 2434.13 1212.37 2434.51 1214.99 2435.25 1216.62 2435.99 1218.25 2437.17 1219.06 2438.78 1219.06 2440.3 1219.06 2441.43 1218.31 2442.16 1216.79 2442.89 1215.27 2443.26 1212.84 2443.26 1209.5 2443.26 1205.95 2442.89 1203.32 2442.16 1201.61 2441.43 1199.9 2440.29 1199.05 2438.74 1199.05ZM2438.78 1197.05C2440.39 1197.05 2441.74 1197.34 2442.84 1197.91 2443.93 1198.48 2444.81 1199.28 2445.49 1200.32 2446.17 1201.35 2446.65 1202.59 2446.94 1204.02 2447.23 1205.45 2447.37 1207.03 2447.37 1208.74 2447.37 1212.82 2446.6 1215.89 2445.07 1217.96 2443.54 1220.03 2441.34 1221.06 2438.48 1221.06 2435.64 1221.06 2433.53 1220.08 2432.12 1218.11 2430.72 1216.14 2430.02 1213.19 2430.02 1209.26 2430.02 1206.51 2430.4 1204.23 2431.14 1202.4 2431.89 1200.57 2432.92 1199.22 2434.23 1198.35 2435.54 1197.49 2437.05 1197.05 2438.78 1197.05Z" fill="#CC9900" fill-rule="evenodd"/><text fill="#000000" fill-opacity="0" font-family="Arial,Arial_MSFontService,sans-serif" font-size="24.0132" x="2430.02" y="1218.06">0</text><path d="M2477.12 1160.32 2515.74 1177.54 2515.74 1181.91 2477.12 1199.13 2477.12 1194.44 2511.05 1179.73 2477.12 1165.01Z" fill="#CC9900" fill-rule="evenodd"/><text fill="#000000" fill-opacity="0" font-family="Arial,Arial_MSFontService,sans-serif" font-size="38.8125" x="2477.12" y="1194.28">&gt;</text><path d="M2556.13 1157.51C2554.69 1157.51 2553.49 1157.93 2552.52 1158.79 2551.55 1159.64 2550.77 1160.87 2550.18 1162.48 2549.58 1164.08 2549.16 1166.03 2548.91 1168.33 2548.66 1170.64 2548.54 1173.24 2548.54 1176.13 2548.54 1182.92 2549.17 1187.91 2550.43 1191.08 2551.69 1194.26 2553.64 1195.85 2556.29 1195.85 2558.81 1195.85 2560.68 1194.36 2561.9 1191.37 2563.12 1188.38 2563.73 1183.75 2563.73 1177.48 2563.73 1172.68 2563.41 1168.8 2562.79 1165.83 2562.16 1162.87 2561.29 1160.74 2560.18 1159.44 2559.06 1158.15 2557.72 1157.51 2556.13 1157.51ZM2556.29 1154.85C2560.85 1154.85 2564.25 1156.61 2566.48 1160.13 2568.7 1163.65 2569.82 1168.98 2569.82 1176.1 2569.82 1183.48 2568.63 1189.05 2566.24 1192.83 2563.86 1196.62 2560.37 1198.51 2555.79 1198.51 2551.29 1198.51 2547.94 1196.74 2545.74 1193.19 2543.54 1189.65 2542.44 1184.28 2542.44 1177.07 2542.44 1173.24 2542.78 1169.92 2543.46 1167.13 2544.14 1164.34 2545.08 1162.03 2546.3 1160.21 2547.52 1158.39 2548.99 1157.04 2550.69 1156.16 2552.4 1155.29 2554.27 1154.85 2556.29 1154.85Z" fill="#CC9900" fill-rule="evenodd"/><text fill="#000000" fill-opacity="0" font-family="Arial,Arial_MSFontService,sans-serif" font-size="43.6562" x="2542.44" y="1193.05">0</text><path d="M3.4375-2.06026e-06 3.43785 579.224-3.43715 579.224-3.4375 2.06026e-06ZM13.7503 574.641 0.000360892 602.141-13.7497 574.641Z" transform="matrix(1 0 0 -1 2323.5 1514.64)"/><path d="M2202.34 829.77 2204.18 829.77 2196.49 864.363C2196.04 866.426 2195.81 867.967 2195.81 868.988 2195.81 869.822 2195.94 870.426 2196.21 870.801 2196.48 871.176 2196.91 871.363 2197.49 871.363 2198.12 871.363 2198.79 871.108 2199.49 870.598 2200.2 870.087 2201.2 869.113 2202.49 867.676L2204.28 869.426C2202.25 871.551 2200.6 873.004 2199.32 873.785 2198.04 874.566 2196.61 874.957 2195.03 874.957 2193.67 874.957 2192.59 874.462 2191.78 873.473 2190.96 872.483 2190.56 871.217 2190.56 869.676 2190.56 868.28 2190.85 866.259 2191.43 863.613L2197.03 838.582C2197.28 837.478 2197.45 836.598 2197.56 835.941 2197.66 835.285 2197.71 834.676 2197.71 834.113 2197.71 833.488 2197.6 833.014 2197.37 832.691 2197.14 832.368 2196.81 832.134 2196.38 831.988 2195.96 831.842 2195.19 831.738 2194.09 831.676L2194.46 830.051Z" fill-rule="evenodd"/><text fill="#000000" fill-opacity="0" font-family="Arial,Arial_MSFontService,sans-serif" font-size="45.1875" x="2190.56" y="869.309">𝑙</text><path d="M2216.16 826.641 2222.08 826.641 2222.08 828.431 2214.44 846.814 2211.76 846.01Z" fill-rule="evenodd"/><text fill="#000000" fill-opacity="0" font-family="Arial,Arial_MSFontService,sans-serif" font-size="20.1724" x="2211.76" y="844.292">′</text><path d="M2252.14 829.301 2252.98 831.707C2248.11 833.311 2244.5 836.441 2242.16 841.098 2239.81 845.754 2238.64 851.603 2238.64 858.645 2238.64 865.936 2239.81 871.947 2242.16 876.676 2244.5 881.405 2248.08 884.572 2252.89 886.176L2252.14 888.582C2246.04 886.978 2241.36 883.525 2238.11 878.223 2234.86 872.921 2233.23 866.499 2233.23 858.957 2233.23 851.436 2234.86 845.014 2238.12 839.691 2241.38 834.368 2246.06 830.905 2252.14 829.301Z" fill-rule="evenodd"/><text fill="#000000" fill-opacity="0" font-family="Arial,Arial_MSFontService,sans-serif" font-size="59.2812" x="2233.23" y="881.172">(</text><path d="M2275.96 846.551C2275.17 846.551 2274.42 846.691 2273.7 846.973 2272.98 847.254 2272.23 847.733 2271.45 848.41 2270.67 849.087 2269.92 849.999 2269.21 851.145 2268.5 852.29 2267.87 853.639 2267.31 855.191 2266.74 856.743 2266.2 858.728 2265.68 861.145L2264.59 866.176C2264.55 866.405 2264.5 866.733 2264.45 867.16 2264.4 867.587 2264.37 867.978 2264.37 868.332 2264.37 869.665 2264.92 870.691 2266.01 871.41 2267.1 872.129 2268.56 872.488 2270.37 872.488 2272.51 872.488 2274.42 871.618 2276.07 869.879 2277.73 868.139 2279.01 865.743 2279.93 862.691 2280.85 859.639 2281.31 856.603 2281.31 853.582 2281.31 852.228 2281.17 851.046 2280.88 850.035 2280.6 849.025 2280.07 848.191 2279.28 847.535 2278.48 846.879 2277.38 846.551 2275.96 846.551ZM2276.78 844.082C2278.8 844.082 2280.58 844.493 2282.12 845.316 2283.66 846.139 2284.83 847.332 2285.62 848.895 2286.41 850.457 2286.81 852.374 2286.81 854.645 2286.81 858.186 2286.11 861.546 2284.73 864.723 2283.34 867.9 2281.42 870.4 2278.95 872.223 2276.48 874.046 2273.71 874.957 2270.65 874.957 2269.23 874.957 2267.89 874.832 2266.62 874.582 2265.35 874.332 2264.08 873.905 2262.81 873.301L2259.56 887.957 2254.43 887.957 2260.78 859.676C2261.53 856.342 2262.6 853.551 2263.99 851.301 2265.39 849.051 2267.16 847.285 2269.31 846.004 2271.45 844.723 2273.94 844.082 2276.78 844.082Z" fill-rule="evenodd"/><text fill="#000000" fill-opacity="0" font-family="Arial,Arial_MSFontService,sans-serif" font-size="43.875" x="2254.43" y="882.473">𝜌</text><path d="M2292.87 829.301C2298.95 830.905 2303.62 834.368 2306.88 839.691 2310.14 845.014 2311.77 851.436 2311.77 858.957 2311.77 866.499 2310.15 872.921 2306.9 878.223 2303.65 883.525 2298.97 886.978 2292.87 888.582L2292.12 886.176C2296.93 884.572 2300.51 881.405 2302.85 876.676 2305.2 871.947 2306.37 865.936 2306.37 858.645 2306.37 851.603 2305.2 845.754 2302.87 841.098 2300.53 836.441 2296.92 833.311 2292.02 831.707Z" fill-rule="evenodd"/><text fill="#000000" fill-opacity="0" font-family="Arial,Arial_MSFontService,sans-serif" font-size="59.2812" x="2292.02" y="881.172">)</text><path d="M2421.87 1478.19 2423.59 1478.19C2423.46 1480.19 2423.4 1482.96 2423.4 1486.51L2423.4 1513.19C2423.4 1514.4 2423.47 1515.31 2423.6 1515.93 2423.74 1516.54 2423.98 1517.04 2424.32 1517.43 2424.66 1517.81 2425.16 1518.11 2425.8 1518.33 2426.45 1518.55 2427.26 1518.72 2428.24 1518.83 2429.22 1518.95 2430.51 1519.03 2432.12 1519.07L2432.12 1521.35 2409.02 1521.35 2409.02 1519.07C2411.34 1518.96 2412.99 1518.82 2413.98 1518.65 2414.97 1518.47 2415.72 1518.2 2416.24 1517.85 2416.76 1517.49 2417.14 1516.99 2417.38 1516.35 2417.62 1515.7 2417.74 1514.65 2417.74 1513.19L2417.74 1487.85C2417.74 1487.02 2417.6 1486.41 2417.3 1486.02 2417.01 1485.64 2416.59 1485.44 2416.02 1485.44 2415.36 1485.44 2414.41 1485.79 2413.18 1486.47 2411.95 1487.16 2410.43 1488.11 2408.62 1489.32L2407.24 1486.91Z" fill-rule="evenodd"/><text fill="#000000" fill-opacity="0" font-family="Arial,Arial_MSFontService,sans-serif" font-size="43.1562" x="2407.24" y="1515.95">1</text><path d="M2456.11 1500.97 2494.61 1500.97 2494.61 1505.13 2456.11 1505.13Z" fill-rule="evenodd"/><text fill="#000000" fill-opacity="0" font-family="Arial,Arial_MSFontService,sans-serif" font-size="4.15625" x="2456.11" y="1504.61">−</text><path d="M2535.49 1490.94C2536.93 1490.94 2538.24 1491.04 2539.43 1491.22 2540.61 1491.41 2541.85 1491.78 2543.15 1492.32L2542.05 1495.1C2539.99 1494.45 2537.88 1494.13 2535.71 1494.13 2532.83 1494.13 2530.33 1495 2528.19 1496.74 2526.06 1498.48 2524.51 1500.95 2523.55 1504.16L2539.27 1504.16 2538.58 1507.41 2522.74 1507.41C2522.64 1507.79 2522.53 1508.39 2522.41 1509.22 2522.3 1510.06 2522.24 1510.86 2522.24 1511.63 2522.24 1513.88 2522.8 1515.61 2523.93 1516.82 2525.05 1518.03 2526.59 1518.63 2528.55 1518.63 2530.26 1518.63 2531.73 1518.51 2532.97 1518.27 2534.21 1518.03 2535.53 1517.65 2536.93 1517.13L2537.65 1519.63C2535.77 1520.38 2534.04 1520.94 2532.44 1521.3 2530.85 1521.67 2529.03 1521.85 2526.99 1521.85 2523.8 1521.85 2521.36 1520.95 2519.66 1519.16 2517.96 1517.37 2517.11 1514.82 2517.11 1511.51 2517.11 1509.88 2517.33 1508.08 2517.76 1506.1 2518.18 1504.12 2518.89 1502.22 2519.86 1500.41 2520.84 1498.6 2522.09 1496.97 2523.61 1495.54 2525.14 1494.1 2526.9 1492.97 2528.91 1492.16 2530.92 1491.35 2533.11 1490.94 2535.49 1490.94Z" fill-rule="evenodd"/><text fill="#000000" fill-opacity="0" font-family="Arial,Arial_MSFontService,sans-serif" font-size="30.9062" x="2517.11" y="1517.99">𝜖</text><path d="M2726.04 1476.17 2727.76 1476.17C2727.63 1478.17 2727.57 1480.94 2727.57 1484.49L2727.57 1511.17C2727.57 1512.38 2727.64 1513.29 2727.77 1513.91 2727.91 1514.52 2728.15 1515.02 2728.49 1515.41 2728.84 1515.79 2729.33 1516.1 2729.98 1516.31 2730.62 1516.53 2731.44 1516.7 2732.42 1516.81 2733.39 1516.93 2734.69 1517.01 2736.29 1517.05L2736.29 1519.33 2713.2 1519.33 2713.2 1517.05C2715.51 1516.94 2717.16 1516.8 2718.15 1516.63 2719.14 1516.45 2719.89 1516.18 2720.42 1515.83 2720.94 1515.48 2721.32 1514.98 2721.56 1514.33 2721.8 1513.68 2721.92 1512.63 2721.92 1511.17L2721.92 1485.83C2721.92 1485 2721.77 1484.39 2721.48 1484 2721.19 1483.62 2720.76 1483.42 2720.2 1483.42 2719.53 1483.42 2718.58 1483.77 2717.35 1484.46 2716.12 1485.14 2714.6 1486.09 2712.79 1487.3L2711.42 1484.89Z" fill-rule="evenodd"/><text fill="#000000" fill-opacity="0" font-family="Arial,Arial_MSFontService,sans-serif" font-size="43.1562" x="2711.42" y="1513.94">1</text><path d="M2777.32 1480.96 2781.75 1480.96 2781.75 1498.96 2798.78 1498.96 2798.78 1503.11 2781.75 1503.11 2781.75 1521.11 2777.32 1521.11 2777.32 1503.11 2760.28 1503.11 2760.28 1498.96 2777.32 1498.96Z" fill-rule="evenodd"/><text fill="#000000" fill-opacity="0" font-family="Arial,Arial_MSFontService,sans-serif" font-size="40.1562" x="2760.28" y="1516.09">+</text><path d="M2839.66 1488.92C2841.1 1488.92 2842.41 1489.02 2843.6 1489.21 2844.79 1489.39 2846.03 1489.76 2847.32 1490.3L2846.23 1493.08C2844.16 1492.43 2842.05 1492.11 2839.88 1492.11 2837.01 1492.11 2834.5 1492.98 2832.37 1494.72 2830.23 1496.46 2828.68 1498.93 2827.73 1502.14L2843.44 1502.14 2842.76 1505.39 2826.91 1505.39C2826.81 1505.77 2826.7 1506.37 2826.59 1507.21 2826.47 1508.04 2826.41 1508.84 2826.41 1509.61 2826.41 1511.86 2826.98 1513.59 2828.1 1514.8 2829.23 1516.01 2830.77 1516.61 2832.73 1516.61 2834.43 1516.61 2835.91 1516.49 2837.15 1516.25 2838.39 1516.01 2839.71 1515.63 2841.1 1515.11L2841.82 1517.61C2839.94 1518.36 2838.21 1518.92 2836.62 1519.28 2835.02 1519.65 2833.21 1519.83 2831.16 1519.83 2827.98 1519.83 2825.53 1518.93 2823.84 1517.14 2822.14 1515.35 2821.29 1512.8 2821.29 1509.49 2821.29 1507.86 2821.5 1506.06 2821.93 1504.08 2822.36 1502.1 2823.06 1500.21 2824.04 1498.39 2825.02 1496.58 2826.27 1494.96 2827.79 1493.52 2829.31 1492.08 2831.07 1490.96 2833.09 1490.14 2835.1 1489.33 2837.29 1488.92 2839.66 1488.92Z" fill-rule="evenodd"/><text fill="#000000" fill-opacity="0" font-family="Arial,Arial_MSFontService,sans-serif" font-size="30.9062" x="2821.29" y="1515.97">𝜖</text><path d="M2234 1414 2450.35 1414" stroke="#4E95D9" stroke-width="10.3125" stroke-miterlimit="8" fill="none" fill-rule="evenodd"/><path d="M0 0 353.503 161.947" stroke="#4E95D9" stroke-width="10.3125" stroke-miterlimit="8" fill="none" fill-rule="evenodd" transform="matrix(-1 0 0 1 2851.5 1232)"/><path d="M0 0 95.6152 0.000360892" stroke="#FFC000" stroke-width="10.3125" stroke-miterlimit="8" fill="none" fill-rule="evenodd" transform="matrix(-1 0 0 1 2902.62 1414)"/><path d="M2365 1232 2759.25 1393.95" stroke="#FFC000" stroke-width="10.3125" stroke-miterlimit="8" fill="none" fill-rule="evenodd"/><path d="M1227.5 1415.06 1865.2 1415.06 1865.2 1421.94 1227.5 1421.94ZM1860.62 1404.75 1888.12 1418.5 1860.62 1432.25Z"/><path d="M1405.5 1418.5C1405.5 1403.04 1418.04 1390.5 1433.5 1390.5 1448.96 1390.5 1461.5 1403.04 1461.5 1418.5 1461.5 1433.96 1448.96 1446.5 1433.5 1446.5 1418.04 1446.5 1405.5 1433.96 1405.5 1418.5Z" stroke="#042433" stroke-width="6.875" stroke-miterlimit="8" fill="#DCEAF7" fill-rule="evenodd"/><path d="M1706.5 1418.5C1706.5 1403.04 1719.04 1390.5 1734.5 1390.5 1749.96 1390.5 1762.5 1403.04 1762.5 1418.5 1762.5 1433.96 1749.96 1446.5 1734.5 1446.5 1719.04 1446.5 1706.5 1433.96 1706.5 1418.5Z" stroke="#042433" stroke-width="6.875" stroke-miterlimit="8" fill="#FDE78B" fill-rule="evenodd"/><path d="M1494.6 1070.73 1483.47 1090.42 1495.69 1090.42 1495.16 1080.35C1495.1 1078.98 1495.05 1077.26 1495.01 1075.2 1494.96 1073.14 1494.94 1071.65 1494.94 1070.73ZM1494.79 1064.14 1499.51 1064.14 1501.76 1098.98C1501.86 1100.63 1502.05 1101.91 1502.32 1102.84 1502.59 1103.77 1502.96 1104.45 1503.43 1104.9 1503.9 1105.35 1504.58 1105.64 1505.47 1105.76L1505.13 1107.29 1492.13 1107.29 1492.47 1105.76C1493.7 1105.66 1494.62 1105.18 1495.22 1104.32 1495.83 1103.47 1496.13 1101.97 1496.13 1099.82 1496.13 1099.01 1496.1 1098.13 1496.04 1097.17L1495.82 1093.14 1482.07 1093.14 1480.35 1096.2C1479.54 1097.64 1478.94 1098.87 1478.57 1099.9 1478.19 1100.93 1478.01 1101.84 1478.01 1102.64 1478.01 1104.39 1479.06 1105.43 1481.16 1105.76L1480.82 1107.29 1468.04 1107.29 1468.38 1105.76C1469.03 1105.68 1469.64 1105.42 1470.21 1105 1470.78 1104.57 1471.39 1103.92 1472.04 1103.06 1472.68 1102.19 1473.59 1100.76 1474.76 1098.76Z" fill="#215F9A" fill-rule="evenodd"/><text fill="#000000" fill-opacity="0" font-family="Arial,Arial_MSFontService,sans-serif" font-size="43.1562" x="1468.04" y="1101.9">𝐴</text><path d="M1519.36 1097.43 1539.69 1097.43 1538.98 1100.99 1533.03 1100.99 1530.33 1112.87C1530.16 1113.56 1530.03 1114.17 1529.95 1114.71 1529.86 1115.24 1529.82 1115.71 1529.82 1116.11 1529.82 1116.6 1529.92 1116.99 1530.13 1117.28 1530.34 1117.57 1530.71 1117.72 1531.24 1117.72 1531.82 1117.72 1532.41 1117.49 1533.01 1117.03 1533.61 1116.57 1534.28 1115.92 1535.03 1115.08L1536.61 1116.57C1535.89 1117.35 1535.22 1118.01 1534.59 1118.54 1533.97 1119.08 1533.37 1119.51 1532.79 1119.84 1532.22 1120.17 1531.65 1120.41 1531.09 1120.56 1530.54 1120.71 1529.97 1120.79 1529.38 1120.79 1528.79 1120.79 1528.26 1120.68 1527.79 1120.47 1527.32 1120.26 1526.92 1119.95 1526.58 1119.56 1526.25 1119.17 1525.99 1118.71 1525.82 1118.17 1525.64 1117.64 1525.55 1117.06 1525.55 1116.43 1525.55 1115.82 1525.6 1115.16 1525.69 1114.46 1525.78 1113.75 1525.93 1112.92 1526.15 1111.96 1526.27 1111.48 1526.43 1110.83 1526.63 1110.02 1526.83 1109.2 1527.06 1108.3 1527.32 1107.31 1527.58 1106.32 1527.86 1105.29 1528.17 1104.21 1528.47 1103.13 1528.8 1102.09 1529.16 1101.08 1529.16 1101.02 1529.14 1100.99 1529.11 1100.99L1521.79 1100.99 1517.34 1120.38 1511.78 1120.38 1512.06 1118.79C1512.98 1117.92 1513.83 1116.57 1514.62 1114.73 1515.4 1112.9 1516.12 1110.58 1516.76 1107.78L1518.32 1100.99 1517.52 1100.99C1516.92 1100.99 1516.39 1101.02 1515.91 1101.1 1515.44 1101.18 1514.99 1101.33 1514.56 1101.55 1514.13 1101.77 1513.7 1102.07 1513.27 1102.45 1512.85 1102.84 1512.38 1103.33 1511.87 1103.92L1510.24 1102.32C1511.06 1101.4 1511.77 1100.63 1512.38 1100.01 1512.99 1099.39 1513.62 1098.89 1514.26 1098.51 1514.9 1098.12 1515.62 1097.85 1516.41 1097.68 1517.19 1097.51 1518.18 1097.43 1519.36 1097.43Z" fill="#215F9A" fill-rule="evenodd"/><text fill="#000000" fill-opacity="0" font-family="Arial,Arial_MSFontService,sans-serif" font-size="23.3623" x="1510.24" y="1117.87">𝜋</text><path d="M1551.69 1108.34C1550.54 1108.34 1549.62 1108.73 1548.94 1109.51 1548.26 1110.29 1547.78 1111.39 1547.5 1112.8 1547.22 1114.22 1547.08 1115.97 1547.08 1118.07 1547.08 1121.66 1547.46 1124.27 1548.2 1125.9 1548.94 1127.53 1550.12 1128.35 1551.73 1128.35 1553.25 1128.35 1554.38 1127.59 1555.11 1126.07 1555.84 1124.56 1556.21 1122.13 1556.21 1118.79 1556.21 1115.24 1555.84 1112.6 1555.11 1110.9 1554.38 1109.19 1553.24 1108.34 1551.69 1108.34ZM1551.73 1106.34C1553.34 1106.34 1554.7 1106.62 1555.79 1107.19 1556.88 1107.76 1557.76 1108.57 1558.44 1109.6 1559.12 1110.64 1559.61 1111.87 1559.89 1113.31 1560.18 1114.74 1560.32 1116.31 1560.32 1118.03 1560.32 1122.1 1559.55 1125.18 1558.03 1127.25 1556.5 1129.31 1554.3 1130.35 1551.43 1130.35 1548.6 1130.35 1546.48 1129.37 1545.08 1127.4 1543.67 1125.43 1542.97 1122.48 1542.97 1118.54 1542.97 1115.8 1543.35 1113.52 1544.1 1111.69 1544.84 1109.86 1545.87 1108.51 1547.18 1107.64 1548.49 1106.77 1550 1106.34 1551.73 1106.34Z" fill="#215F9A" fill-rule="evenodd"/><text fill="#000000" fill-opacity="0" font-family="Arial,Arial_MSFontService,sans-serif" font-size="24.0132" x="1542.97" y="1127.35">0</text><path d="M1628.69 1069.6 1628.69 1074.29 1594.75 1089.01 1628.69 1103.73 1628.69 1108.42 1590.07 1091.2 1590.07 1086.82Z" fill="#215F9A" fill-rule="evenodd"/><text fill="#000000" fill-opacity="0" font-family="Arial,Arial_MSFontService,sans-serif" font-size="38.8125" x="1590.07" y="1103.57">&lt;</text><path d="M1669.08 1066.79C1667.65 1066.79 1666.44 1067.22 1665.47 1068.07 1664.5 1068.93 1663.72 1070.16 1663.13 1071.76 1662.54 1073.37 1662.11 1075.32 1661.86 1077.62 1661.61 1079.92 1661.49 1082.52 1661.49 1085.42 1661.49 1092.21 1662.12 1097.19 1663.38 1100.37 1664.64 1103.55 1666.59 1105.14 1669.24 1105.14 1671.76 1105.14 1673.63 1103.64 1674.85 1100.65 1676.07 1097.66 1676.68 1093.03 1676.68 1086.76 1676.68 1081.97 1676.36 1078.09 1675.74 1075.12 1675.11 1072.15 1674.24 1070.02 1673.13 1068.73 1672.02 1067.44 1670.67 1066.79 1669.08 1066.79ZM1669.24 1064.14C1673.8 1064.14 1677.2 1065.9 1679.43 1069.42 1681.66 1072.94 1682.77 1078.26 1682.77 1085.39 1682.77 1092.76 1681.58 1098.34 1679.19 1102.12 1676.81 1105.9 1673.32 1107.79 1668.74 1107.79 1664.24 1107.79 1660.89 1106.02 1658.69 1102.48 1656.49 1098.94 1655.4 1093.56 1655.4 1086.35 1655.4 1082.52 1655.73 1079.21 1656.41 1076.42 1657.09 1073.63 1658.04 1071.32 1659.25 1069.5 1660.47 1067.67 1661.94 1066.32 1663.65 1065.45 1665.35 1064.57 1667.22 1064.14 1669.24 1064.14Z" fill="#215F9A" fill-rule="evenodd"/><text fill="#000000" fill-opacity="0" font-family="Arial,Arial_MSFontService,sans-serif" font-size="43.6562" x="1655.4" y="1102.34">0</text><path d="M1840.15 1503.55 1829.03 1523.24 1841.25 1523.24 1840.72 1513.18C1840.65 1511.8 1840.6 1510.08 1840.56 1508.02 1840.52 1505.96 1840.5 1504.47 1840.5 1503.55ZM1840.34 1496.96 1845.06 1496.96 1847.31 1531.8C1847.41 1533.45 1847.6 1534.74 1847.87 1535.66 1848.14 1536.59 1848.51 1537.28 1848.98 1537.72 1849.45 1538.17 1850.13 1538.46 1851.03 1538.58L1850.68 1540.12 1837.68 1540.12 1838.03 1538.58C1839.26 1538.48 1840.17 1538 1840.78 1537.15 1841.38 1536.29 1841.68 1534.79 1841.68 1532.65 1841.68 1531.83 1841.65 1530.95 1841.59 1529.99L1841.37 1525.96 1827.62 1525.96 1825.9 1529.02C1825.09 1530.46 1824.5 1531.69 1824.12 1532.72 1823.75 1533.76 1823.56 1534.67 1823.56 1535.46 1823.56 1537.21 1824.61 1538.25 1826.72 1538.58L1826.37 1540.12 1813.59 1540.12 1813.93 1538.58C1814.58 1538.5 1815.19 1538.25 1815.76 1537.82 1816.33 1537.39 1816.94 1536.75 1817.59 1535.88 1818.24 1535.02 1819.14 1533.58 1820.31 1531.58Z" fill="#CC9900" fill-rule="evenodd"/><text fill="#000000" fill-opacity="0" font-family="Arial,Arial_MSFontService,sans-serif" font-size="43.1562" x="1813.59" y="1534.72">𝐴</text><path d="M1864.91 1530.25 1885.24 1530.25 1884.53 1533.81 1878.59 1533.81 1875.88 1545.7C1875.71 1546.38 1875.58 1547 1875.5 1547.53 1875.42 1548.07 1875.37 1548.53 1875.37 1548.93 1875.37 1549.42 1875.48 1549.81 1875.68 1550.1 1875.89 1550.39 1876.26 1550.54 1876.8 1550.54 1877.38 1550.54 1877.97 1550.31 1878.56 1549.85 1879.16 1549.39 1879.83 1548.74 1880.58 1547.9L1882.17 1549.39C1881.45 1550.17 1880.77 1550.83 1880.15 1551.36 1879.52 1551.9 1878.92 1552.33 1878.35 1552.66 1877.77 1552.99 1877.21 1553.23 1876.65 1553.38 1876.09 1553.54 1875.52 1553.61 1874.94 1553.61 1874.34 1553.61 1873.81 1553.51 1873.34 1553.29 1872.88 1553.08 1872.47 1552.78 1872.14 1552.39 1871.8 1552 1871.54 1551.53 1871.37 1551 1871.19 1550.46 1871.11 1549.88 1871.11 1549.25 1871.11 1548.64 1871.15 1547.98 1871.24 1547.28 1871.33 1546.58 1871.49 1545.74 1871.7 1544.78 1871.82 1544.3 1871.98 1543.66 1872.18 1542.84 1872.38 1542.02 1872.61 1541.12 1872.87 1540.13 1873.13 1539.14 1873.42 1538.11 1873.72 1537.03 1874.03 1535.95 1874.36 1534.91 1874.71 1533.9 1874.71 1533.84 1874.69 1533.81 1874.66 1533.81L1867.34 1533.81 1862.89 1553.2 1857.34 1553.2 1857.61 1551.62C1858.53 1550.75 1859.38 1549.39 1860.17 1547.56 1860.96 1545.72 1861.67 1543.4 1862.32 1540.6L1863.88 1533.81 1863.07 1533.81C1862.48 1533.81 1861.94 1533.85 1861.47 1533.92 1860.99 1534 1860.54 1534.15 1860.11 1534.37 1859.68 1534.59 1859.26 1534.9 1858.83 1535.28 1858.4 1535.66 1857.93 1536.15 1857.43 1536.75L1855.8 1535.14C1856.61 1534.22 1857.32 1533.45 1857.93 1532.83 1858.54 1532.21 1859.17 1531.71 1859.81 1531.33 1860.46 1530.95 1861.17 1530.67 1861.96 1530.5 1862.75 1530.34 1863.73 1530.25 1864.91 1530.25Z" fill="#CC9900" fill-rule="evenodd"/><text fill="#000000" fill-opacity="0" font-family="Arial,Arial_MSFontService,sans-serif" font-size="23.3623" x="1855.8" y="1550.69">𝜋</text><path d="M1897.25 1541.16C1896.09 1541.16 1895.17 1541.55 1894.49 1542.33 1893.82 1543.11 1893.34 1544.21 1893.06 1545.62 1892.78 1547.04 1892.64 1548.79 1892.64 1550.89 1892.64 1554.48 1893.01 1557.09 1893.75 1558.73 1894.49 1560.36 1895.67 1561.17 1897.28 1561.17 1898.81 1561.17 1899.93 1560.41 1900.66 1558.9 1901.39 1557.38 1901.76 1554.95 1901.76 1551.61 1901.76 1548.06 1901.39 1545.43 1900.66 1543.72 1899.93 1542.01 1898.8 1541.16 1897.25 1541.16ZM1897.28 1539.16C1898.9 1539.16 1900.25 1539.44 1901.34 1540.02 1902.43 1540.59 1903.32 1541.39 1904 1542.42 1904.68 1543.46 1905.16 1544.69 1905.44 1546.13 1905.73 1547.56 1905.87 1549.14 1905.87 1550.85 1905.87 1554.93 1905.11 1558 1903.58 1560.07 1902.05 1562.14 1899.85 1563.17 1896.98 1563.17 1894.15 1563.17 1892.03 1562.19 1890.63 1560.22 1889.23 1558.25 1888.52 1555.3 1888.52 1551.37 1888.52 1548.62 1888.9 1546.34 1889.65 1544.51 1890.4 1542.68 1891.43 1541.33 1892.73 1540.46 1894.04 1539.59 1895.56 1539.16 1897.28 1539.16Z" fill="#CC9900" fill-rule="evenodd"/><text fill="#000000" fill-opacity="0" font-family="Arial,Arial_MSFontService,sans-serif" font-size="24.0132" x="1888.52" y="1560.17">0</text><path d="M1935.62 1502.43 1974.24 1519.65 1974.24 1524.02 1935.62 1541.24 1935.62 1536.55 1969.56 1521.83 1935.62 1507.12Z" fill="#CC9900" fill-rule="evenodd"/><text fill="#000000" fill-opacity="0" font-family="Arial,Arial_MSFontService,sans-serif" font-size="38.8125" x="1935.62" y="1536.39">&gt;</text><path d="M2014.64 1499.62C2013.2 1499.62 2012 1500.04 2011.03 1500.9 2010.06 1501.75 2009.28 1502.98 2008.68 1504.58 2008.09 1506.19 2007.67 1508.14 2007.42 1510.44 2007.17 1512.75 2007.04 1515.34 2007.04 1518.24 2007.04 1525.03 2007.67 1530.02 2008.93 1533.19 2010.19 1536.37 2012.15 1537.96 2014.79 1537.96 2017.31 1537.96 2019.18 1536.46 2020.4 1533.47 2021.62 1530.49 2022.23 1525.85 2022.23 1519.58 2022.23 1514.79 2021.92 1510.91 2021.29 1507.94 2020.67 1504.97 2019.8 1502.84 2018.68 1501.55 2017.57 1500.26 2016.22 1499.62 2014.64 1499.62ZM2014.79 1496.96C2019.35 1496.96 2022.75 1498.72 2024.98 1502.24 2027.21 1505.76 2028.32 1511.08 2028.32 1518.21 2028.32 1525.58 2027.13 1531.16 2024.75 1534.94 2022.36 1538.72 2018.88 1540.62 2014.29 1540.62 2009.79 1540.62 2006.44 1538.84 2004.25 1535.3 2002.05 1531.76 2000.95 1526.39 2000.95 1519.18 2000.95 1515.34 2001.29 1512.03 2001.96 1509.24 2002.64 1506.45 2003.59 1504.14 2004.81 1502.32 2006.03 1500.5 2007.49 1499.15 2009.2 1498.27 2010.91 1497.4 2012.77 1496.96 2014.79 1496.96Z" fill="#CC9900" fill-rule="evenodd"/><text fill="#000000" fill-opacity="0" font-family="Arial,Arial_MSFontService,sans-serif" font-size="43.6562" x="2000.95" y="1535.16">0</text><path d="M3.4375-1.77983e-06 3.43785 674.098-3.43715 674.098-3.4375 1.77983e-06ZM13.7503 669.514 0.000360892 697.014-13.7497 669.514Z" transform="matrix(1 0 0 -1 1277.5 1613.51)"/><path d="M1159.39 833.846 1161.24 833.846 1153.55 868.44C1153.09 870.503 1152.86 872.044 1152.86 873.065 1152.86 873.899 1153 874.503 1153.27 874.878 1153.54 875.253 1153.97 875.44 1154.55 875.44 1155.17 875.44 1155.84 875.185 1156.55 874.675 1157.26 874.164 1158.26 873.19 1159.55 871.753L1161.33 873.503C1159.31 875.628 1157.66 877.081 1156.38 877.862 1155.1 878.643 1153.66 879.034 1152.08 879.034 1150.73 879.034 1149.64 878.539 1148.83 877.55 1148.02 876.56 1147.61 875.294 1147.61 873.753 1147.61 872.357 1147.9 870.336 1148.49 867.69L1154.08 842.659C1154.33 841.555 1154.51 840.675 1154.61 840.018 1154.72 839.362 1154.77 838.753 1154.77 838.19 1154.77 837.565 1154.65 837.091 1154.42 836.768 1154.19 836.445 1153.87 836.211 1153.44 836.065 1153.01 835.919 1152.25 835.815 1151.14 835.753L1151.52 834.128Z" fill-rule="evenodd"/><text fill="#000000" fill-opacity="0" font-family="Arial,Arial_MSFontService,sans-serif" font-size="45.1875" x="1147.61" y="873.386">𝑙</text><path d="M1212.69 827.712C1212.14 827.712 1211.62 827.72 1211.11 827.735 1210.61 827.75 1210.11 827.773 1209.62 827.804L1206.7 840.219 1209.46 840.219C1211.25 840.25 1212.73 840.074 1213.91 839.691 1215.09 839.309 1216.03 838.766 1216.74 838.062 1217.46 837.358 1217.96 836.532 1218.25 835.583 1218.54 834.635 1218.68 833.602 1218.68 832.485 1218.68 830.818 1218.2 829.605 1217.24 828.848 1216.27 828.091 1214.76 827.712 1212.69 827.712ZM1182.69 827.712C1182.14 827.712 1181.62 827.72 1181.11 827.735 1180.61 827.75 1180.11 827.773 1179.62 827.804L1176.7 840.219 1179.46 840.219C1181.25 840.25 1182.73 840.074 1183.91 839.691 1185.09 839.309 1186.03 838.766 1186.74 838.062 1187.46 837.358 1187.96 836.532 1188.25 835.583 1188.54 834.635 1188.68 833.602 1188.68 832.485 1188.68 830.818 1188.2 829.605 1187.24 828.848 1186.27 828.091 1184.76 827.712 1182.69 827.712ZM1245.92 827.184C1244.54 827.184 1243.3 827.505 1242.19 828.148 1241.08 828.791 1240.1 829.647 1239.24 830.718 1238.39 831.789 1237.65 833.009 1237.03 834.379 1236.41 835.748 1235.9 837.148 1235.49 838.578 1235.08 840.009 1234.79 841.413 1234.61 842.79 1234.42 844.167 1234.33 845.413 1234.33 846.53 1234.33 848.749 1234.77 850.405 1235.65 851.499 1236.53 852.593 1237.87 853.14 1239.68 853.14 1240.96 853.14 1242.14 852.837 1243.21 852.233 1244.28 851.629 1245.25 850.818 1246.1 849.801 1246.96 848.783 1247.71 847.613 1248.35 846.289 1249 844.966 1249.53 843.589 1249.96 842.158 1250.39 840.728 1250.71 839.294 1250.93 837.855 1251.16 836.417 1251.27 835.086 1251.27 833.862 1251.27 831.69 1250.82 830.034 1249.94 828.894 1249.05 827.754 1247.71 827.184 1245.92 827.184ZM1202.57 825.279 1212.95 825.279C1214.6 825.279 1216.06 825.406 1217.34 825.658 1218.62 825.91 1219.7 826.316 1220.58 826.874 1221.46 827.433 1222.13 828.159 1222.59 829.054 1223.04 829.949 1223.29 831.047 1223.32 832.348 1223.32 834.046 1223 835.541 1222.37 836.834 1221.73 838.127 1220.84 839.202 1219.69 840.059 1218.55 840.915 1217.17 841.562 1215.56 841.998 1213.96 842.434 1212.18 842.644 1210.24 842.629 1209.4 842.629 1208.64 842.621 1207.97 842.606 1207.29 842.591 1206.73 842.568 1206.27 842.537 1206.1 843.333 1205.91 844.197 1205.69 845.13 1205.48 846.064 1205.28 846.962 1205.1 847.827 1204.91 848.691 1204.76 849.479 1204.64 850.191 1204.52 850.902 1204.46 851.434 1204.46 851.786 1204.46 852.092 1204.5 852.356 1204.58 852.577 1204.67 852.799 1204.8 852.987 1204.99 853.14 1205.19 853.293 1205.46 853.407 1205.81 853.484 1206.16 853.56 1206.61 853.614 1207.16 853.645L1206.84 855.044 1196.91 855.044 1197.16 853.645C1197.63 853.568 1198.02 853.472 1198.33 853.358 1198.63 853.243 1198.91 853.021 1199.14 852.692 1199.38 852.363 1199.59 851.87 1199.79 851.212 1199.98 850.554 1200.2 849.636 1200.46 848.458L1204.23 831.728C1204.38 831.055 1204.49 830.458 1204.57 829.938 1204.65 829.418 1204.69 828.989 1204.69 828.653 1204.69 827.964 1204.51 827.475 1204.17 827.184 1203.82 826.893 1203.18 826.74 1202.23 826.725ZM1172.57 825.279 1182.95 825.279C1184.6 825.279 1186.06 825.406 1187.34 825.658 1188.62 825.91 1189.7 826.316 1190.58 826.874 1191.46 827.433 1192.13 828.159 1192.59 829.054 1193.04 829.949 1193.29 831.047 1193.32 832.348 1193.32 834.046 1193 835.541 1192.37 836.834 1191.73 838.127 1190.84 839.202 1189.69 840.059 1188.55 840.915 1187.17 841.562 1185.56 841.998 1183.96 842.434 1182.18 842.644 1180.24 842.629 1179.4 842.629 1178.64 842.621 1177.97 842.606 1177.29 842.591 1176.73 842.568 1176.27 842.537 1176.1 843.333 1175.91 844.197 1175.69 845.13 1175.48 846.064 1175.28 846.962 1175.1 847.827 1174.91 848.691 1174.76 849.479 1174.64 850.191 1174.52 850.902 1174.46 851.434 1174.46 851.786 1174.46 852.092 1174.5 852.356 1174.58 852.577 1174.67 852.799 1174.8 852.987 1174.99 853.14 1175.19 853.293 1175.46 853.407 1175.81 853.484 1176.16 853.56 1176.61 853.614 1177.16 853.645L1176.84 855.044 1166.91 855.044 1167.16 853.645C1167.63 853.568 1168.02 853.472 1168.33 853.358 1168.63 853.243 1168.91 853.021 1169.14 852.692 1169.38 852.363 1169.59 851.87 1169.79 851.212 1169.98 850.554 1170.2 849.636 1170.46 848.458L1174.23 831.728C1174.38 831.055 1174.49 830.458 1174.57 829.938 1174.65 829.418 1174.69 828.989 1174.69 828.653 1174.69 827.964 1174.51 827.475 1174.17 827.184 1173.82 826.893 1173.18 826.74 1172.23 826.725ZM1246.06 824.843C1247.68 824.843 1249.11 825.084 1250.35 825.566 1251.59 826.048 1252.62 826.725 1253.45 827.597 1254.27 828.469 1254.9 829.521 1255.32 830.753 1255.74 831.984 1255.95 833.365 1255.95 834.895 1255.95 836.119 1255.83 837.477 1255.58 838.969 1255.34 840.46 1254.95 841.971 1254.42 843.501 1253.9 845.031 1253.2 846.519 1252.33 847.965 1251.47 849.41 1250.43 850.696 1249.23 851.82 1248.02 852.945 1246.61 853.847 1245 854.528 1243.4 855.209 1241.57 855.549 1239.52 855.549 1237.97 855.549 1236.59 855.327 1235.36 854.884 1234.14 854.44 1233.1 853.79 1232.24 852.933 1231.39 852.076 1230.73 851.021 1230.27 849.766 1229.81 848.512 1229.58 847.089 1229.58 845.498 1229.58 844.167 1229.71 842.736 1229.97 841.206 1230.23 839.676 1230.64 838.146 1231.19 836.616 1231.74 835.086 1232.45 833.614 1233.32 832.198 1234.19 830.783 1235.24 829.533 1236.47 828.446 1237.69 827.36 1239.1 826.488 1240.69 825.83 1242.28 825.172 1244.07 824.843 1246.06 824.843Z" fill-rule="evenodd"/><text fill="#000000" fill-opacity="0" font-family="Arial,Arial_MSFontService,sans-serif" font-size="30.7061" x="1166.91" y="851.711">𝑃𝑃𝑂</text><path d="M1287.11 833.378 1287.96 835.784C1283.08 837.388 1279.47 840.518 1277.13 845.175 1274.78 849.831 1273.61 855.68 1273.61 862.721 1273.61 870.013 1274.78 876.024 1277.13 880.753 1279.47 885.482 1283.05 888.649 1287.86 890.253L1287.11 892.659C1281.01 891.055 1276.33 887.602 1273.08 882.3 1269.83 876.998 1268.21 870.576 1268.21 863.034 1268.21 855.513 1269.84 849.091 1273.1 843.768 1276.36 838.445 1281.03 834.982 1287.11 833.378Z" fill-rule="evenodd"/><text fill="#000000" fill-opacity="0" font-family="Arial,Arial_MSFontService,sans-serif" font-size="59.2812" x="1268.21" y="885.249">(</text><path d="M1310.93 850.628C1310.14 850.628 1309.39 850.768 1308.67 851.05 1307.95 851.331 1307.2 851.81 1306.42 852.487 1305.64 853.164 1304.89 854.076 1304.18 855.221 1303.48 856.367 1302.84 857.716 1302.28 859.268 1301.72 860.82 1301.17 862.805 1300.65 865.221L1299.56 870.253C1299.52 870.482 1299.47 870.81 1299.42 871.237 1299.37 871.664 1299.34 872.055 1299.34 872.409 1299.34 873.742 1299.89 874.768 1300.98 875.487 1302.08 876.206 1303.53 876.565 1305.34 876.565 1307.49 876.565 1309.39 875.695 1311.04 873.956 1312.7 872.216 1313.99 869.82 1314.9 866.768 1315.82 863.716 1316.28 860.68 1316.28 857.659 1316.28 856.305 1316.14 855.123 1315.86 854.112 1315.58 853.102 1315.04 852.268 1314.25 851.612 1313.46 850.956 1312.35 850.628 1310.93 850.628ZM1311.75 848.159C1313.77 848.159 1315.55 848.57 1317.09 849.393 1318.63 850.216 1319.8 851.409 1320.59 852.971 1321.38 854.534 1321.78 856.451 1321.78 858.721 1321.78 862.263 1321.09 865.623 1319.7 868.8 1318.31 871.977 1316.39 874.477 1313.92 876.3 1311.45 878.123 1308.68 879.034 1305.62 879.034 1304.21 879.034 1302.86 878.909 1301.59 878.659 1300.32 878.409 1299.05 877.982 1297.78 877.378L1294.53 892.034 1289.4 892.034 1295.75 863.753C1296.5 860.419 1297.57 857.628 1298.97 855.378 1300.36 853.128 1302.13 851.362 1304.28 850.081 1306.42 848.8 1308.91 848.159 1311.75 848.159Z" fill-rule="evenodd"/><text fill="#000000" fill-opacity="0" font-family="Arial,Arial_MSFontService,sans-serif" font-size="43.875" x="1289.4" y="886.55">𝜌</text><path d="M1327.84 833.378C1333.92 834.982 1338.59 838.445 1341.85 843.768 1345.11 849.091 1346.74 855.513 1346.74 863.034 1346.74 870.576 1345.12 876.998 1341.87 882.3 1338.62 887.602 1333.94 891.055 1327.84 892.659L1327.09 890.253C1331.9 888.649 1335.48 885.482 1337.82 880.753 1340.17 876.024 1341.34 870.013 1341.34 862.721 1341.34 855.68 1340.17 849.831 1337.84 845.175 1335.51 840.518 1331.89 837.388 1326.99 835.784Z" fill-rule="evenodd"/><text fill="#000000" fill-opacity="0" font-family="Arial,Arial_MSFontService,sans-serif" font-size="59.2812" x="1326.99" y="885.249">)</text><path d="M1469.86 1323.08 1471.58 1323.08C1471.46 1325.08 1471.39 1327.85 1471.39 1331.39L1471.39 1358.08C1471.39 1359.28 1471.46 1360.19 1471.6 1360.81 1471.73 1361.42 1471.97 1361.92 1472.31 1362.31 1472.66 1362.69 1473.15 1363 1473.8 1363.22 1474.44 1363.43 1475.26 1363.6 1476.24 1363.72 1477.22 1363.83 1478.51 1363.91 1480.11 1363.95L1480.11 1366.23 1457.02 1366.23 1457.02 1363.95C1459.33 1363.85 1460.98 1363.71 1461.97 1363.53 1462.96 1363.35 1463.72 1363.09 1464.24 1362.73 1464.76 1362.38 1465.14 1361.88 1465.38 1361.23 1465.62 1360.59 1465.74 1359.53 1465.74 1358.08L1465.74 1332.73C1465.74 1331.9 1465.59 1331.29 1465.3 1330.9 1465.01 1330.52 1464.58 1330.33 1464.02 1330.33 1463.35 1330.33 1462.4 1330.67 1461.17 1331.36 1459.94 1332.04 1458.42 1332.99 1456.61 1334.2L1455.24 1331.79Z" fill-rule="evenodd"/><text fill="#000000" fill-opacity="0" font-family="Arial,Arial_MSFontService,sans-serif" font-size="43.1562" x="1455.24" y="1360.84">1</text><path d="M1504.11 1345.86 1542.61 1345.86 1542.61 1350.01 1504.11 1350.01Z" fill-rule="evenodd"/><text fill="#000000" fill-opacity="0" font-family="Arial,Arial_MSFontService,sans-serif" font-size="4.15625" x="1504.11" y="1349.49">−</text><path d="M1583.48 1335.83C1584.92 1335.83 1586.23 1335.92 1587.42 1336.11 1588.61 1336.29 1589.85 1336.66 1591.14 1337.2L1590.05 1339.98C1587.98 1339.34 1585.87 1339.01 1583.7 1339.01 1580.83 1339.01 1578.32 1339.88 1576.19 1341.62 1574.05 1343.36 1572.51 1345.84 1571.55 1349.04L1587.27 1349.04 1586.58 1352.29 1570.73 1352.29C1570.63 1352.67 1570.52 1353.27 1570.41 1354.11 1570.29 1354.94 1570.23 1355.74 1570.23 1356.51 1570.23 1358.76 1570.8 1360.49 1571.92 1361.7 1573.05 1362.91 1574.59 1363.51 1576.55 1363.51 1578.26 1363.51 1579.73 1363.39 1580.97 1363.15 1582.21 1362.91 1583.53 1362.53 1584.92 1362.01L1585.64 1364.51C1583.77 1365.26 1582.03 1365.82 1580.44 1366.18 1578.84 1366.55 1577.03 1366.73 1574.98 1366.73 1571.8 1366.73 1569.35 1365.84 1567.66 1364.04 1565.96 1362.25 1565.11 1359.7 1565.11 1356.39 1565.11 1354.76 1565.32 1352.96 1565.75 1350.98 1566.18 1349 1566.88 1347.11 1567.86 1345.29 1568.84 1343.48 1570.09 1341.86 1571.61 1340.42 1573.13 1338.98 1574.9 1337.86 1576.91 1337.04 1578.92 1336.23 1581.11 1335.83 1583.48 1335.83Z" fill-rule="evenodd"/><text fill="#000000" fill-opacity="0" font-family="Arial,Arial_MSFontService,sans-serif" font-size="30.9062" x="1565.11" y="1362.87">𝜖</text><path d="M1731.85 1326.71 1733.57 1326.71C1733.44 1328.71 1733.38 1331.49 1733.38 1335.03L1733.38 1361.71C1733.38 1362.92 1733.45 1363.83 1733.58 1364.45 1733.72 1365.06 1733.96 1365.56 1734.3 1365.95 1734.64 1366.33 1735.14 1366.64 1735.78 1366.86 1736.43 1367.07 1737.24 1367.24 1738.22 1367.36 1739.2 1367.47 1740.49 1367.55 1742.1 1367.59L1742.1 1369.87 1719 1369.87 1719 1367.59C1721.32 1367.49 1722.97 1367.34 1723.96 1367.17 1724.95 1366.99 1725.7 1366.73 1726.22 1366.37 1726.74 1366.02 1727.12 1365.52 1727.36 1364.87 1727.6 1364.23 1727.72 1363.17 1727.72 1361.71L1727.72 1336.37C1727.72 1335.54 1727.58 1334.93 1727.28 1334.54 1726.99 1334.16 1726.57 1333.96 1726 1333.96 1725.34 1333.96 1724.39 1334.31 1723.16 1335 1721.93 1335.68 1720.41 1336.63 1718.6 1337.84L1717.22 1335.43Z" fill-rule="evenodd"/><text fill="#000000" fill-opacity="0" font-family="Arial,Arial_MSFontService,sans-serif" font-size="43.1562" x="1717.22" y="1364.48">1</text><path d="M1783.12 1331.5 1787.56 1331.5 1787.56 1349.5 1804.59 1349.5 1804.59 1353.65 1787.56 1353.65 1787.56 1371.65 1783.12 1371.65 1783.12 1353.65 1766.09 1353.65 1766.09 1349.5 1783.12 1349.5Z" fill-rule="evenodd"/><text fill="#000000" fill-opacity="0" font-family="Arial,Arial_MSFontService,sans-serif" font-size="40.1562" x="1766.09" y="1366.63">+</text><path d="M1845.47 1339.46C1846.91 1339.46 1848.22 1339.56 1849.41 1339.75 1850.6 1339.93 1851.83 1340.3 1853.13 1340.84L1852.03 1343.62C1849.97 1342.98 1847.86 1342.65 1845.69 1342.65 1842.81 1342.65 1840.31 1343.52 1838.17 1345.26 1836.04 1347 1834.49 1349.48 1833.53 1352.68L1849.25 1352.68 1848.56 1355.93 1832.72 1355.93C1832.62 1356.31 1832.51 1356.91 1832.39 1357.75 1832.28 1358.58 1832.22 1359.38 1832.22 1360.15 1832.22 1362.4 1832.78 1364.13 1833.91 1365.34 1835.03 1366.55 1836.57 1367.15 1838.53 1367.15 1840.24 1367.15 1841.71 1367.03 1842.95 1366.79 1844.19 1366.55 1845.51 1366.17 1846.91 1365.65L1847.63 1368.15C1845.75 1368.9 1844.02 1369.46 1842.42 1369.82 1840.83 1370.19 1839.01 1370.37 1836.97 1370.37 1833.78 1370.37 1831.34 1369.48 1829.64 1367.68 1827.94 1365.89 1827.1 1363.34 1827.1 1360.03 1827.1 1358.4 1827.31 1356.6 1827.74 1354.62 1828.16 1352.64 1828.87 1350.75 1829.85 1348.93 1830.82 1347.12 1832.07 1345.5 1833.6 1344.06 1835.12 1342.62 1836.88 1341.5 1838.89 1340.68 1840.9 1339.87 1843.1 1339.46 1845.47 1339.46Z" fill-rule="evenodd"/><text fill="#000000" fill-opacity="0" font-family="Arial,Arial_MSFontService,sans-serif" font-size="30.9062" x="1827.1" y="1366.51">𝜖</text><path d="M1217 1307 1433.35 1307" stroke="#4E95D9" stroke-width="10.3125" stroke-miterlimit="8" fill="none" fill-rule="evenodd"/><path d="M0 0 335.857 220.616" stroke="#4E95D9" stroke-width="10.3125" stroke-miterlimit="8" fill="none" fill-rule="evenodd" transform="matrix(-1 0 0 1 1768.86 1086)"/><path d="M0 0 122.189 0.000360892" stroke="#FFC000" stroke-width="10.3125" stroke-miterlimit="8" fill="none" fill-rule="evenodd" transform="matrix(-1 0 0 1 1855.19 1591)"/><path d="M1277 1414 1735.57 1591.71" stroke="#FFC000" stroke-width="10.3125" stroke-miterlimit="8" fill="none" fill-rule="evenodd"/><path d="M1734.5 1446.5 1734.5 1592.05" stroke="#000000" stroke-width="6.875" stroke-miterlimit="8" stroke-dasharray="27.5 20.625" fill="none" fill-rule="evenodd"/><path d="M1433.5 1313.5 1433.5 1390.32" stroke="#000000" stroke-width="6.875" stroke-miterlimit="8" stroke-dasharray="27.5 20.625" fill="none" fill-rule="evenodd"/><path d="M2987.62 1403.91C2986.83 1403.91 2986.08 1404.05 2985.36 1404.33 2984.64 1404.61 2983.89 1405.09 2983.11 1405.76 2982.33 1406.44 2981.58 1407.35 2980.87 1408.5 2980.17 1409.64 2979.53 1410.99 2978.97 1412.55 2978.41 1414.1 2977.86 1416.08 2977.34 1418.5L2976.25 1423.53C2976.21 1423.76 2976.16 1424.09 2976.11 1424.51 2976.06 1424.94 2976.03 1425.33 2976.03 1425.69 2976.03 1427.02 2976.58 1428.05 2977.67 1428.76 2978.76 1429.48 2980.22 1429.84 2982.03 1429.84 2984.18 1429.84 2986.08 1428.97 2987.73 1427.23 2989.39 1425.49 2990.68 1423.1 2991.59 1420.05 2992.51 1416.99 2992.97 1413.96 2992.97 1410.94 2992.97 1409.58 2992.83 1408.4 2992.55 1407.39 2992.26 1406.38 2991.73 1405.55 2990.94 1404.89 2990.14 1404.23 2989.04 1403.91 2987.62 1403.91ZM2988.44 1401.44C2990.46 1401.44 2992.24 1401.85 2993.78 1402.67 2995.32 1403.49 2996.49 1404.69 2997.28 1406.25 2998.07 1407.81 2998.47 1409.73 2998.47 1412 2998.47 1415.54 2997.77 1418.9 2996.39 1422.08 2995 1425.25 2993.08 1427.75 2990.61 1429.58 2988.14 1431.4 2985.37 1432.31 2982.31 1432.31 2980.89 1432.31 2979.55 1432.19 2978.28 1431.94 2977.01 1431.69 2975.74 1431.26 2974.47 1430.66L2971.22 1445.31 2966.09 1445.31 2972.44 1417.03C2973.19 1413.7 2974.26 1410.91 2975.66 1408.66 2977.05 1406.41 2978.82 1404.64 2980.97 1403.36 2983.11 1402.08 2985.6 1401.44 2988.44 1401.44Z" fill-rule="evenodd"/><text fill="#000000" fill-opacity="0" font-family="Arial,Arial_MSFontService,sans-serif" font-size="43.875" x="2966.09" y="1439.83">𝜌</text><path d="M1965.68 1404.79C1964.89 1404.79 1964.13 1404.93 1963.41 1405.21 1962.69 1405.49 1961.94 1405.97 1961.16 1406.65 1960.38 1407.32 1959.64 1408.24 1958.93 1409.38 1958.22 1410.53 1957.58 1411.88 1957.02 1413.43 1956.46 1414.98 1955.92 1416.97 1955.4 1419.38L1954.3 1424.41C1954.26 1424.64 1954.21 1424.97 1954.16 1425.4 1954.11 1425.82 1954.08 1426.22 1954.08 1426.57 1954.08 1427.9 1954.63 1428.93 1955.72 1429.65 1956.82 1430.37 1958.27 1430.73 1960.08 1430.73 1962.23 1430.73 1964.13 1429.86 1965.79 1428.12 1967.44 1426.38 1968.73 1423.98 1969.65 1420.93 1970.56 1417.88 1971.02 1414.84 1971.02 1411.82 1971.02 1410.47 1970.88 1409.28 1970.6 1408.27 1970.32 1407.26 1969.78 1406.43 1968.99 1405.77 1968.2 1405.12 1967.09 1404.79 1965.68 1404.79ZM1966.49 1402.32C1968.51 1402.32 1970.29 1402.73 1971.83 1403.55 1973.38 1404.38 1974.54 1405.57 1975.33 1407.13 1976.13 1408.69 1976.52 1410.61 1976.52 1412.88 1976.52 1416.42 1975.83 1419.78 1974.44 1422.96 1973.06 1426.14 1971.13 1428.64 1968.66 1430.46 1966.19 1432.28 1963.43 1433.19 1960.37 1433.19 1958.95 1433.19 1957.61 1433.07 1956.33 1432.82 1955.06 1432.57 1953.79 1432.14 1952.52 1431.54L1949.27 1446.19 1944.15 1446.19 1950.49 1417.91C1951.24 1414.58 1952.31 1411.79 1953.71 1409.54 1955.11 1407.29 1956.88 1405.52 1959.02 1404.24 1961.17 1402.96 1963.66 1402.32 1966.49 1402.32Z" fill-rule="evenodd"/><text fill="#000000" fill-opacity="0" font-family="Arial,Arial_MSFontService,sans-serif" font-size="43.875" x="1944.15" y="1440.71">𝜌</text><path d="M0 0 156.676 107.723" stroke="#000000" stroke-width="6.875" stroke-miterlimit="8" stroke-dasharray="27.5 20.625" fill="none" fill-rule="evenodd" transform="matrix(-1 0 0 1 1434.18 1306.5)"/><path d="M2751.5 1414C2751.5 1398.26 2764.04 1385.5 2779.5 1385.5 2794.96 1385.5 2807.5 1398.26 2807.5 1414 2807.5 1429.74 2794.96 1442.5 2779.5 1442.5 2764.04 1442.5 2751.5 1429.74 2751.5 1414Z" stroke="#042433" stroke-width="6.875" stroke-miterlimit="8" fill="#FDE78B" fill-rule="evenodd"/><path d="M2031.01 1182.17 2023.83 1191.05 2030.89 1199.8 2112.7 1199.8 2119.83 1191.05 2112.64 1182.17ZM2043.33 1158.48 2047.39 1161.92 2037.39 1173.86 2106.2 1173.86 2096.26 1161.92 2100.33 1158.48 2130.89 1189.05 2130.89 1193.05 2100.33 1223.61 2096.26 1220.17 2106.33 1208.11 2037.33 1208.11 2047.39 1220.17 2043.33 1223.61 2012.76 1193.05 2012.76 1189.05Z" fill-rule="evenodd"/><text fill="#000000" fill-opacity="0" font-family="Arial,Arial_MSFontService,sans-serif" font-size="65.125" x="2012.76" y="1215.47">֞</text></g></svg>